<svg width="70" height="71" viewBox="0 0 70 71" fill="none" xmlns="http://www.w3.org/2000/svg">
<path d="M21.74 71C17.3 71 13.46 69.59 10.22 66.77C7.04 63.95 4.61 59.93 2.93 54.71C1.31 49.43 0.5 43.1 0.5 35.72C0.5 28.46 1.31 22.19 2.93 16.91C4.61 11.63 7.04 7.58 10.22 4.75999C13.46 1.94 17.3 0.529995 21.74 0.529995C26.3 0.529995 30.17 1.97 33.35 4.85C36.53 7.67 38.93 11.72 40.55 17C42.23 22.28 43.07 28.52 43.07 35.72C43.07 43.04 42.23 49.34 40.55 54.62C38.93 59.84 36.53 63.89 33.35 66.77C30.17 69.59 26.3 71 21.74 71ZM21.74 63.17C24.86 63.17 27.41 62 29.39 59.66C31.37 57.26 32.84 53.99 33.8 49.85C34.82 45.71 35.33 41 35.33 35.72C35.33 30.5 34.82 25.85 33.8 21.77C32.84 17.63 31.34 14.36 29.3 11.96C27.32 9.56 24.8 8.36 21.74 8.36C18.74 8.36 16.25 9.56 14.27 11.96C12.29 14.3 10.79 17.54 9.77 21.68C8.75 25.82 8.24 30.5 8.24 35.72C8.24 41.06 8.75 45.8 9.77 49.94C10.79 54.08 12.29 57.32 14.27 59.66C16.25 62 18.74 63.17 21.74 63.17ZM65.5883 71C64.5083 71 63.5783 70.64 62.7983 69.92C62.0783 69.14 61.7183 68.21 61.7183 67.13V9.8L53.5283 12.86C52.7483 13.22 52.0283 13.4 51.3683 13.4C50.2283 13.4 49.2983 13.04 48.5783 12.32C47.8583 11.6 47.4983 10.7 47.4983 9.62C47.4983 8.78 47.6783 8.03 48.0383 7.37C48.4583 6.71 49.1183 6.23 50.0183 5.93L63.8783 1.07C64.1783 0.949997 64.4783 0.859996 64.7783 0.799997C65.1383 0.679995 65.4383 0.619994 65.6783 0.619994C66.8183 0.619994 67.7183 1.00999 68.3783 1.79C69.0983 2.51 69.4583 3.44 69.4583 4.58V67.13C69.4583 68.21 69.0683 69.14 68.2883 69.92C67.5683 70.64 66.6683 71 65.5883 71Z" fill="#55DFFF"/>
<path d="M21.74 71C17.3 71 13.46 69.59 10.22 66.77C7.04 63.95 4.61 59.93 2.93 54.71C1.31 49.43 0.5 43.1 0.5 35.72C0.5 28.46 1.31 22.19 2.93 16.91C4.61 11.63 7.04 7.58 10.22 4.75999C13.46 1.94 17.3 0.529995 21.74 0.529995C26.3 0.529995 30.17 1.97 33.35 4.85C36.53 7.67 38.93 11.72 40.55 17C42.23 22.28 43.07 28.52 43.07 35.72C43.07 43.04 42.23 49.34 40.55 54.62C38.93 59.84 36.53 63.89 33.35 66.77C30.17 69.59 26.3 71 21.74 71ZM21.74 63.17C24.86 63.17 27.41 62 29.39 59.66C31.37 57.26 32.84 53.99 33.8 49.85C34.82 45.71 35.33 41 35.33 35.72C35.33 30.5 34.82 25.85 33.8 21.77C32.84 17.63 31.34 14.36 29.3 11.96C27.32 9.56 24.8 8.36 21.74 8.36C18.74 8.36 16.25 9.56 14.27 11.96C12.29 14.3 10.79 17.54 9.77 21.68C8.75 25.82 8.24 30.5 8.24 35.72C8.24 41.06 8.75 45.8 9.77 49.94C10.79 54.08 12.29 57.32 14.27 59.66C16.25 62 18.74 63.17 21.74 63.17ZM65.5883 71C64.5083 71 63.5783 70.64 62.7983 69.92C62.0783 69.14 61.7183 68.21 61.7183 67.13V9.8L53.5283 12.86C52.7483 13.22 52.0283 13.4 51.3683 13.4C50.2283 13.4 49.2983 13.04 48.5783 12.32C47.8583 11.6 47.4983 10.7 47.4983 9.62C47.4983 8.78 47.6783 8.03 48.0383 7.37C48.4583 6.71 49.1183 6.23 50.0183 5.93L63.8783 1.07C64.1783 0.949997 64.4783 0.859996 64.7783 0.799997C65.1383 0.679995 65.4383 0.619994 65.6783 0.619994C66.8183 0.619994 67.7183 1.00999 68.3783 1.79C69.0983 2.51 69.4583 3.44 69.4583 4.58V67.13C69.4583 68.21 69.0683 69.14 68.2883 69.92C67.5683 70.64 66.6683 71 65.5883 71Z" fill="url(#paint0_linear)" fill-opacity="0.8"/>
<defs>
<linearGradient id="paint0_linear" x1="37.5" y1="-8" x2="37.5" y2="92" gradientUnits="userSpaceOnUse">
<stop stop-color="#00C2FF"/>
<stop offset="1" stop-color="#00FFF0"/>
</linearGradient>
</defs>
</svg>
