<svg width="55" height="55" viewBox="0 0 55 55" fill="none" xmlns="http://www.w3.org/2000/svg">
<path d="M17.02 55C13.5667 55 10.58 53.9033 8.06 51.71C5.58667 49.5167 3.69667 46.39 2.39 42.33C1.13 38.2233 0.5 33.3 0.5 27.56C0.5 21.9133 1.13 17.0367 2.39 12.93C3.69667 8.82333 5.58667 5.67333 8.06 3.48C10.58 1.28666 13.5667 0.189996 17.02 0.189996C20.5667 0.189996 23.5767 1.31 26.05 3.55C28.5233 5.74333 30.39 8.89333 31.65 13C32.9567 17.1067 33.61 21.96 33.61 27.56C33.61 33.2533 32.9567 38.1533 31.65 42.26C30.39 46.32 28.5233 49.47 26.05 51.71C23.5767 53.9033 20.5667 55 17.02 55ZM17.02 48.91C19.4467 48.91 21.43 48 22.97 46.18C24.51 44.3133 25.6533 41.77 26.4 38.55C27.1933 35.33 27.59 31.6667 27.59 27.56C27.59 23.5 27.1933 19.8833 26.4 16.71C25.6533 13.49 24.4867 10.9467 22.9 9.08C21.36 7.21333 19.4 6.28 17.02 6.28C14.6867 6.28 12.75 7.21333 11.21 9.08C9.67 10.9 8.50333 13.42 7.71 16.64C6.91667 19.86 6.52 23.5 6.52 27.56C6.52 31.7133 6.91667 35.4 7.71 38.62C8.50333 41.84 9.67 44.36 11.21 46.18C12.75 48 14.6867 48.91 17.02 48.91ZM51.1242 55C50.2842 55 49.5609 54.72 48.9542 54.16C48.3942 53.5533 48.1142 52.83 48.1142 51.99V7.4L41.7442 9.78C41.1376 10.06 40.5776 10.2 40.0642 10.2C39.1776 10.2 38.4542 9.92 37.8942 9.36C37.3342 8.8 37.0542 8.1 37.0542 7.26C37.0542 6.60666 37.1942 6.02333 37.4742 5.51C37.8009 4.99666 38.3142 4.62333 39.0142 4.39L49.7942 0.609999C50.0276 0.516664 50.2609 0.446664 50.4942 0.399998C50.7742 0.306663 51.0076 0.259995 51.1942 0.259995C52.0809 0.259995 52.7809 0.563329 53.2942 1.17C53.8542 1.73 54.1342 2.45333 54.1342 3.34V51.99C54.1342 52.83 53.8309 53.5533 53.2242 54.16C52.6642 54.72 51.9642 55 51.1242 55Z" fill="#55DFFF"/>
<path d="M17.02 55C13.5667 55 10.58 53.9033 8.06 51.71C5.58667 49.5167 3.69667 46.39 2.39 42.33C1.13 38.2233 0.5 33.3 0.5 27.56C0.5 21.9133 1.13 17.0367 2.39 12.93C3.69667 8.82333 5.58667 5.67333 8.06 3.48C10.58 1.28666 13.5667 0.189996 17.02 0.189996C20.5667 0.189996 23.5767 1.31 26.05 3.55C28.5233 5.74333 30.39 8.89333 31.65 13C32.9567 17.1067 33.61 21.96 33.61 27.56C33.61 33.2533 32.9567 38.1533 31.65 42.26C30.39 46.32 28.5233 49.47 26.05 51.71C23.5767 53.9033 20.5667 55 17.02 55ZM17.02 48.91C19.4467 48.91 21.43 48 22.97 46.18C24.51 44.3133 25.6533 41.77 26.4 38.55C27.1933 35.33 27.59 31.6667 27.59 27.56C27.59 23.5 27.1933 19.8833 26.4 16.71C25.6533 13.49 24.4867 10.9467 22.9 9.08C21.36 7.21333 19.4 6.28 17.02 6.28C14.6867 6.28 12.75 7.21333 11.21 9.08C9.67 10.9 8.50333 13.42 7.71 16.64C6.91667 19.86 6.52 23.5 6.52 27.56C6.52 31.7133 6.91667 35.4 7.71 38.62C8.50333 41.84 9.67 44.36 11.21 46.18C12.75 48 14.6867 48.91 17.02 48.91ZM51.1242 55C50.2842 55 49.5609 54.72 48.9542 54.16C48.3942 53.5533 48.1142 52.83 48.1142 51.99V7.4L41.7442 9.78C41.1376 10.06 40.5776 10.2 40.0642 10.2C39.1776 10.2 38.4542 9.92 37.8942 9.36C37.3342 8.8 37.0542 8.1 37.0542 7.26C37.0542 6.60666 37.1942 6.02333 37.4742 5.51C37.8009 4.99666 38.3142 4.62333 39.0142 4.39L49.7942 0.609999C50.0276 0.516664 50.2609 0.446664 50.4942 0.399998C50.7742 0.306663 51.0076 0.259995 51.1942 0.259995C52.0809 0.259995 52.7809 0.563329 53.2942 1.17C53.8542 1.73 54.1342 2.45333 54.1342 3.34V51.99C54.1342 52.83 53.8309 53.5533 53.2242 54.16C52.6642 54.72 51.9642 55 51.1242 55Z" fill="url(#paint0_linear)" fill-opacity="0.8"/>
<defs>
<linearGradient id="paint0_linear" x1="29.5" y1="-7" x2="29.5" y2="71" gradientUnits="userSpaceOnUse">
<stop stop-color="#00C2FF"/>
<stop offset="1" stop-color="#00FFF0"/>
</linearGradient>
</defs>
</svg>
