<svg width="96" height="71" viewBox="0 0 96 71" fill="none" xmlns="http://www.w3.org/2000/svg">
<path d="M21.74 71C17.3 71 13.46 69.59 10.22 66.77C7.04 63.95 4.61 59.93 2.93 54.71C1.31 49.43 0.5 43.1 0.5 35.72C0.5 28.46 1.31 22.19 2.93 16.91C4.61 11.63 7.04 7.58 10.22 4.75999C13.46 1.94 17.3 0.529995 21.74 0.529995C26.3 0.529995 30.17 1.97 33.35 4.85C36.53 7.67 38.93 11.72 40.55 17C42.23 22.28 43.07 28.52 43.07 35.72C43.07 43.04 42.23 49.34 40.55 54.62C38.93 59.84 36.53 63.89 33.35 66.77C30.17 69.59 26.3 71 21.74 71ZM21.74 63.17C24.86 63.17 27.41 62 29.39 59.66C31.37 57.26 32.84 53.99 33.8 49.85C34.82 45.71 35.33 41 35.33 35.72C35.33 30.5 34.82 25.85 33.8 21.77C32.84 17.63 31.34 14.36 29.3 11.96C27.32 9.56 24.8 8.36 21.74 8.36C18.74 8.36 16.25 9.56 14.27 11.96C12.29 14.3 10.79 17.54 9.77 21.68C8.75 25.82 8.24 30.5 8.24 35.72C8.24 41.06 8.75 45.8 9.77 49.94C10.79 54.08 12.29 57.32 14.27 59.66C16.25 62 18.74 63.17 21.74 63.17ZM57.6718 71C56.5918 71 55.6618 70.64 54.8818 69.92C54.1618 69.14 53.8018 68.21 53.8018 67.13C53.8018 66.11 54.1618 65.21 54.8818 64.43L81.6118 33.02C83.1718 31.22 84.4018 29.36 85.3018 27.44C86.2618 25.46 86.7418 23.6 86.7418 21.86C86.7418 19.1 86.2318 16.7 85.2118 14.66C84.1918 12.56 82.7218 10.94 80.8018 9.8C78.8818 8.6 76.6918 8 74.2318 8C71.7718 8 69.5518 8.63 67.5718 9.89C65.5918 11.09 64.0318 12.74 62.8918 14.84C61.7518 16.94 61.1818 19.28 61.1818 21.86C61.1818 22.88 60.8218 23.78 60.1018 24.56C59.3818 25.28 58.4518 25.64 57.3118 25.64C56.2318 25.64 55.3018 25.28 54.5218 24.56C53.8018 23.78 53.4418 22.88 53.4418 21.86C53.4418 17.84 54.3418 14.24 56.1418 11.06C58.0018 7.82 60.4918 5.27 63.6118 3.41C66.7318 1.54999 70.2718 0.619994 74.2318 0.619994C78.1918 0.619994 81.6718 1.52 84.6718 3.32C87.6718 5.12 90.0118 7.61 91.6918 10.79C93.4318 13.97 94.3018 17.66 94.3018 21.86C94.3018 23.84 93.9418 25.76 93.2218 27.62C92.5618 29.48 91.6618 31.25 90.5218 32.93C89.3818 34.61 88.1818 36.17 86.9218 37.61L64.6918 63.26H91.8718C92.9518 63.26 93.8518 63.65 94.5718 64.43C95.3518 65.21 95.7418 66.11 95.7418 67.13C95.7418 68.21 95.3518 69.14 94.5718 69.92C93.8518 70.64 92.9518 71 91.8718 71H57.6718Z" fill="#55DFFF"/>
<path d="M21.74 71C17.3 71 13.46 69.59 10.22 66.77C7.04 63.95 4.61 59.93 2.93 54.71C1.31 49.43 0.5 43.1 0.5 35.72C0.5 28.46 1.31 22.19 2.93 16.91C4.61 11.63 7.04 7.58 10.22 4.75999C13.46 1.94 17.3 0.529995 21.74 0.529995C26.3 0.529995 30.17 1.97 33.35 4.85C36.53 7.67 38.93 11.72 40.55 17C42.23 22.28 43.07 28.52 43.07 35.72C43.07 43.04 42.23 49.34 40.55 54.62C38.93 59.84 36.53 63.89 33.35 66.77C30.17 69.59 26.3 71 21.74 71ZM21.74 63.17C24.86 63.17 27.41 62 29.39 59.66C31.37 57.26 32.84 53.99 33.8 49.85C34.82 45.71 35.33 41 35.33 35.72C35.33 30.5 34.82 25.85 33.8 21.77C32.84 17.63 31.34 14.36 29.3 11.96C27.32 9.56 24.8 8.36 21.74 8.36C18.74 8.36 16.25 9.56 14.27 11.96C12.29 14.3 10.79 17.54 9.77 21.68C8.75 25.82 8.24 30.5 8.24 35.72C8.24 41.06 8.75 45.8 9.77 49.94C10.79 54.08 12.29 57.32 14.27 59.66C16.25 62 18.74 63.17 21.74 63.17ZM57.6718 71C56.5918 71 55.6618 70.64 54.8818 69.92C54.1618 69.14 53.8018 68.21 53.8018 67.13C53.8018 66.11 54.1618 65.21 54.8818 64.43L81.6118 33.02C83.1718 31.22 84.4018 29.36 85.3018 27.44C86.2618 25.46 86.7418 23.6 86.7418 21.86C86.7418 19.1 86.2318 16.7 85.2118 14.66C84.1918 12.56 82.7218 10.94 80.8018 9.8C78.8818 8.6 76.6918 8 74.2318 8C71.7718 8 69.5518 8.63 67.5718 9.89C65.5918 11.09 64.0318 12.74 62.8918 14.84C61.7518 16.94 61.1818 19.28 61.1818 21.86C61.1818 22.88 60.8218 23.78 60.1018 24.56C59.3818 25.28 58.4518 25.64 57.3118 25.64C56.2318 25.64 55.3018 25.28 54.5218 24.56C53.8018 23.78 53.4418 22.88 53.4418 21.86C53.4418 17.84 54.3418 14.24 56.1418 11.06C58.0018 7.82 60.4918 5.27 63.6118 3.41C66.7318 1.54999 70.2718 0.619994 74.2318 0.619994C78.1918 0.619994 81.6718 1.52 84.6718 3.32C87.6718 5.12 90.0118 7.61 91.6918 10.79C93.4318 13.97 94.3018 17.66 94.3018 21.86C94.3018 23.84 93.9418 25.76 93.2218 27.62C92.5618 29.48 91.6618 31.25 90.5218 32.93C89.3818 34.61 88.1818 36.17 86.9218 37.61L64.6918 63.26H91.8718C92.9518 63.26 93.8518 63.65 94.5718 64.43C95.3518 65.21 95.7418 66.11 95.7418 67.13C95.7418 68.21 95.3518 69.14 94.5718 69.92C93.8518 70.64 92.9518 71 91.8718 71H57.6718Z" fill="url(#paint0_linear)" fill-opacity="0.8"/>
<defs>
<linearGradient id="paint0_linear" x1="48.5" y1="-8" x2="48.5" y2="92" gradientUnits="userSpaceOnUse">
<stop stop-color="#00C2FF"/>
<stop offset="1" stop-color="#00FFF0"/>
</linearGradient>
</defs>
</svg>
