<svg width="75" height="55" viewBox="0 0 75 55" fill="none" xmlns="http://www.w3.org/2000/svg">
<path d="M17.02 55C13.5667 55 10.58 53.9033 8.06 51.71C5.58667 49.5167 3.69667 46.39 2.39 42.33C1.13 38.2233 0.5 33.3 0.5 27.56C0.5 21.9133 1.13 17.0367 2.39 12.93C3.69667 8.82333 5.58667 5.67333 8.06 3.48C10.58 1.28666 13.5667 0.189996 17.02 0.189996C20.5667 0.189996 23.5767 1.31 26.05 3.55C28.5233 5.74333 30.39 8.89333 31.65 13C32.9567 17.1067 33.61 21.96 33.61 27.56C33.61 33.2533 32.9567 38.1533 31.65 42.26C30.39 46.32 28.5233 49.47 26.05 51.71C23.5767 53.9033 20.5667 55 17.02 55ZM17.02 48.91C19.4467 48.91 21.43 48 22.97 46.18C24.51 44.3133 25.6533 41.77 26.4 38.55C27.1933 35.33 27.59 31.6667 27.59 27.56C27.59 23.5 27.1933 19.8833 26.4 16.71C25.6533 13.49 24.4867 10.9467 22.9 9.08C21.36 7.21333 19.4 6.28 17.02 6.28C14.6867 6.28 12.75 7.21333 11.21 9.08C9.67 10.9 8.50333 13.42 7.71 16.64C6.91667 19.86 6.52 23.5 6.52 27.56C6.52 31.7133 6.91667 35.4 7.71 38.62C8.50333 41.84 9.67 44.36 11.21 46.18C12.75 48 14.6867 48.91 17.02 48.91ZM44.967 55C44.127 55 43.4036 54.72 42.797 54.16C42.237 53.5533 41.957 52.83 41.957 51.99C41.957 51.1967 42.237 50.4967 42.797 49.89L63.587 25.46C64.8003 24.06 65.757 22.6133 66.457 21.12C67.2036 19.58 67.577 18.1333 67.577 16.78C67.577 14.6333 67.1803 12.7667 66.387 11.18C65.5936 9.54666 64.4503 8.28667 62.957 7.4C61.4636 6.46666 59.7603 6 57.847 6C55.9336 6 54.207 6.49 52.667 7.47C51.127 8.40333 49.9136 9.68666 49.027 11.32C48.1403 12.9533 47.697 14.7733 47.697 16.78C47.697 17.5733 47.417 18.2733 46.857 18.88C46.297 19.44 45.5736 19.72 44.687 19.72C43.847 19.72 43.1236 19.44 42.517 18.88C41.957 18.2733 41.677 17.5733 41.677 16.78C41.677 13.6533 42.377 10.8533 43.777 8.38C45.2236 5.86 47.1603 3.87666 49.587 2.43C52.0136 0.983329 54.767 0.259995 57.847 0.259995C60.927 0.259995 63.6336 0.959996 65.967 2.36C68.3003 3.76 70.1203 5.69666 71.427 8.17C72.7803 10.6433 73.457 13.5133 73.457 16.78C73.457 18.32 73.177 19.8133 72.617 21.26C72.1036 22.7067 71.4036 24.0833 70.517 25.39C69.6303 26.6967 68.697 27.91 67.717 29.03L50.427 48.98H71.567C72.407 48.98 73.107 49.2833 73.667 49.89C74.2736 50.4967 74.577 51.1967 74.577 51.99C74.577 52.83 74.2736 53.5533 73.667 54.16C73.107 54.72 72.407 55 71.567 55H44.967Z" fill="#55DFFF"/>
<path d="M17.02 55C13.5667 55 10.58 53.9033 8.06 51.71C5.58667 49.5167 3.69667 46.39 2.39 42.33C1.13 38.2233 0.5 33.3 0.5 27.56C0.5 21.9133 1.13 17.0367 2.39 12.93C3.69667 8.82333 5.58667 5.67333 8.06 3.48C10.58 1.28666 13.5667 0.189996 17.02 0.189996C20.5667 0.189996 23.5767 1.31 26.05 3.55C28.5233 5.74333 30.39 8.89333 31.65 13C32.9567 17.1067 33.61 21.96 33.61 27.56C33.61 33.2533 32.9567 38.1533 31.65 42.26C30.39 46.32 28.5233 49.47 26.05 51.71C23.5767 53.9033 20.5667 55 17.02 55ZM17.02 48.91C19.4467 48.91 21.43 48 22.97 46.18C24.51 44.3133 25.6533 41.77 26.4 38.55C27.1933 35.33 27.59 31.6667 27.59 27.56C27.59 23.5 27.1933 19.8833 26.4 16.71C25.6533 13.49 24.4867 10.9467 22.9 9.08C21.36 7.21333 19.4 6.28 17.02 6.28C14.6867 6.28 12.75 7.21333 11.21 9.08C9.67 10.9 8.50333 13.42 7.71 16.64C6.91667 19.86 6.52 23.5 6.52 27.56C6.52 31.7133 6.91667 35.4 7.71 38.62C8.50333 41.84 9.67 44.36 11.21 46.18C12.75 48 14.6867 48.91 17.02 48.91ZM44.967 55C44.127 55 43.4036 54.72 42.797 54.16C42.237 53.5533 41.957 52.83 41.957 51.99C41.957 51.1967 42.237 50.4967 42.797 49.89L63.587 25.46C64.8003 24.06 65.757 22.6133 66.457 21.12C67.2036 19.58 67.577 18.1333 67.577 16.78C67.577 14.6333 67.1803 12.7667 66.387 11.18C65.5936 9.54666 64.4503 8.28667 62.957 7.4C61.4636 6.46666 59.7603 6 57.847 6C55.9336 6 54.207 6.49 52.667 7.47C51.127 8.40333 49.9136 9.68666 49.027 11.32C48.1403 12.9533 47.697 14.7733 47.697 16.78C47.697 17.5733 47.417 18.2733 46.857 18.88C46.297 19.44 45.5736 19.72 44.687 19.72C43.847 19.72 43.1236 19.44 42.517 18.88C41.957 18.2733 41.677 17.5733 41.677 16.78C41.677 13.6533 42.377 10.8533 43.777 8.38C45.2236 5.86 47.1603 3.87666 49.587 2.43C52.0136 0.983329 54.767 0.259995 57.847 0.259995C60.927 0.259995 63.6336 0.959996 65.967 2.36C68.3003 3.76 70.1203 5.69666 71.427 8.17C72.7803 10.6433 73.457 13.5133 73.457 16.78C73.457 18.32 73.177 19.8133 72.617 21.26C72.1036 22.7067 71.4036 24.0833 70.517 25.39C69.6303 26.6967 68.697 27.91 67.717 29.03L50.427 48.98H71.567C72.407 48.98 73.107 49.2833 73.667 49.89C74.2736 50.4967 74.577 51.1967 74.577 51.99C74.577 52.83 74.2736 53.5533 73.667 54.16C73.107 54.72 72.407 55 71.567 55H44.967Z" fill="url(#paint0_linear)" fill-opacity="0.8"/>
<defs>
<linearGradient id="paint0_linear" x1="37.5" y1="-7" x2="37.5" y2="71" gradientUnits="userSpaceOnUse">
<stop stop-color="#00C2FF"/>
<stop offset="1" stop-color="#00FFF0"/>
</linearGradient>
</defs>
</svg>
