<svg width="97" height="72" viewBox="0 0 97 72" fill="none" xmlns="http://www.w3.org/2000/svg">
<path d="M21.74 71C17.3 71 13.46 69.59 10.22 66.77C7.04 63.95 4.61 59.93 2.93 54.71C1.31 49.43 0.5 43.1 0.5 35.72C0.5 28.46 1.31 22.19 2.93 16.91C4.61 11.63 7.04 7.58 10.22 4.75999C13.46 1.94 17.3 0.529995 21.74 0.529995C26.3 0.529995 30.17 1.97 33.35 4.85C36.53 7.67 38.93 11.72 40.55 17C42.23 22.28 43.07 28.52 43.07 35.72C43.07 43.04 42.23 49.34 40.55 54.62C38.93 59.84 36.53 63.89 33.35 66.77C30.17 69.59 26.3 71 21.74 71ZM21.74 63.17C24.86 63.17 27.41 62 29.39 59.66C31.37 57.26 32.84 53.99 33.8 49.85C34.82 45.71 35.33 41 35.33 35.72C35.33 30.5 34.82 25.85 33.8 21.77C32.84 17.63 31.34 14.36 29.3 11.96C27.32 9.56 24.8 8.36 21.74 8.36C18.74 8.36 16.25 9.56 14.27 11.96C12.29 14.3 10.79 17.54 9.77 21.68C8.75 25.82 8.24 30.5 8.24 35.72C8.24 41.06 8.75 45.8 9.77 49.94C10.79 54.08 12.29 57.32 14.27 59.66C16.25 62 18.74 63.17 21.74 63.17ZM74.9518 71.27C70.6318 71.27 66.7918 70.37 63.4318 68.57C60.0718 66.71 57.4018 64.19 55.4218 61.01C53.5018 57.77 52.5418 54.11 52.5418 50.03C52.5418 48.89 52.8718 47.96 53.5318 47.24C54.1918 46.46 55.0618 46.07 56.1418 46.07C57.2218 46.07 58.0918 46.46 58.7518 47.24C59.4118 47.96 59.7418 48.89 59.7418 50.03C59.7418 52.73 60.3718 55.16 61.6318 57.32C62.9518 59.42 64.7518 61.13 67.0318 62.45C69.3118 63.71 71.8318 64.34 74.5918 64.34C79.0318 64.34 82.5418 63.11 85.1218 60.65C87.7018 58.13 88.9918 54.83 88.9918 50.75C88.9918 47.99 88.3918 45.56 87.1918 43.46C85.9918 41.3 84.3418 39.62 82.2418 38.42C80.2018 37.16 77.8918 36.53 75.3118 36.53C74.2318 36.53 73.3318 36.17 72.6118 35.45C71.8918 34.67 71.5318 33.74 71.5318 32.66C71.5318 31.58 71.8918 30.68 72.6118 29.96C73.3318 29.18 74.2318 28.79 75.3118 28.79C77.2918 28.79 79.1218 28.31 80.8018 27.35C82.4818 26.33 83.8618 25.01 84.9418 23.39C86.0218 21.71 86.5618 19.88 86.5618 17.9C86.5618 14.9 85.5118 12.38 83.4118 10.34C81.3118 8.3 78.5818 7.28 75.2218 7.28C72.7618 7.28 70.5418 7.76 68.5618 8.72C66.6418 9.68 65.1118 10.97 63.9718 12.59C62.8918 14.21 62.3518 16.01 62.3518 17.99C62.3518 19.13 61.9918 20.09 61.2718 20.87C60.6118 21.65 59.7718 22.04 58.7518 22.04C57.6718 22.04 56.8018 21.68 56.1418 20.96C55.4818 20.18 55.1518 19.25 55.1518 18.17C55.1518 14.81 56.0218 11.78 57.7618 9.08C59.5018 6.38 61.8718 4.25 64.8718 2.68999C67.8718 1.13 71.2918 0.349998 75.1318 0.349998C78.6118 0.349998 81.7618 1.13 84.5818 2.68999C87.4018 4.19 89.6218 6.29 91.2418 8.99C92.9218 11.63 93.7618 14.6 93.7618 17.9C93.7618 20 93.2518 22.01 92.2318 23.93C91.2118 25.79 89.8918 27.44 88.2718 28.88C86.6518 30.32 84.9118 31.46 83.0518 32.3C86.1718 33.26 88.7218 34.67 90.7018 36.53C92.7418 38.39 94.2418 40.55 95.2018 43.01C96.1618 45.47 96.6418 48.08 96.6418 50.84C96.6418 54.74 95.6818 58.25 93.7618 61.37C91.8418 64.43 89.2318 66.86 85.9318 68.66C82.6318 70.4 78.9718 71.27 74.9518 71.27Z" fill="#55DFFF"/>
<path d="M21.74 71C17.3 71 13.46 69.59 10.22 66.77C7.04 63.95 4.61 59.93 2.93 54.71C1.31 49.43 0.5 43.1 0.5 35.72C0.5 28.46 1.31 22.19 2.93 16.91C4.61 11.63 7.04 7.58 10.22 4.75999C13.46 1.94 17.3 0.529995 21.74 0.529995C26.3 0.529995 30.17 1.97 33.35 4.85C36.53 7.67 38.93 11.72 40.55 17C42.23 22.28 43.07 28.52 43.07 35.72C43.07 43.04 42.23 49.34 40.55 54.62C38.93 59.84 36.53 63.89 33.35 66.77C30.17 69.59 26.3 71 21.74 71ZM21.74 63.17C24.86 63.17 27.41 62 29.39 59.66C31.37 57.26 32.84 53.99 33.8 49.85C34.82 45.71 35.33 41 35.33 35.72C35.33 30.5 34.82 25.85 33.8 21.77C32.84 17.63 31.34 14.36 29.3 11.96C27.32 9.56 24.8 8.36 21.74 8.36C18.74 8.36 16.25 9.56 14.27 11.96C12.29 14.3 10.79 17.54 9.77 21.68C8.75 25.82 8.24 30.5 8.24 35.72C8.24 41.06 8.75 45.8 9.77 49.94C10.79 54.08 12.29 57.32 14.27 59.66C16.25 62 18.74 63.17 21.74 63.17ZM74.9518 71.27C70.6318 71.27 66.7918 70.37 63.4318 68.57C60.0718 66.71 57.4018 64.19 55.4218 61.01C53.5018 57.77 52.5418 54.11 52.5418 50.03C52.5418 48.89 52.8718 47.96 53.5318 47.24C54.1918 46.46 55.0618 46.07 56.1418 46.07C57.2218 46.07 58.0918 46.46 58.7518 47.24C59.4118 47.96 59.7418 48.89 59.7418 50.03C59.7418 52.73 60.3718 55.16 61.6318 57.32C62.9518 59.42 64.7518 61.13 67.0318 62.45C69.3118 63.71 71.8318 64.34 74.5918 64.34C79.0318 64.34 82.5418 63.11 85.1218 60.65C87.7018 58.13 88.9918 54.83 88.9918 50.75C88.9918 47.99 88.3918 45.56 87.1918 43.46C85.9918 41.3 84.3418 39.62 82.2418 38.42C80.2018 37.16 77.8918 36.53 75.3118 36.53C74.2318 36.53 73.3318 36.17 72.6118 35.45C71.8918 34.67 71.5318 33.74 71.5318 32.66C71.5318 31.58 71.8918 30.68 72.6118 29.96C73.3318 29.18 74.2318 28.79 75.3118 28.79C77.2918 28.79 79.1218 28.31 80.8018 27.35C82.4818 26.33 83.8618 25.01 84.9418 23.39C86.0218 21.71 86.5618 19.88 86.5618 17.9C86.5618 14.9 85.5118 12.38 83.4118 10.34C81.3118 8.3 78.5818 7.28 75.2218 7.28C72.7618 7.28 70.5418 7.76 68.5618 8.72C66.6418 9.68 65.1118 10.97 63.9718 12.59C62.8918 14.21 62.3518 16.01 62.3518 17.99C62.3518 19.13 61.9918 20.09 61.2718 20.87C60.6118 21.65 59.7718 22.04 58.7518 22.04C57.6718 22.04 56.8018 21.68 56.1418 20.96C55.4818 20.18 55.1518 19.25 55.1518 18.17C55.1518 14.81 56.0218 11.78 57.7618 9.08C59.5018 6.38 61.8718 4.25 64.8718 2.68999C67.8718 1.13 71.2918 0.349998 75.1318 0.349998C78.6118 0.349998 81.7618 1.13 84.5818 2.68999C87.4018 4.19 89.6218 6.29 91.2418 8.99C92.9218 11.63 93.7618 14.6 93.7618 17.9C93.7618 20 93.2518 22.01 92.2318 23.93C91.2118 25.79 89.8918 27.44 88.2718 28.88C86.6518 30.32 84.9118 31.46 83.0518 32.3C86.1718 33.26 88.7218 34.67 90.7018 36.53C92.7418 38.39 94.2418 40.55 95.2018 43.01C96.1618 45.47 96.6418 48.08 96.6418 50.84C96.6418 54.74 95.6818 58.25 93.7618 61.37C91.8418 64.43 89.2318 66.86 85.9318 68.66C82.6318 70.4 78.9718 71.27 74.9518 71.27Z" fill="url(#paint0_linear)" fill-opacity="0.8"/>
<defs>
<linearGradient id="paint0_linear" x1="48.5" y1="-8" x2="48.5" y2="92" gradientUnits="userSpaceOnUse">
<stop stop-color="#00C2FF"/>
<stop offset="1" stop-color="#00FFF0"/>
</linearGradient>
</defs>
</svg>
