<svg width="76" height="56" viewBox="0 0 76 56" fill="none" xmlns="http://www.w3.org/2000/svg">
<path d="M17.02 55C13.5667 55 10.58 53.9033 8.06 51.71C5.58667 49.5167 3.69667 46.39 2.39 42.33C1.13 38.2233 0.5 33.3 0.5 27.56C0.5 21.9133 1.13 17.0367 2.39 12.93C3.69667 8.82333 5.58667 5.67333 8.06 3.48C10.58 1.28666 13.5667 0.189996 17.02 0.189996C20.5667 0.189996 23.5767 1.31 26.05 3.55C28.5233 5.74333 30.39 8.89333 31.65 13C32.9567 17.1067 33.61 21.96 33.61 27.56C33.61 33.2533 32.9567 38.1533 31.65 42.26C30.39 46.32 28.5233 49.47 26.05 51.71C23.5767 53.9033 20.5667 55 17.02 55ZM17.02 48.91C19.4467 48.91 21.43 48 22.97 46.18C24.51 44.3133 25.6533 41.77 26.4 38.55C27.1933 35.33 27.59 31.6667 27.59 27.56C27.59 23.5 27.1933 19.8833 26.4 16.71C25.6533 13.49 24.4867 10.9467 22.9 9.08C21.36 7.21333 19.4 6.28 17.02 6.28C14.6867 6.28 12.75 7.21333 11.21 9.08C9.67 10.9 8.50333 13.42 7.71 16.64C6.91667 19.86 6.52 23.5 6.52 27.56C6.52 31.7133 6.91667 35.4 7.71 38.62C8.50333 41.84 9.67 44.36 11.21 46.18C12.75 48 14.6867 48.91 17.02 48.91ZM58.407 55.21C55.047 55.21 52.0603 54.51 49.447 53.11C46.8336 51.6633 44.757 49.7033 43.217 47.23C41.7236 44.71 40.977 41.8633 40.977 38.69C40.977 37.8033 41.2336 37.08 41.747 36.52C42.2603 35.9133 42.937 35.61 43.777 35.61C44.617 35.61 45.2936 35.9133 45.807 36.52C46.3203 37.08 46.577 37.8033 46.577 38.69C46.577 40.79 47.067 42.68 48.047 44.36C49.0736 45.9933 50.4736 47.3233 52.247 48.35C54.0203 49.33 55.9803 49.82 58.127 49.82C61.5803 49.82 64.3103 48.8633 66.317 46.95C68.3236 44.99 69.327 42.4233 69.327 39.25C69.327 37.1033 68.8603 35.2133 67.927 33.58C66.9936 31.9 65.7103 30.5933 64.077 29.66C62.4903 28.68 60.6936 28.19 58.687 28.19C57.847 28.19 57.147 27.91 56.587 27.35C56.027 26.7433 55.747 26.02 55.747 25.18C55.747 24.34 56.027 23.64 56.587 23.08C57.147 22.4733 57.847 22.17 58.687 22.17C60.227 22.17 61.6503 21.7967 62.957 21.05C64.2636 20.2567 65.337 19.23 66.177 17.97C67.017 16.6633 67.437 15.24 67.437 13.7C67.437 11.3667 66.6203 9.40666 64.987 7.82C63.3536 6.23333 61.2303 5.44 58.617 5.44C56.7036 5.44 54.977 5.81333 53.437 6.56C51.9436 7.30666 50.7536 8.31 49.867 9.57C49.027 10.83 48.607 12.23 48.607 13.77C48.607 14.6567 48.327 15.4033 47.767 16.01C47.2536 16.6167 46.6003 16.92 45.807 16.92C44.967 16.92 44.2903 16.64 43.777 16.08C43.2636 15.4733 43.007 14.75 43.007 13.91C43.007 11.2967 43.6836 8.94 45.037 6.84C46.3903 4.74 48.2336 3.08333 50.567 1.87C52.9003 0.656664 55.5603 0.0499982 58.547 0.0499982C61.2536 0.0499982 63.7036 0.656664 65.897 1.87C68.0903 3.03666 69.817 4.67 71.077 6.77C72.3836 8.82333 73.037 11.1333 73.037 13.7C73.037 15.3333 72.6403 16.8967 71.847 18.39C71.0536 19.8367 70.027 21.12 68.767 22.24C67.507 23.36 66.1536 24.2467 64.707 24.9C67.1336 25.6467 69.117 26.7433 70.657 28.19C72.2436 29.6367 73.4103 31.3167 74.157 33.23C74.9036 35.1433 75.277 37.1733 75.277 39.32C75.277 42.3533 74.5303 45.0833 73.037 47.51C71.5436 49.89 69.5136 51.78 66.947 53.18C64.3803 54.5333 61.5336 55.21 58.407 55.21Z" fill="#55DFFF"/>
<path d="M17.02 55C13.5667 55 10.58 53.9033 8.06 51.71C5.58667 49.5167 3.69667 46.39 2.39 42.33C1.13 38.2233 0.5 33.3 0.5 27.56C0.5 21.9133 1.13 17.0367 2.39 12.93C3.69667 8.82333 5.58667 5.67333 8.06 3.48C10.58 1.28666 13.5667 0.189996 17.02 0.189996C20.5667 0.189996 23.5767 1.31 26.05 3.55C28.5233 5.74333 30.39 8.89333 31.65 13C32.9567 17.1067 33.61 21.96 33.61 27.56C33.61 33.2533 32.9567 38.1533 31.65 42.26C30.39 46.32 28.5233 49.47 26.05 51.71C23.5767 53.9033 20.5667 55 17.02 55ZM17.02 48.91C19.4467 48.91 21.43 48 22.97 46.18C24.51 44.3133 25.6533 41.77 26.4 38.55C27.1933 35.33 27.59 31.6667 27.59 27.56C27.59 23.5 27.1933 19.8833 26.4 16.71C25.6533 13.49 24.4867 10.9467 22.9 9.08C21.36 7.21333 19.4 6.28 17.02 6.28C14.6867 6.28 12.75 7.21333 11.21 9.08C9.67 10.9 8.50333 13.42 7.71 16.64C6.91667 19.86 6.52 23.5 6.52 27.56C6.52 31.7133 6.91667 35.4 7.71 38.62C8.50333 41.84 9.67 44.36 11.21 46.18C12.75 48 14.6867 48.91 17.02 48.91ZM58.407 55.21C55.047 55.21 52.0603 54.51 49.447 53.11C46.8336 51.6633 44.757 49.7033 43.217 47.23C41.7236 44.71 40.977 41.8633 40.977 38.69C40.977 37.8033 41.2336 37.08 41.747 36.52C42.2603 35.9133 42.937 35.61 43.777 35.61C44.617 35.61 45.2936 35.9133 45.807 36.52C46.3203 37.08 46.577 37.8033 46.577 38.69C46.577 40.79 47.067 42.68 48.047 44.36C49.0736 45.9933 50.4736 47.3233 52.247 48.35C54.0203 49.33 55.9803 49.82 58.127 49.82C61.5803 49.82 64.3103 48.8633 66.317 46.95C68.3236 44.99 69.327 42.4233 69.327 39.25C69.327 37.1033 68.8603 35.2133 67.927 33.58C66.9936 31.9 65.7103 30.5933 64.077 29.66C62.4903 28.68 60.6936 28.19 58.687 28.19C57.847 28.19 57.147 27.91 56.587 27.35C56.027 26.7433 55.747 26.02 55.747 25.18C55.747 24.34 56.027 23.64 56.587 23.08C57.147 22.4733 57.847 22.17 58.687 22.17C60.227 22.17 61.6503 21.7967 62.957 21.05C64.2636 20.2567 65.337 19.23 66.177 17.97C67.017 16.6633 67.437 15.24 67.437 13.7C67.437 11.3667 66.6203 9.40666 64.987 7.82C63.3536 6.23333 61.2303 5.44 58.617 5.44C56.7036 5.44 54.977 5.81333 53.437 6.56C51.9436 7.30666 50.7536 8.31 49.867 9.57C49.027 10.83 48.607 12.23 48.607 13.77C48.607 14.6567 48.327 15.4033 47.767 16.01C47.2536 16.6167 46.6003 16.92 45.807 16.92C44.967 16.92 44.2903 16.64 43.777 16.08C43.2636 15.4733 43.007 14.75 43.007 13.91C43.007 11.2967 43.6836 8.94 45.037 6.84C46.3903 4.74 48.2336 3.08333 50.567 1.87C52.9003 0.656664 55.5603 0.0499982 58.547 0.0499982C61.2536 0.0499982 63.7036 0.656664 65.897 1.87C68.0903 3.03666 69.817 4.67 71.077 6.77C72.3836 8.82333 73.037 11.1333 73.037 13.7C73.037 15.3333 72.6403 16.8967 71.847 18.39C71.0536 19.8367 70.027 21.12 68.767 22.24C67.507 23.36 66.1536 24.2467 64.707 24.9C67.1336 25.6467 69.117 26.7433 70.657 28.19C72.2436 29.6367 73.4103 31.3167 74.157 33.23C74.9036 35.1433 75.277 37.1733 75.277 39.32C75.277 42.3533 74.5303 45.0833 73.037 47.51C71.5436 49.89 69.5136 51.78 66.947 53.18C64.3803 54.5333 61.5336 55.21 58.407 55.21Z" fill="url(#paint0_linear)" fill-opacity="0.8"/>
<defs>
<linearGradient id="paint0_linear" x1="38" y1="-7" x2="38" y2="71" gradientUnits="userSpaceOnUse">
<stop stop-color="#00C2FF"/>
<stop offset="1" stop-color="#00FFF0"/>
</linearGradient>
</defs>
</svg>
