<svg width="80" height="55" viewBox="0 0 80 55" fill="none" xmlns="http://www.w3.org/2000/svg">
<path d="M17.02 55C13.5667 55 10.58 53.9033 8.06 51.71C5.58667 49.5167 3.69667 46.39 2.39 42.33C1.13 38.2233 0.5 33.3 0.5 27.56C0.5 21.9133 1.13 17.0367 2.39 12.93C3.69667 8.82333 5.58667 5.67333 8.06 3.48C10.58 1.28666 13.5667 0.189996 17.02 0.189996C20.5667 0.189996 23.5767 1.31 26.05 3.55C28.5233 5.74333 30.39 8.89333 31.65 13C32.9567 17.1067 33.61 21.96 33.61 27.56C33.61 33.2533 32.9567 38.1533 31.65 42.26C30.39 46.32 28.5233 49.47 26.05 51.71C23.5767 53.9033 20.5667 55 17.02 55ZM17.02 48.91C19.4467 48.91 21.43 48 22.97 46.18C24.51 44.3133 25.6533 41.77 26.4 38.55C27.1933 35.33 27.59 31.6667 27.59 27.56C27.59 23.5 27.1933 19.8833 26.4 16.71C25.6533 13.49 24.4867 10.9467 22.9 9.08C21.36 7.21333 19.4 6.28 17.02 6.28C14.6867 6.28 12.75 7.21333 11.21 9.08C9.67 10.9 8.50333 13.42 7.71 16.64C6.91667 19.86 6.52 23.5 6.52 27.56C6.52 31.7133 6.91667 35.4 7.71 38.62C8.50333 41.84 9.67 44.36 11.21 46.18C12.75 48 14.6867 48.91 17.02 48.91ZM68.557 55C67.8103 55 67.157 54.72 66.597 54.16C66.037 53.5533 65.757 52.83 65.757 51.99V42.12H41.257C40.417 42.12 39.717 41.8633 39.157 41.35C38.6436 40.79 38.3403 40.16 38.247 39.46C38.2003 38.7133 38.4103 38.0367 38.877 37.43L66.247 1.52C66.527 1.14666 66.8536 0.843332 67.227 0.609999C67.647 0.376663 68.1603 0.259995 68.767 0.259995C69.5603 0.259995 70.2136 0.563329 70.727 1.17C71.287 1.77666 71.567 2.5 71.567 3.34V36.73H76.677C77.4703 36.73 78.147 36.94 78.707 37.36C79.3136 37.7333 79.617 38.4333 79.617 39.46C79.617 40.16 79.3136 40.79 78.707 41.35C78.147 41.8633 77.4703 42.12 76.677 42.12H71.567V51.99C71.567 52.83 71.287 53.5533 70.727 54.16C70.167 54.72 69.4436 55 68.557 55ZM44.617 38.76L43.357 36.73H65.757V7.12L67.367 9.01L44.617 38.76Z" fill="#55DFFF"/>
<path d="M17.02 55C13.5667 55 10.58 53.9033 8.06 51.71C5.58667 49.5167 3.69667 46.39 2.39 42.33C1.13 38.2233 0.5 33.3 0.5 27.56C0.5 21.9133 1.13 17.0367 2.39 12.93C3.69667 8.82333 5.58667 5.67333 8.06 3.48C10.58 1.28666 13.5667 0.189996 17.02 0.189996C20.5667 0.189996 23.5767 1.31 26.05 3.55C28.5233 5.74333 30.39 8.89333 31.65 13C32.9567 17.1067 33.61 21.96 33.61 27.56C33.61 33.2533 32.9567 38.1533 31.65 42.26C30.39 46.32 28.5233 49.47 26.05 51.71C23.5767 53.9033 20.5667 55 17.02 55ZM17.02 48.91C19.4467 48.91 21.43 48 22.97 46.18C24.51 44.3133 25.6533 41.77 26.4 38.55C27.1933 35.33 27.59 31.6667 27.59 27.56C27.59 23.5 27.1933 19.8833 26.4 16.71C25.6533 13.49 24.4867 10.9467 22.9 9.08C21.36 7.21333 19.4 6.28 17.02 6.28C14.6867 6.28 12.75 7.21333 11.21 9.08C9.67 10.9 8.50333 13.42 7.71 16.64C6.91667 19.86 6.52 23.5 6.52 27.56C6.52 31.7133 6.91667 35.4 7.71 38.62C8.50333 41.84 9.67 44.36 11.21 46.18C12.75 48 14.6867 48.91 17.02 48.91ZM68.557 55C67.8103 55 67.157 54.72 66.597 54.16C66.037 53.5533 65.757 52.83 65.757 51.99V42.12H41.257C40.417 42.12 39.717 41.8633 39.157 41.35C38.6436 40.79 38.3403 40.16 38.247 39.46C38.2003 38.7133 38.4103 38.0367 38.877 37.43L66.247 1.52C66.527 1.14666 66.8536 0.843332 67.227 0.609999C67.647 0.376663 68.1603 0.259995 68.767 0.259995C69.5603 0.259995 70.2136 0.563329 70.727 1.17C71.287 1.77666 71.567 2.5 71.567 3.34V36.73H76.677C77.4703 36.73 78.147 36.94 78.707 37.36C79.3136 37.7333 79.617 38.4333 79.617 39.46C79.617 40.16 79.3136 40.79 78.707 41.35C78.147 41.8633 77.4703 42.12 76.677 42.12H71.567V51.99C71.567 52.83 71.287 53.5533 70.727 54.16C70.167 54.72 69.4436 55 68.557 55ZM44.617 38.76L43.357 36.73H65.757V7.12L67.367 9.01L44.617 38.76Z" fill="url(#paint0_linear)" fill-opacity="0.8"/>
<defs>
<linearGradient id="paint0_linear" x1="40" y1="-7" x2="40" y2="71" gradientUnits="userSpaceOnUse">
<stop stop-color="#00C2FF"/>
<stop offset="1" stop-color="#00FFF0"/>
</linearGradient>
</defs>
</svg>
