<svg width="78" height="55" viewBox="0 0 78 55" fill="none" xmlns="http://www.w3.org/2000/svg">
<path d="M17.16 55C13.6133 55 10.6033 53.9267 8.13 51.78C5.65667 49.5867 3.76667 46.46 2.46 42.4C1.15333 38.2933 0.5 33.37 0.5 27.63C0.5 21.89 1.15333 16.99 2.46 12.93C3.76667 8.82333 5.65667 5.69667 8.13 3.55C10.6033 1.35666 13.6133 0.259995 17.16 0.259995C20.7067 0.259995 23.7167 1.38 26.19 3.62C28.6633 5.81333 30.5533 8.96333 31.86 13.07C33.1667 17.13 33.82 21.9833 33.82 27.63C33.82 33.2767 33.1667 38.1533 31.86 42.26C30.5533 46.32 28.6633 49.47 26.19 51.71C23.7167 53.9033 20.7067 55 17.16 55ZM17.16 48.35C19.4 48.35 21.2667 47.4633 22.76 45.69C24.2533 43.87 25.35 41.3967 26.05 38.27C26.7967 35.1433 27.17 31.5967 27.17 27.63C27.17 23.6633 26.7967 20.1167 26.05 16.99C25.3033 13.8633 24.1833 11.39 22.69 9.57C21.2433 7.75 19.4 6.84 17.16 6.84C14.8733 6.84 12.9833 7.75 11.49 9.57C10.0433 11.3433 8.94667 13.7933 8.2 16.92C7.5 20.0467 7.15 23.6167 7.15 27.63C7.15 31.6433 7.5 35.2133 8.2 38.34C8.94667 41.42 10.0667 43.87 11.56 45.69C13.0533 47.4633 14.92 48.35 17.16 48.35ZM59.662 55C56.2554 55 53.222 54.23 50.562 52.69C47.902 51.1033 45.7787 48.98 44.192 46.32C42.652 43.6133 41.882 40.5567 41.882 37.15C41.882 36.2167 42.1854 35.4467 42.792 34.84C43.3987 34.1867 44.1687 33.86 45.102 33.86C46.0354 33.86 46.8287 34.1867 47.482 34.84C48.1354 35.4467 48.462 36.2167 48.462 37.15C48.462 39.2967 48.952 41.2333 49.932 42.96C50.912 44.64 52.242 45.97 53.922 46.95C55.602 47.93 57.5154 48.42 59.662 48.42C61.8087 48.42 63.722 47.93 65.402 46.95C67.082 45.97 68.412 44.64 69.392 42.96C70.372 41.2333 70.862 39.2967 70.862 37.15C70.862 35.0033 70.372 33.09 69.392 31.41C68.412 29.73 67.082 28.4 65.402 27.42C63.722 26.44 61.8087 25.95 59.662 25.95H47.762C46.8287 25.95 46.0587 25.6467 45.452 25.04C44.8454 24.3867 44.542 23.5933 44.542 22.66V3.62C44.542 2.68667 44.8454 1.91667 45.452 1.31C46.0587 0.656665 46.8287 0.329999 47.762 0.329999H71.562C72.4487 0.329999 73.2187 0.656665 73.872 1.31C74.5254 1.96333 74.852 2.73333 74.852 3.62C74.852 4.50666 74.5254 5.27666 73.872 5.93C73.2654 6.58333 72.4954 6.91 71.562 6.91H51.052V19.37H59.662C63.0687 19.37 66.102 20.1633 68.762 21.75C71.422 23.29 73.522 25.4133 75.062 28.12C76.6487 30.78 77.442 33.79 77.442 37.15C77.442 40.51 76.6487 43.5433 75.062 46.25C73.522 48.9567 71.422 51.1033 68.762 52.69C66.102 54.23 63.0687 55 59.662 55Z" fill="#55DFFF"/>
<path d="M17.16 55C13.6133 55 10.6033 53.9267 8.13 51.78C5.65667 49.5867 3.76667 46.46 2.46 42.4C1.15333 38.2933 0.5 33.37 0.5 27.63C0.5 21.89 1.15333 16.99 2.46 12.93C3.76667 8.82333 5.65667 5.69667 8.13 3.55C10.6033 1.35666 13.6133 0.259995 17.16 0.259995C20.7067 0.259995 23.7167 1.38 26.19 3.62C28.6633 5.81333 30.5533 8.96333 31.86 13.07C33.1667 17.13 33.82 21.9833 33.82 27.63C33.82 33.2767 33.1667 38.1533 31.86 42.26C30.5533 46.32 28.6633 49.47 26.19 51.71C23.7167 53.9033 20.7067 55 17.16 55ZM17.16 48.35C19.4 48.35 21.2667 47.4633 22.76 45.69C24.2533 43.87 25.35 41.3967 26.05 38.27C26.7967 35.1433 27.17 31.5967 27.17 27.63C27.17 23.6633 26.7967 20.1167 26.05 16.99C25.3033 13.8633 24.1833 11.39 22.69 9.57C21.2433 7.75 19.4 6.84 17.16 6.84C14.8733 6.84 12.9833 7.75 11.49 9.57C10.0433 11.3433 8.94667 13.7933 8.2 16.92C7.5 20.0467 7.15 23.6167 7.15 27.63C7.15 31.6433 7.5 35.2133 8.2 38.34C8.94667 41.42 10.0667 43.87 11.56 45.69C13.0533 47.4633 14.92 48.35 17.16 48.35ZM59.662 55C56.2554 55 53.222 54.23 50.562 52.69C47.902 51.1033 45.7787 48.98 44.192 46.32C42.652 43.6133 41.882 40.5567 41.882 37.15C41.882 36.2167 42.1854 35.4467 42.792 34.84C43.3987 34.1867 44.1687 33.86 45.102 33.86C46.0354 33.86 46.8287 34.1867 47.482 34.84C48.1354 35.4467 48.462 36.2167 48.462 37.15C48.462 39.2967 48.952 41.2333 49.932 42.96C50.912 44.64 52.242 45.97 53.922 46.95C55.602 47.93 57.5154 48.42 59.662 48.42C61.8087 48.42 63.722 47.93 65.402 46.95C67.082 45.97 68.412 44.64 69.392 42.96C70.372 41.2333 70.862 39.2967 70.862 37.15C70.862 35.0033 70.372 33.09 69.392 31.41C68.412 29.73 67.082 28.4 65.402 27.42C63.722 26.44 61.8087 25.95 59.662 25.95H47.762C46.8287 25.95 46.0587 25.6467 45.452 25.04C44.8454 24.3867 44.542 23.5933 44.542 22.66V3.62C44.542 2.68667 44.8454 1.91667 45.452 1.31C46.0587 0.656665 46.8287 0.329999 47.762 0.329999H71.562C72.4487 0.329999 73.2187 0.656665 73.872 1.31C74.5254 1.96333 74.852 2.73333 74.852 3.62C74.852 4.50666 74.5254 5.27666 73.872 5.93C73.2654 6.58333 72.4954 6.91 71.562 6.91H51.052V19.37H59.662C63.0687 19.37 66.102 20.1633 68.762 21.75C71.422 23.29 73.522 25.4133 75.062 28.12C76.6487 30.78 77.442 33.79 77.442 37.15C77.442 40.51 76.6487 43.5433 75.062 46.25C73.522 48.9567 71.422 51.1033 68.762 52.69C66.102 54.23 63.0687 55 59.662 55Z" fill="url(#paint0_linear)" fill-opacity="0.8"/>
<defs>
<linearGradient id="paint0_linear" x1="39.5" y1="-7" x2="39.5" y2="71" gradientUnits="userSpaceOnUse">
<stop stop-color="#00C2FF"/>
<stop offset="1" stop-color="#00FFF0"/>
</linearGradient>
</defs>
</svg>
