<svg width="75" height="55" viewBox="0 0 75 55" fill="none" xmlns="http://www.w3.org/2000/svg">
<path d="M17.16 55C13.6133 55 10.6033 53.9267 8.13 51.78C5.65667 49.5867 3.76667 46.46 2.46 42.4C1.15333 38.2933 0.5 33.37 0.5 27.63C0.5 21.89 1.15333 16.99 2.46 12.93C3.76667 8.82333 5.65667 5.69667 8.13 3.55C10.6033 1.35666 13.6133 0.259995 17.16 0.259995C20.7067 0.259995 23.7167 1.38 26.19 3.62C28.6633 5.81333 30.5533 8.96333 31.86 13.07C33.1667 17.13 33.82 21.9833 33.82 27.63C33.82 33.2767 33.1667 38.1533 31.86 42.26C30.5533 46.32 28.6633 49.47 26.19 51.71C23.7167 53.9033 20.7067 55 17.16 55ZM17.16 48.35C19.4 48.35 21.2667 47.4633 22.76 45.69C24.2533 43.87 25.35 41.3967 26.05 38.27C26.7967 35.1433 27.17 31.5967 27.17 27.63C27.17 23.6633 26.7967 20.1167 26.05 16.99C25.3033 13.8633 24.1833 11.39 22.69 9.57C21.2433 7.75 19.4 6.84 17.16 6.84C14.8733 6.84 12.9833 7.75 11.49 9.57C10.0433 11.3433 8.94667 13.7933 8.2 16.92C7.5 20.0467 7.15 23.6167 7.15 27.63C7.15 31.6433 7.5 35.2133 8.2 38.34C8.94667 41.42 10.0667 43.87 11.56 45.69C13.0533 47.4633 14.92 48.35 17.16 48.35ZM58.402 55C55.182 55 52.312 54.3 49.792 52.9C47.3187 51.4533 45.382 49.4933 43.982 47.02C42.582 44.5 41.882 41.6533 41.882 38.48C41.882 35.26 42.582 32.4133 43.982 29.94C45.382 27.42 47.3187 25.46 49.792 24.06C52.312 22.6133 55.182 21.89 58.402 21.89C61.5754 21.89 64.3987 22.6133 66.872 24.06C69.3454 25.46 71.282 27.42 72.682 29.94C74.082 32.4133 74.782 35.26 74.782 38.48C74.782 41.6533 74.082 44.5 72.682 47.02C71.282 49.4933 69.3454 51.4533 66.872 52.9C64.3987 54.3 61.5754 55 58.402 55ZM58.332 49.12C60.292 49.12 62.042 48.6767 63.582 47.79C65.1687 46.8567 66.4054 45.5967 67.292 44.01C68.1787 42.3767 68.622 40.5333 68.622 38.48C68.622 36.38 68.1787 34.5367 67.292 32.95C66.4054 31.3167 65.1687 30.0333 63.582 29.1C62.042 28.1667 60.292 27.7 58.332 27.7C56.3254 27.7 54.552 28.1667 53.012 29.1C51.472 30.0333 50.2587 31.3167 49.372 32.95C48.532 34.5367 48.112 36.38 48.112 38.48C48.112 40.5333 48.532 42.3767 49.372 44.01C50.2587 45.5967 51.472 46.8567 53.012 47.79C54.552 48.6767 56.3254 49.12 58.332 49.12ZM44.122 29.73L60.712 2.15C61.4587 0.983331 62.4387 0.399998 63.652 0.399998C64.5387 0.399998 65.2854 0.656664 65.892 1.17C66.4987 1.68333 66.872 2.33666 67.012 3.13C67.152 3.87666 66.9887 4.62333 66.522 5.37L56.092 22.66L44.122 29.73Z" fill="#55DFFF"/>
<path d="M17.16 55C13.6133 55 10.6033 53.9267 8.13 51.78C5.65667 49.5867 3.76667 46.46 2.46 42.4C1.15333 38.2933 0.5 33.37 0.5 27.63C0.5 21.89 1.15333 16.99 2.46 12.93C3.76667 8.82333 5.65667 5.69667 8.13 3.55C10.6033 1.35666 13.6133 0.259995 17.16 0.259995C20.7067 0.259995 23.7167 1.38 26.19 3.62C28.6633 5.81333 30.5533 8.96333 31.86 13.07C33.1667 17.13 33.82 21.9833 33.82 27.63C33.82 33.2767 33.1667 38.1533 31.86 42.26C30.5533 46.32 28.6633 49.47 26.19 51.71C23.7167 53.9033 20.7067 55 17.16 55ZM17.16 48.35C19.4 48.35 21.2667 47.4633 22.76 45.69C24.2533 43.87 25.35 41.3967 26.05 38.27C26.7967 35.1433 27.17 31.5967 27.17 27.63C27.17 23.6633 26.7967 20.1167 26.05 16.99C25.3033 13.8633 24.1833 11.39 22.69 9.57C21.2433 7.75 19.4 6.84 17.16 6.84C14.8733 6.84 12.9833 7.75 11.49 9.57C10.0433 11.3433 8.94667 13.7933 8.2 16.92C7.5 20.0467 7.15 23.6167 7.15 27.63C7.15 31.6433 7.5 35.2133 8.2 38.34C8.94667 41.42 10.0667 43.87 11.56 45.69C13.0533 47.4633 14.92 48.35 17.16 48.35ZM58.402 55C55.182 55 52.312 54.3 49.792 52.9C47.3187 51.4533 45.382 49.4933 43.982 47.02C42.582 44.5 41.882 41.6533 41.882 38.48C41.882 35.26 42.582 32.4133 43.982 29.94C45.382 27.42 47.3187 25.46 49.792 24.06C52.312 22.6133 55.182 21.89 58.402 21.89C61.5754 21.89 64.3987 22.6133 66.872 24.06C69.3454 25.46 71.282 27.42 72.682 29.94C74.082 32.4133 74.782 35.26 74.782 38.48C74.782 41.6533 74.082 44.5 72.682 47.02C71.282 49.4933 69.3454 51.4533 66.872 52.9C64.3987 54.3 61.5754 55 58.402 55ZM58.332 49.12C60.292 49.12 62.042 48.6767 63.582 47.79C65.1687 46.8567 66.4054 45.5967 67.292 44.01C68.1787 42.3767 68.622 40.5333 68.622 38.48C68.622 36.38 68.1787 34.5367 67.292 32.95C66.4054 31.3167 65.1687 30.0333 63.582 29.1C62.042 28.1667 60.292 27.7 58.332 27.7C56.3254 27.7 54.552 28.1667 53.012 29.1C51.472 30.0333 50.2587 31.3167 49.372 32.95C48.532 34.5367 48.112 36.38 48.112 38.48C48.112 40.5333 48.532 42.3767 49.372 44.01C50.2587 45.5967 51.472 46.8567 53.012 47.79C54.552 48.6767 56.3254 49.12 58.332 49.12ZM44.122 29.73L60.712 2.15C61.4587 0.983331 62.4387 0.399998 63.652 0.399998C64.5387 0.399998 65.2854 0.656664 65.892 1.17C66.4987 1.68333 66.872 2.33666 67.012 3.13C67.152 3.87666 66.9887 4.62333 66.522 5.37L56.092 22.66L44.122 29.73Z" fill="url(#paint0_linear)" fill-opacity="0.8"/>
<defs>
<linearGradient id="paint0_linear" x1="37.5" y1="-7" x2="37.5" y2="71" gradientUnits="userSpaceOnUse">
<stop stop-color="#00C2FF"/>
<stop offset="1" stop-color="#00FFF0"/>
</linearGradient>
</defs>
</svg>
