<svg width="80" height="80" viewBox="0 0 80 80" fill="none" xmlns="http://www.w3.org/2000/svg">
<path d="M22.012 8.00195C21.2761 8.00195 20.6787 8.59929 20.6787 9.33523V13.3352C20.6787 14.0711 21.2761 14.6685 22.012 14.6685C22.7493 14.6685 23.3453 14.0711 23.3453 13.3352V9.33523C23.3453 8.59929 22.7479 8.00195 22.012 8.00195Z" fill="#00C2FF"/>
<path d="M22.012 8.00195C21.2761 8.00195 20.6787 8.59929 20.6787 9.33523V13.3352C20.6787 14.0711 21.2761 14.6685 22.012 14.6685C22.7493 14.6685 23.3453 14.0711 23.3453 13.3352V9.33523C23.3453 8.59929 22.7479 8.00195 22.012 8.00195Z" fill="url(#paint0_linear)" fill-opacity="0.5"/>
<path d="M21.9591 12.002C21.2231 12.002 20.6258 12.5993 20.6258 13.3352C20.6258 16.8818 18.2111 20.3044 15.4166 24.267C14.4313 25.6617 13.4127 27.1056 12.4513 28.6336C8.06743 35.7281 10.854 45.3105 10.9754 45.7158C11.1487 46.2944 11.678 46.6678 12.2527 46.6678C12.3794 46.6678 12.5074 46.6493 12.6354 46.6119C13.3407 46.4013 13.7421 45.6586 13.5313 44.9533C13.5046 44.8666 10.9593 36.1242 14.7152 30.0456C15.6338 28.5856 16.6311 27.1709 17.5964 25.8044C20.5256 21.6511 23.2923 17.7272 23.2923 13.3354C23.2925 12.5991 22.6952 12.002 21.9591 12.002Z" fill="#00C2FF"/>
<path d="M21.9591 12.002C21.2231 12.002 20.6258 12.5993 20.6258 13.3352C20.6258 16.8818 18.2111 20.3044 15.4166 24.267C14.4313 25.6617 13.4127 27.1056 12.4513 28.6336C8.06743 35.7281 10.854 45.3105 10.9754 45.7158C11.1487 46.2944 11.678 46.6678 12.2527 46.6678C12.3794 46.6678 12.5074 46.6493 12.6354 46.6119C13.3407 46.4013 13.7421 45.6586 13.5313 44.9533C13.5046 44.8666 10.9593 36.1242 14.7152 30.0456C15.6338 28.5856 16.6311 27.1709 17.5964 25.8044C20.5256 21.6511 23.2923 17.7272 23.2923 13.3354C23.2925 12.5991 22.6952 12.002 21.9591 12.002Z" fill="url(#paint1_linear)" fill-opacity="0.5"/>
<path d="M31.5571 28.628C30.5985 27.1 29.5771 25.648 28.5891 24.2454C25.8038 20.2908 23.3999 16.8762 23.3999 13.3362C23.3999 12.6003 22.8026 12.0029 22.0667 12.0029C21.3307 12.0029 20.7334 12.6003 20.7334 13.3362C20.7334 17.7201 23.4893 21.6347 26.4079 25.7799C27.3746 27.1532 28.3759 28.5745 29.2918 30.0358C33.0397 36.1009 30.5077 44.8674 30.4812 44.9541C30.2718 45.6594 30.6732 46.4021 31.3785 46.6115C31.5052 46.6488 31.6332 46.6674 31.7597 46.6674C32.3344 46.6674 32.8636 46.2927 33.0383 45.7168C33.1597 45.3129 35.9463 35.729 31.5571 28.628Z" fill="#00C2FF"/>
<path d="M31.5571 28.628C30.5985 27.1 29.5771 25.648 28.5891 24.2454C25.8038 20.2908 23.3999 16.8762 23.3999 13.3362C23.3999 12.6003 22.8026 12.0029 22.0667 12.0029C21.3307 12.0029 20.7334 12.6003 20.7334 13.3362C20.7334 17.7201 23.4893 21.6347 26.4079 25.7799C27.3746 27.1532 28.3759 28.5745 29.2918 30.0358C33.0397 36.1009 30.5077 44.8674 30.4812 44.9541C30.2718 45.6594 30.6732 46.4021 31.3785 46.6115C31.5052 46.6488 31.6332 46.6674 31.7597 46.6674C32.3344 46.6674 32.8636 46.2927 33.0383 45.7168C33.1597 45.3129 35.9463 35.729 31.5571 28.628Z" fill="url(#paint2_linear)" fill-opacity="0.5"/>
<path d="M33.8437 4.90354C30.5239 1.58231 25.9839 -0.175025 21.3347 0.0143492C16.8694 0.189036 12.7376 2.09168 9.70293 5.37291C6.66826 8.65414 5.09233 12.9207 5.26702 17.386L6.84029 58.7156C7.14169 66.9154 13.8001 73.3339 22.0025 73.3339C22.0052 73.3339 22.0093 73.3339 22.0132 73.3339C30.213 73.3313 36.8701 66.9115 37.1715 58.7182L38.7301 17.3872C38.7395 17.1713 38.7434 16.9539 38.7434 16.7366C38.7437 12.266 37.0037 8.06477 33.8437 4.90354ZM36.0664 17.286L34.5064 58.6184C34.2597 65.3729 28.7705 70.6647 22.0119 70.6674C22.0079 70.6674 22.0052 70.6674 22.0025 70.6674C15.2413 70.6674 9.75355 65.3755 9.50543 58.617L7.93231 17.2833C7.7856 13.5288 9.1109 9.94085 11.6615 7.18353C14.2121 4.4262 17.6854 2.82636 21.4413 2.67965C21.6307 2.67168 21.8213 2.66902 22.0119 2.66902C29.7678 2.66902 36.0782 8.98086 36.077 16.738C36.077 16.9193 36.0743 17.1019 36.0664 17.286Z" fill="#00C2FF"/>
<path d="M33.8437 4.90354C30.5239 1.58231 25.9839 -0.175025 21.3347 0.0143492C16.8694 0.189036 12.7376 2.09168 9.70293 5.37291C6.66826 8.65414 5.09233 12.9207 5.26702 17.386L6.84029 58.7156C7.14169 66.9154 13.8001 73.3339 22.0025 73.3339C22.0052 73.3339 22.0093 73.3339 22.0132 73.3339C30.213 73.3313 36.8701 66.9115 37.1715 58.7182L38.7301 17.3872C38.7395 17.1713 38.7434 16.9539 38.7434 16.7366C38.7437 12.266 37.0037 8.06477 33.8437 4.90354ZM36.0664 17.286L34.5064 58.6184C34.2597 65.3729 28.7705 70.6647 22.0119 70.6674C22.0079 70.6674 22.0052 70.6674 22.0025 70.6674C15.2413 70.6674 9.75355 65.3755 9.50543 58.617L7.93231 17.2833C7.7856 13.5288 9.1109 9.94085 11.6615 7.18353C14.2121 4.4262 17.6854 2.82636 21.4413 2.67965C21.6307 2.67168 21.8213 2.66902 22.0119 2.66902C29.7678 2.66902 36.0782 8.98086 36.077 16.738C36.077 16.9193 36.0743 17.1019 36.0664 17.286Z" fill="url(#paint3_linear)" fill-opacity="0.5"/>
<path d="M58.0125 14.668C57.2751 14.668 56.6792 15.2653 56.6792 16.0012V20.0012C56.6792 20.7371 57.2751 21.3345 58.0125 21.3345C58.7498 21.3345 59.3457 20.7371 59.3457 20.0012V16.0012C59.3459 15.2653 58.7498 14.668 58.0125 14.668Z" fill="#00C2FF"/>
<path d="M58.0125 14.668C57.2751 14.668 56.6792 15.2653 56.6792 16.0012V20.0012C56.6792 20.7371 57.2751 21.3345 58.0125 21.3345C58.7498 21.3345 59.3457 20.7371 59.3457 20.0012V16.0012C59.3459 15.2653 58.7498 14.668 58.0125 14.668Z" fill="url(#paint4_linear)" fill-opacity="0.5"/>
<path d="M57.9576 18.6685C57.2203 18.6685 56.6243 19.2658 56.6243 20.0017C56.6243 23.5483 54.2111 26.9695 51.4151 30.9321C50.4298 32.3281 49.4125 33.7721 48.4498 35.3001C44.066 42.3946 46.8525 51.977 46.9739 52.3823C47.1459 52.9609 47.6766 53.3343 48.2512 53.3343C48.378 53.3343 48.5059 53.3158 48.6325 53.2784C49.3378 53.0678 49.7392 52.3251 49.5284 51.6198C49.5031 51.5331 46.9578 42.7894 50.7137 36.7121C51.6311 35.2521 52.6297 33.8374 53.595 32.4695C56.5242 28.3162 59.2909 24.3937 59.2909 20.0017C59.291 19.2656 58.6949 18.6685 57.9576 18.6685Z" fill="#00C2FF"/>
<path d="M57.9576 18.6685C57.2203 18.6685 56.6243 19.2658 56.6243 20.0017C56.6243 23.5483 54.2111 26.9695 51.4151 30.9321C50.4298 32.3281 49.4125 33.7721 48.4498 35.3001C44.066 42.3946 46.8525 51.977 46.9739 52.3823C47.1459 52.9609 47.6766 53.3343 48.2512 53.3343C48.378 53.3343 48.5059 53.3158 48.6325 53.2784C49.3378 53.0678 49.7392 52.3251 49.5284 51.6198C49.5031 51.5331 46.9578 42.7894 50.7137 36.7121C51.6311 35.2521 52.6297 33.8374 53.595 32.4695C56.5242 28.3162 59.2909 24.3937 59.2909 20.0017C59.291 19.2656 58.6949 18.6685 57.9576 18.6685Z" fill="url(#paint5_linear)" fill-opacity="0.5"/>
<path d="M67.5551 35.294C66.5965 33.766 65.5751 32.3167 64.5886 30.914C61.8033 26.9595 59.398 23.5434 59.398 20.0022C59.398 19.2663 58.8021 18.6689 58.0647 18.6689C57.3274 18.6689 56.7314 19.2663 56.7314 20.0022C56.7314 24.3875 59.4888 28.3034 62.4073 32.4486C63.3741 33.8218 64.3739 35.2418 65.29 36.7018C69.0392 42.7669 66.5059 51.5334 66.4793 51.6202C66.2714 52.3255 66.674 53.0681 67.3779 53.2775C67.5059 53.3148 67.6326 53.3334 67.7592 53.3334C68.3339 53.3334 68.8631 52.9587 69.0351 52.3828C69.1565 51.9791 71.9431 42.3952 67.5551 35.294Z" fill="#00C2FF"/>
<path d="M67.5551 35.294C66.5965 33.766 65.5751 32.3167 64.5886 30.914C61.8033 26.9595 59.398 23.5434 59.398 20.0022C59.398 19.2663 58.8021 18.6689 58.0647 18.6689C57.3274 18.6689 56.7314 19.2663 56.7314 20.0022C56.7314 24.3875 59.4888 28.3034 62.4073 32.4486C63.3741 33.8218 64.3739 35.2418 65.29 36.7018C69.0392 42.7669 66.5059 51.5334 66.4793 51.6202C66.2714 52.3255 66.674 53.0681 67.3779 53.2775C67.5059 53.3148 67.6326 53.3334 67.7592 53.3334C68.3339 53.3334 68.8631 52.9587 69.0351 52.3828C69.1565 51.9791 71.9431 42.3952 67.5551 35.294Z" fill="url(#paint6_linear)" fill-opacity="0.5"/>
<path d="M58.0139 6.66699C57.7872 6.66699 57.5592 6.67106 57.3366 6.68027C52.87 6.85496 48.7394 8.75761 45.7035 12.0388C42.6676 15.3201 41.0929 19.5866 41.2664 24.0519L42.8396 65.3829C43.141 73.5814 49.7994 79.9998 58.0019 79.9998C58.0059 79.9998 58.0098 79.9998 58.0152 79.9984H58.0139C66.2137 79.9958 72.8709 73.576 73.1709 65.3827L74.7321 24.0517C74.7415 23.8358 74.7454 23.6185 74.7454 23.4011C74.7455 14.1749 67.2404 6.66699 58.0139 6.66699ZM72.067 23.952L70.5057 65.2857C70.259 72.039 64.7698 77.3308 58.0127 77.3335H58.0113C58.0086 77.3335 58.0059 77.3335 58.0019 77.3335C51.2421 77.3335 45.7529 72.0416 45.5035 65.2831L43.9303 23.9494C43.7849 20.1949 45.1088 16.6082 47.6608 13.8496C50.2115 11.0923 53.6847 9.49244 57.4419 9.34573C57.6313 9.33776 57.8219 9.3351 58.0125 9.3351C65.767 9.3351 72.0776 15.6469 72.0776 23.4041C72.0776 23.5853 72.0735 23.768 72.067 23.952Z" fill="#00C2FF"/>
<path d="M58.0139 6.66699C57.7872 6.66699 57.5592 6.67106 57.3366 6.68027C52.87 6.85496 48.7394 8.75761 45.7035 12.0388C42.6676 15.3201 41.0929 19.5866 41.2664 24.0519L42.8396 65.3829C43.141 73.5814 49.7994 79.9998 58.0019 79.9998C58.0059 79.9998 58.0098 79.9998 58.0152 79.9984H58.0139C66.2137 79.9958 72.8709 73.576 73.1709 65.3827L74.7321 24.0517C74.7415 23.8358 74.7454 23.6185 74.7454 23.4011C74.7455 14.1749 67.2404 6.66699 58.0139 6.66699ZM72.067 23.952L70.5057 65.2857C70.259 72.039 64.7698 77.3308 58.0127 77.3335H58.0113C58.0086 77.3335 58.0059 77.3335 58.0019 77.3335C51.2421 77.3335 45.7529 72.0416 45.5035 65.2831L43.9303 23.9494C43.7849 20.1949 45.1088 16.6082 47.6608 13.8496C50.2115 11.0923 53.6847 9.49244 57.4419 9.34573C57.6313 9.33776 57.8219 9.3351 58.0125 9.3351C65.767 9.3351 72.0776 15.6469 72.0776 23.4041C72.0776 23.5853 72.0735 23.768 72.067 23.952Z" fill="url(#paint7_linear)" fill-opacity="0.5"/>
<defs>
<linearGradient id="paint0_linear" x1="22.012" y1="8.00195" x2="22.012" y2="14.6685" gradientUnits="userSpaceOnUse">
<stop stop-color="#00C2FF"/>
<stop offset="1" stop-color="#00FFF0"/>
</linearGradient>
<linearGradient id="paint1_linear" x1="16.6418" y1="12.002" x2="16.6418" y2="46.6678" gradientUnits="userSpaceOnUse">
<stop stop-color="#00C2FF"/>
<stop offset="1" stop-color="#00FFF0"/>
</linearGradient>
<linearGradient id="paint2_linear" x1="27.3775" y1="12.0029" x2="27.3775" y2="46.6674" gradientUnits="userSpaceOnUse">
<stop stop-color="#00C2FF"/>
<stop offset="1" stop-color="#00FFF0"/>
</linearGradient>
<linearGradient id="paint3_linear" x1="21.9986" y1="0.000488281" x2="21.9986" y2="73.3339" gradientUnits="userSpaceOnUse">
<stop stop-color="#00C2FF"/>
<stop offset="1" stop-color="#00FFF0"/>
</linearGradient>
<linearGradient id="paint4_linear" x1="58.0125" y1="14.668" x2="58.0125" y2="21.3345" gradientUnits="userSpaceOnUse">
<stop stop-color="#00C2FF"/>
<stop offset="1" stop-color="#00FFF0"/>
</linearGradient>
<linearGradient id="paint5_linear" x1="52.6403" y1="18.6685" x2="52.6403" y2="53.3343" gradientUnits="userSpaceOnUse">
<stop stop-color="#00C2FF"/>
<stop offset="1" stop-color="#00FFF0"/>
</linearGradient>
<linearGradient id="paint6_linear" x1="63.375" y1="18.6689" x2="63.375" y2="53.3334" gradientUnits="userSpaceOnUse">
<stop stop-color="#00C2FF"/>
<stop offset="1" stop-color="#00FFF0"/>
</linearGradient>
<linearGradient id="paint7_linear" x1="57.9994" y1="6.66699" x2="57.9994" y2="79.9998" gradientUnits="userSpaceOnUse">
<stop stop-color="#00C2FF"/>
<stop offset="1" stop-color="#00FFF0"/>
</linearGradient>
</defs>
</svg>
