<svg width="82" height="64" viewBox="0 0 82 64" fill="none" xmlns="http://www.w3.org/2000/svg">
<path d="M6.1129 64C7.04999 64 7.99002 63.7609 8.83416 63.3072C9.68066 62.8496 10.4258 62.1762 10.9874 61.3622C13.9294 57.1114 22.7436 47.2246 40.9999 47.2246C59.2562 47.2246 68.0704 57.1116 71.012 61.3618C72.1544 63.0138 73.9767 64 75.8869 64C77.5206 64 79.0559 63.3085 80.2113 62.0512C81.3648 60.7935 82 59.1232 82 57.3486V45.566C82 36.5453 79.5194 27.8092 74.8267 20.3021C74.371 19.5729 73.458 19.3838 72.788 19.8799C72.1178 20.3758 71.944 21.369 72.4 22.0983C76.7602 29.0735 79.0651 37.1885 79.0651 45.5662V57.3488C79.0651 58.2718 78.7344 59.1409 78.1348 59.7943C77.5353 60.4469 76.7367 60.8065 75.8873 60.8065C74.8944 60.8065 73.9487 60.2964 73.3574 59.4413C71.1347 56.2302 65.8532 50.0691 56.3043 46.5888V7.33529C60.706 9.48656 64.752 12.5785 68.2436 16.5248C68.806 17.1602 69.7351 17.1798 70.3186 16.5678C70.9025 15.9561 70.9203 14.9454 70.3581 14.3101C66.559 10.0159 62.1188 6.63927 57.1604 4.27338C52.0313 1.82637 46.5943 0.585938 40.9976 0.585938C40.9737 0.585938 40.9492 0.585938 40.9252 0.585938C29.9892 0.607442 19.7112 5.25725 11.9841 13.6797C4.25594 22.1025 0 33.2958 0 45.1976V57.3486C0 61.0162 2.7422 64 6.1129 64ZM40.9302 3.77964H40.9974C45.2715 3.77964 49.437 4.56145 53.3689 6.06079V45.6473C49.7838 44.6475 45.6783 44.0311 41.0001 44.0311C36.3221 44.0311 32.2164 44.6475 28.6312 45.6473V6.02779C32.4904 4.57976 36.6275 3.78794 40.9302 3.77964ZM2.93513 45.1976C2.93513 28.293 12.3086 13.7097 25.6959 7.28227V46.5888C16.1468 50.0693 10.8649 56.2306 8.64143 59.443C8.35202 59.8629 7.96693 60.2102 7.53136 60.4454C7.09206 60.6815 6.60151 60.8063 6.1129 60.8063C4.36063 60.8063 2.93513 59.2552 2.93513 57.3486V45.1976Z" fill="#00C2FF"/>
<path d="M6.1129 64C7.04999 64 7.99002 63.7609 8.83416 63.3072C9.68066 62.8496 10.4258 62.1762 10.9874 61.3622C13.9294 57.1114 22.7436 47.2246 40.9999 47.2246C59.2562 47.2246 68.0704 57.1116 71.012 61.3618C72.1544 63.0138 73.9767 64 75.8869 64C77.5206 64 79.0559 63.3085 80.2113 62.0512C81.3648 60.7935 82 59.1232 82 57.3486V45.566C82 36.5453 79.5194 27.8092 74.8267 20.3021C74.371 19.5729 73.458 19.3838 72.788 19.8799C72.1178 20.3758 71.944 21.369 72.4 22.0983C76.7602 29.0735 79.0651 37.1885 79.0651 45.5662V57.3488C79.0651 58.2718 78.7344 59.1409 78.1348 59.7943C77.5353 60.4469 76.7367 60.8065 75.8873 60.8065C74.8944 60.8065 73.9487 60.2964 73.3574 59.4413C71.1347 56.2302 65.8532 50.0691 56.3043 46.5888V7.33529C60.706 9.48656 64.752 12.5785 68.2436 16.5248C68.806 17.1602 69.7351 17.1798 70.3186 16.5678C70.9025 15.9561 70.9203 14.9454 70.3581 14.3101C66.559 10.0159 62.1188 6.63927 57.1604 4.27338C52.0313 1.82637 46.5943 0.585938 40.9976 0.585938C40.9737 0.585938 40.9492 0.585938 40.9252 0.585938C29.9892 0.607442 19.7112 5.25725 11.9841 13.6797C4.25594 22.1025 0 33.2958 0 45.1976V57.3486C0 61.0162 2.7422 64 6.1129 64ZM40.9302 3.77964H40.9974C45.2715 3.77964 49.437 4.56145 53.3689 6.06079V45.6473C49.7838 44.6475 45.6783 44.0311 41.0001 44.0311C36.3221 44.0311 32.2164 44.6475 28.6312 45.6473V6.02779C32.4904 4.57976 36.6275 3.78794 40.9302 3.77964ZM2.93513 45.1976C2.93513 28.293 12.3086 13.7097 25.6959 7.28227V46.5888C16.1468 50.0693 10.8649 56.2306 8.64143 59.443C8.35202 59.8629 7.96693 60.2102 7.53136 60.4454C7.09206 60.6815 6.60151 60.8063 6.1129 60.8063C4.36063 60.8063 2.93513 59.2552 2.93513 57.3486V45.1976Z" fill="url(#paint0_linear)" fill-opacity="0.5"/>
<defs>
<linearGradient id="paint0_linear" x1="41" y1="0.585937" x2="41" y2="64" gradientUnits="userSpaceOnUse">
<stop stop-color="#00C2FF"/>
<stop offset="1" stop-color="#00FFF0"/>
</linearGradient>
</defs>
</svg>
