<svg width="92" height="64" viewBox="0 0 92 64" fill="none" xmlns="http://www.w3.org/2000/svg">
<path d="M50.0085 8.55289C50.7532 8.55289 51.3569 7.94925 51.3569 7.20523V5.3515C51.3569 4.60678 50.7532 4.00314 50.0085 4.00314C49.2645 4.00314 48.6608 4.60678 48.6608 5.3515V7.20523C48.6608 7.94925 49.2645 8.55289 50.0085 8.55289ZM87.4025 17.8286C84.0909 12.8085 79.127 8.89542 72.6491 6.198C67.9035 4.22214 62.263 2.89203 55.875 2.23645C55.3338 1.13657 54.2052 0.375 52.8982 0.375H39.1016C37.7954 0.375 36.666 1.13586 36.1255 2.23575C30.2541 2.83798 25.0067 4.01227 20.5194 5.73123C19.8238 5.99795 19.4764 6.77707 19.7424 7.47266C19.948 8.00891 20.4597 8.33881 21.0016 8.33881C21.1616 8.33881 21.3252 8.31003 21.4838 8.24896C25.5942 6.67389 30.3994 5.57892 35.7837 4.9837V8.6673C29.8652 9.35937 24.7343 10.6944 20.5173 12.6436C15.8461 14.804 12.2727 17.7254 9.89748 21.3254C6.99651 25.7222 5.83766 31.3093 6.59361 37.1513C6.24757 37.3401 5.91206 37.5338 5.58849 37.731C4.65916 38.2968 3.90041 39.0829 3.35783 39.994C2.02632 33.6628 2.45238 25.9749 6.8477 19.3131C9.05659 15.965 12.119 13.1293 15.95 10.8853C16.5922 10.5091 16.8077 9.68295 16.4315 9.04071C16.0553 8.39847 15.2291 8.18298 14.5869 8.5592C10.3965 11.0138 7.03581 14.1323 4.5974 17.8286C-1.66148 27.3148 -0.643722 38.6323 2.42641 46.1665V50.5211C2.42641 52.4486 3.26939 54.2693 4.73918 55.5166C10.2835 60.2222 19.1668 63.6369 25.8623 63.6369C31.7499 63.6369 36.7762 61.5249 40.0225 57.6883C42.3514 55.372 43.6373 55.1284 45.9999 55.1284C48.3625 55.1284 49.6484 55.372 51.9766 57.6883C55.2236 61.5249 60.25 63.6369 66.1376 63.6369C69.5846 63.6369 73.7132 62.7343 77.7639 61.096C78.4539 60.8167 78.7873 60.0312 78.5079 59.3406C78.2293 58.6506 77.4431 58.3172 76.7532 58.5966C73.0162 60.1085 69.2463 60.9409 66.1376 60.9409C61.0361 60.9409 56.7271 59.1539 54.0023 55.9083C53.9771 55.8781 53.9511 55.8493 53.923 55.8219C51.041 52.9399 49.0722 52.4324 45.9999 52.4324C42.9277 52.4324 40.9581 52.9399 38.0761 55.8219C38.0488 55.8493 38.0221 55.8781 37.9968 55.9083C35.2727 59.1532 30.9637 60.9409 25.8623 60.9409C19.7403 60.9409 11.5905 57.795 6.48341 53.4614C5.61867 52.7272 5.12242 51.6554 5.12242 50.5211V45.9117C5.12242 45.9068 5.12242 45.9019 5.12242 45.897V43.3365C5.12242 41.9811 5.82152 40.7464 6.99159 40.0333C11.7 37.1639 19.4602 35.16 25.8623 35.16C30.9567 35.16 35.2608 36.9414 37.9856 40.1786C38.1105 40.3358 38.2341 40.4958 38.359 40.6573C39.8597 42.5931 41.7267 45.0035 45.9999 45.0035C50.2731 45.0035 52.1409 42.5931 53.6416 40.6566C53.7658 40.4958 53.89 40.3358 54.0143 40.1786C56.7391 36.9421 61.0438 35.16 66.1383 35.16C72.5396 35.16 80.2999 37.1639 85.009 40.0333C86.179 40.7464 86.8774 41.9811 86.8774 43.3365V45.8977V45.9117V50.5218C86.8774 51.6561 86.3812 52.7272 85.5164 53.4614C84.5394 54.2904 83.4205 55.0969 82.1901 55.857C81.557 56.2487 81.3612 57.079 81.7521 57.7122C82.1438 58.346 82.9748 58.5418 83.608 58.1501C84.9521 57.3191 86.1811 56.4333 87.2607 55.5173C88.7305 54.27 89.5734 52.4493 89.5734 50.5218V46.1665C92.6436 38.6323 93.662 27.3148 87.4025 17.8286ZM38.4797 3.6936C38.4797 3.35037 38.7584 3.07101 39.1016 3.07101H52.8982C53.2415 3.07101 53.5201 3.35037 53.5201 3.6936V8.86313C53.5201 9.20566 53.2415 9.48501 52.8982 9.48501H39.1016C38.7584 9.48501 38.4797 9.20566 38.4797 8.86313V3.6936ZM82.8302 35.9075C77.898 33.7913 71.6454 32.464 66.1383 32.464C60.2254 32.464 55.1822 34.5928 51.9373 38.4596C51.9289 38.4694 51.9205 38.4793 51.9128 38.4891C51.7787 38.659 51.6446 38.8316 51.5099 39.0057C50.1369 40.7773 48.9514 42.3075 45.9999 42.3075C43.0484 42.3075 41.8629 40.7773 40.49 39.0057C40.3552 38.8316 40.2218 38.659 40.0871 38.4898C40.0794 38.4793 40.0709 38.4694 40.0632 38.4596C36.8176 34.5928 31.7744 32.464 25.8623 32.464C20.3551 32.464 14.1019 33.7913 9.1703 35.9082C8.86147 32.4991 9.11134 27.4131 12.1485 22.8107C16.2918 16.53 24.8158 12.546 36.8204 11.2657C37.4156 11.8308 38.2179 12.181 39.1023 12.181H52.8989C53.7826 12.181 54.5856 11.8308 55.1808 11.2657C67.1848 12.546 75.7087 16.5293 79.8528 22.8107C82.8892 27.4131 83.1391 32.4983 82.8302 35.9075ZM88.642 39.994C88.0994 39.0829 87.3407 38.2975 86.4114 37.731C86.0878 37.5338 85.7523 37.3408 85.4062 37.1513C86.1622 31.3093 85.0033 25.7222 82.1024 21.3254C79.7271 17.7254 76.1537 14.8047 71.4826 12.6443C67.2662 10.6944 62.1346 9.35937 56.2161 8.668V4.9837C62.0869 5.63226 67.2613 6.87534 71.6124 8.68695C77.5856 11.1745 82.141 14.75 85.1521 19.3131C89.5475 25.9749 89.9735 33.6628 88.642 39.994ZM33.9433 40.5485C31.7148 38.5656 28.6545 37.5177 25.0916 37.5177C21.4347 37.5177 17.7497 38.3571 14.9807 39.822C11.6698 41.5733 9.84694 44.1107 9.84694 46.966C9.84694 49.8087 11.6564 52.7693 14.8122 55.0891C17.8339 57.3093 21.58 58.5825 25.0916 58.5825C28.6538 58.5825 31.7148 57.5346 33.9433 55.5517C36.0989 53.6334 37.2858 50.969 37.2858 48.0504C37.2858 45.1312 36.0989 42.4675 33.9433 40.5485ZM25.0916 55.8872C19.1107 55.8872 12.543 51.2181 12.543 46.9667C12.543 44.6483 14.5539 43.0978 16.2413 42.2057C18.6341 40.9394 21.86 40.2137 25.0916 40.2137C30.6844 40.2137 34.5898 43.4361 34.5898 48.0504C34.5898 52.6641 30.6837 55.8872 25.0916 55.8872ZM77.0192 39.822C74.2502 38.3578 70.5652 37.5177 66.9082 37.5177C63.3461 37.5177 60.2851 38.5656 58.0565 40.5492C55.901 42.4675 54.7141 45.1319 54.7141 48.0504C54.7141 50.9697 55.901 53.6334 58.0565 55.5517C60.2851 57.5353 63.3461 58.5832 66.9082 58.5832C70.4199 58.5832 74.1659 57.31 77.1869 55.0891C80.3427 52.77 82.1529 49.8094 82.1529 46.9667C82.1529 44.1107 80.3301 41.5733 77.0192 39.822ZM66.909 55.8872C61.3162 55.8872 57.4101 52.6641 57.4101 48.0504C57.4101 43.4361 61.3162 40.2137 66.909 40.2137C70.1398 40.2137 73.3658 40.9394 75.7586 42.2057C77.4459 43.0978 79.4569 44.6483 79.4569 46.9667C79.4569 51.2181 72.8899 55.8872 66.909 55.8872Z" fill="#00C2FF"/>
<path d="M50.0085 8.55289C50.7532 8.55289 51.3569 7.94925 51.3569 7.20523V5.3515C51.3569 4.60678 50.7532 4.00314 50.0085 4.00314C49.2645 4.00314 48.6608 4.60678 48.6608 5.3515V7.20523C48.6608 7.94925 49.2645 8.55289 50.0085 8.55289ZM87.4025 17.8286C84.0909 12.8085 79.127 8.89542 72.6491 6.198C67.9035 4.22214 62.263 2.89203 55.875 2.23645C55.3338 1.13657 54.2052 0.375 52.8982 0.375H39.1016C37.7954 0.375 36.666 1.13586 36.1255 2.23575C30.2541 2.83798 25.0067 4.01227 20.5194 5.73123C19.8238 5.99795 19.4764 6.77707 19.7424 7.47266C19.948 8.00891 20.4597 8.33881 21.0016 8.33881C21.1616 8.33881 21.3252 8.31003 21.4838 8.24896C25.5942 6.67389 30.3994 5.57892 35.7837 4.9837V8.6673C29.8652 9.35937 24.7343 10.6944 20.5173 12.6436C15.8461 14.804 12.2727 17.7254 9.89748 21.3254C6.99651 25.7222 5.83766 31.3093 6.59361 37.1513C6.24757 37.3401 5.91206 37.5338 5.58849 37.731C4.65916 38.2968 3.90041 39.0829 3.35783 39.994C2.02632 33.6628 2.45238 25.9749 6.8477 19.3131C9.05659 15.965 12.119 13.1293 15.95 10.8853C16.5922 10.5091 16.8077 9.68295 16.4315 9.04071C16.0553 8.39847 15.2291 8.18298 14.5869 8.5592C10.3965 11.0138 7.03581 14.1323 4.5974 17.8286C-1.66148 27.3148 -0.643722 38.6323 2.42641 46.1665V50.5211C2.42641 52.4486 3.26939 54.2693 4.73918 55.5166C10.2835 60.2222 19.1668 63.6369 25.8623 63.6369C31.7499 63.6369 36.7762 61.5249 40.0225 57.6883C42.3514 55.372 43.6373 55.1284 45.9999 55.1284C48.3625 55.1284 49.6484 55.372 51.9766 57.6883C55.2236 61.5249 60.25 63.6369 66.1376 63.6369C69.5846 63.6369 73.7132 62.7343 77.7639 61.096C78.4539 60.8167 78.7873 60.0312 78.5079 59.3406C78.2293 58.6506 77.4431 58.3172 76.7532 58.5966C73.0162 60.1085 69.2463 60.9409 66.1376 60.9409C61.0361 60.9409 56.7271 59.1539 54.0023 55.9083C53.9771 55.8781 53.9511 55.8493 53.923 55.8219C51.041 52.9399 49.0722 52.4324 45.9999 52.4324C42.9277 52.4324 40.9581 52.9399 38.0761 55.8219C38.0488 55.8493 38.0221 55.8781 37.9968 55.9083C35.2727 59.1532 30.9637 60.9409 25.8623 60.9409C19.7403 60.9409 11.5905 57.795 6.48341 53.4614C5.61867 52.7272 5.12242 51.6554 5.12242 50.5211V45.9117C5.12242 45.9068 5.12242 45.9019 5.12242 45.897V43.3365C5.12242 41.9811 5.82152 40.7464 6.99159 40.0333C11.7 37.1639 19.4602 35.16 25.8623 35.16C30.9567 35.16 35.2608 36.9414 37.9856 40.1786C38.1105 40.3358 38.2341 40.4958 38.359 40.6573C39.8597 42.5931 41.7267 45.0035 45.9999 45.0035C50.2731 45.0035 52.1409 42.5931 53.6416 40.6566C53.7658 40.4958 53.89 40.3358 54.0143 40.1786C56.7391 36.9421 61.0438 35.16 66.1383 35.16C72.5396 35.16 80.2999 37.1639 85.009 40.0333C86.179 40.7464 86.8774 41.9811 86.8774 43.3365V45.8977V45.9117V50.5218C86.8774 51.6561 86.3812 52.7272 85.5164 53.4614C84.5394 54.2904 83.4205 55.0969 82.1901 55.857C81.557 56.2487 81.3612 57.079 81.7521 57.7122C82.1438 58.346 82.9748 58.5418 83.608 58.1501C84.9521 57.3191 86.1811 56.4333 87.2607 55.5173C88.7305 54.27 89.5734 52.4493 89.5734 50.5218V46.1665C92.6436 38.6323 93.662 27.3148 87.4025 17.8286ZM38.4797 3.6936C38.4797 3.35037 38.7584 3.07101 39.1016 3.07101H52.8982C53.2415 3.07101 53.5201 3.35037 53.5201 3.6936V8.86313C53.5201 9.20566 53.2415 9.48501 52.8982 9.48501H39.1016C38.7584 9.48501 38.4797 9.20566 38.4797 8.86313V3.6936ZM82.8302 35.9075C77.898 33.7913 71.6454 32.464 66.1383 32.464C60.2254 32.464 55.1822 34.5928 51.9373 38.4596C51.9289 38.4694 51.9205 38.4793 51.9128 38.4891C51.7787 38.659 51.6446 38.8316 51.5099 39.0057C50.1369 40.7773 48.9514 42.3075 45.9999 42.3075C43.0484 42.3075 41.8629 40.7773 40.49 39.0057C40.3552 38.8316 40.2218 38.659 40.0871 38.4898C40.0794 38.4793 40.0709 38.4694 40.0632 38.4596C36.8176 34.5928 31.7744 32.464 25.8623 32.464C20.3551 32.464 14.1019 33.7913 9.1703 35.9082C8.86147 32.4991 9.11134 27.4131 12.1485 22.8107C16.2918 16.53 24.8158 12.546 36.8204 11.2657C37.4156 11.8308 38.2179 12.181 39.1023 12.181H52.8989C53.7826 12.181 54.5856 11.8308 55.1808 11.2657C67.1848 12.546 75.7087 16.5293 79.8528 22.8107C82.8892 27.4131 83.1391 32.4983 82.8302 35.9075ZM88.642 39.994C88.0994 39.0829 87.3407 38.2975 86.4114 37.731C86.0878 37.5338 85.7523 37.3408 85.4062 37.1513C86.1622 31.3093 85.0033 25.7222 82.1024 21.3254C79.7271 17.7254 76.1537 14.8047 71.4826 12.6443C67.2662 10.6944 62.1346 9.35937 56.2161 8.668V4.9837C62.0869 5.63226 67.2613 6.87534 71.6124 8.68695C77.5856 11.1745 82.141 14.75 85.1521 19.3131C89.5475 25.9749 89.9735 33.6628 88.642 39.994ZM33.9433 40.5485C31.7148 38.5656 28.6545 37.5177 25.0916 37.5177C21.4347 37.5177 17.7497 38.3571 14.9807 39.822C11.6698 41.5733 9.84694 44.1107 9.84694 46.966C9.84694 49.8087 11.6564 52.7693 14.8122 55.0891C17.8339 57.3093 21.58 58.5825 25.0916 58.5825C28.6538 58.5825 31.7148 57.5346 33.9433 55.5517C36.0989 53.6334 37.2858 50.969 37.2858 48.0504C37.2858 45.1312 36.0989 42.4675 33.9433 40.5485ZM25.0916 55.8872C19.1107 55.8872 12.543 51.2181 12.543 46.9667C12.543 44.6483 14.5539 43.0978 16.2413 42.2057C18.6341 40.9394 21.86 40.2137 25.0916 40.2137C30.6844 40.2137 34.5898 43.4361 34.5898 48.0504C34.5898 52.6641 30.6837 55.8872 25.0916 55.8872ZM77.0192 39.822C74.2502 38.3578 70.5652 37.5177 66.9082 37.5177C63.3461 37.5177 60.2851 38.5656 58.0565 40.5492C55.901 42.4675 54.7141 45.1319 54.7141 48.0504C54.7141 50.9697 55.901 53.6334 58.0565 55.5517C60.2851 57.5353 63.3461 58.5832 66.9082 58.5832C70.4199 58.5832 74.1659 57.31 77.1869 55.0891C80.3427 52.77 82.1529 49.8094 82.1529 46.9667C82.1529 44.1107 80.3301 41.5733 77.0192 39.822ZM66.909 55.8872C61.3162 55.8872 57.4101 52.6641 57.4101 48.0504C57.4101 43.4361 61.3162 40.2137 66.909 40.2137C70.1398 40.2137 73.3658 40.9394 75.7586 42.2057C77.4459 43.0978 79.4569 44.6483 79.4569 46.9667C79.4569 51.2181 72.8899 55.8872 66.909 55.8872Z" fill="url(#paint0_linear)" fill-opacity="0.5"/>
<defs>
<linearGradient id="paint0_linear" x1="46" y1="0.375" x2="46" y2="63.6369" gradientUnits="userSpaceOnUse">
<stop stop-color="#00C2FF"/>
<stop offset="1" stop-color="#00FFF0"/>
</linearGradient>
</defs>
</svg>
