<svg width="87" height="94" viewBox="0 0 87 94" fill="none" xmlns="http://www.w3.org/2000/svg">
<g clip-path="url(#clip0)">
<path d="M78.6714 26.0098V19.9907C78.6714 16.5605 76.088 13.77 72.9133 13.77H26.2963C25.592 13.77 25.0219 14.3868 25.0219 15.147C25.0219 15.9072 25.592 16.5239 26.2963 16.5239H72.9133C74.6829 16.5239 76.1226 18.0795 76.1226 19.9907V24.9004H60.4127C60.3955 24.8617 60.3749 24.8237 60.357 24.7849C59.4536 22.8801 58.4182 20.9725 56.8703 19.5955C55.3576 18.2494 53.0669 18.3957 51.7222 19.9391C50.5878 21.2407 50.384 23.2696 51.2317 24.8072C51.2489 24.838 51.2635 24.8696 51.2814 24.9004H35.7236C36.6861 23.2567 36.3721 20.9417 35.0187 19.6629C32.9949 17.7503 30.5636 18.8633 29.0834 20.842C28.1462 22.0956 27.268 23.4467 26.5917 24.9004H10.8825V19.9914C10.8825 18.0795 12.3222 16.5239 14.0918 16.5239H21.1986C21.9022 16.5239 22.473 15.9079 22.473 15.147C22.473 14.3868 21.9022 13.77 21.1986 13.77H14.0918C10.917 13.77 8.33368 16.5612 8.33368 19.9914V26.0098C3.2805 39.4911 0.853137 60.3684 0.0413618 68.7578C-0.410657 73.4344 2.91477 75.8297 6.4672 77.3049C14.6427 80.6993 23.6665 81.136 32.209 79.2735C34.7107 78.7278 36.6595 76.6394 37.1739 73.9522L40.9607 54.1908C40.9673 54.1563 40.9726 54.1219 40.9766 54.0875C41.0655 53.3416 41.6589 52.7787 42.3559 52.7787H44.6492C45.3468 52.7787 45.9395 53.3416 46.0285 54.0875C46.0324 54.1219 46.0378 54.1563 46.0444 54.1908L49.8311 73.9522C50.3455 76.6394 52.295 78.7278 54.7954 79.2735C64.2207 81.334 74.4114 80.5824 83.1663 76.0893C85.7351 74.7733 87.2611 71.8272 86.9637 68.7578C86.1519 60.3691 83.7246 39.4911 78.6714 26.0098ZM53.6643 21.7355C54.1509 21.2751 54.9567 21.3339 55.3821 21.8596C56.7096 23.5005 57.9104 25.3149 58.6398 27.3603C59.5731 29.9786 59.4649 32.7576 59.4357 35.5101C59.4098 38.0761 59.5147 41.0473 60.7028 45.2413C61.1422 46.7904 58.9193 47.6352 58.3943 46.0732C57.5679 43.6011 57.1856 40.8264 57.0501 38.2131C56.9267 35.8321 57.1829 33.4339 56.9632 31.0601C56.6957 28.1692 55.2826 25.7337 53.5488 23.5923C53.1068 23.0458 53.1585 22.2132 53.6643 21.7355ZM26.3023 45.2413C27.4054 41.3464 27.5747 38.5064 27.572 36.0659C27.572 33.1119 27.3576 30.1773 28.3652 27.3603C29.0993 25.3142 30.2934 23.5026 31.6223 21.8596C32.0504 21.3304 32.8522 21.273 33.3407 21.7348C33.8392 22.206 33.8917 23.0537 33.4562 23.5923C33.4503 23.5995 33.445 23.6066 33.439 23.6138C31.7066 25.7495 30.3021 28.1649 30.0419 31.0587C29.8905 32.7268 30.0074 34.4042 30.008 36.0759C30.0093 38.6455 29.8268 41.7917 28.6314 46.0122C28.4243 46.7423 27.6165 47.1583 26.972 46.8212C26.4489 46.548 26.129 45.8516 26.3023 45.2413ZM5.8665 73.9637C5.86318 73.9945 5.85986 74.0268 5.85588 74.0576C5.54192 73.9084 5.23327 73.7564 4.9306 73.6008C3.33758 72.7847 2.39106 70.9537 2.57625 69.0446C3.36479 60.8991 5.69193 40.825 10.4697 27.6536H13.8774C12.0029 33.7294 10.9416 40.2577 9.80988 46.5336C8.17106 55.6186 6.90461 64.7768 5.8665 73.9637ZM82.0738 73.6015C81.7711 73.7571 81.4625 73.9092 81.1485 74.0576C81.1359 73.9457 81.1226 73.8331 81.11 73.7213C80.8299 71.2399 80.4403 68.7628 80.21 66.2757C80.1131 65.5227 79.4692 64.997 78.7723 65.1017C78.0747 65.2071 77.5888 65.9028 77.6857 66.6558C78.0169 69.2139 78.3242 71.7763 78.6116 74.3402C78.6402 74.5948 78.6687 74.8494 78.6966 75.104C73.4901 77.0962 65.4447 78.7916 55.2998 76.5741C53.8011 76.2471 52.6342 74.9985 52.3269 73.3935L48.5494 53.6787C48.2739 51.5918 46.6066 50.0248 44.6492 50.0248H42.3559C40.3985 50.0248 38.7311 51.5918 38.4557 53.6787L34.6782 73.3935C34.3709 74.9985 33.2033 76.2471 31.7039 76.5741C21.5584 78.7923 13.513 77.0962 8.30647 75.1032C8.3078 75.091 8.30912 75.0781 8.31111 75.0659C8.32107 74.9713 8.33169 74.8773 8.34231 74.7834C8.66158 71.9083 9.00607 69.036 9.37777 66.1681C10.5121 57.4524 11.8788 48.7676 13.6325 40.1709C14.4907 35.9705 15.4346 31.7902 16.5258 27.6536H25.5854C25.5754 27.6909 25.5668 27.7282 25.5575 27.7655C24.8592 30.4563 25.0199 33.2403 25.0232 35.9999C25.0259 38.2597 24.8719 40.8809 23.8649 44.4352C23.2583 46.5759 24.4909 48.9569 26.4801 49.5529C29.773 50.539 31.0873 47.1038 31.6986 44.3147C32.6378 40.0318 32.5827 36.9143 32.5363 34.3246C32.4938 31.9702 32.5774 29.6953 33.7815 27.6536H53.2236C54.1801 29.2758 54.4914 31.0902 54.4861 32.9929C54.4728 37.734 54.6407 42.2435 55.937 46.8183C56.4521 48.6363 58.1613 49.8691 59.9156 49.6762C62.2142 49.4238 63.8165 46.8233 63.1401 44.4352C61.9009 40.0619 61.954 37.0993 62.0005 34.486C62.0416 32.1975 62.0111 29.8689 61.4197 27.6536H70.4793C72.5057 35.3552 74.0689 43.1888 75.3858 51.0654C75.9613 54.5042 76.5049 58.0477 76.9961 61.5403C77.1992 62.9818 79.1579 63.0872 79.4918 61.6729C79.7055 60.7643 79.2681 59.5207 79.132 58.6207C78.7085 55.8245 78.2917 52.9314 77.8151 50.1072C76.5387 42.5469 74.955 35.0755 73.1283 27.6493C74.2607 27.6823 75.4004 27.6536 76.5347 27.6536C81.3131 40.8243 83.6403 60.8984 84.4281 69.0446C84.6133 70.9537 83.6675 72.7847 82.0738 73.6015Z" fill="#00C2FF"/>
<path d="M78.6714 26.0098V19.9907C78.6714 16.5605 76.088 13.77 72.9133 13.77H26.2963C25.592 13.77 25.0219 14.3868 25.0219 15.147C25.0219 15.9072 25.592 16.5239 26.2963 16.5239H72.9133C74.6829 16.5239 76.1226 18.0795 76.1226 19.9907V24.9004H60.4127C60.3955 24.8617 60.3749 24.8237 60.357 24.7849C59.4536 22.8801 58.4182 20.9725 56.8703 19.5955C55.3576 18.2494 53.0669 18.3957 51.7222 19.9391C50.5878 21.2407 50.384 23.2696 51.2317 24.8072C51.2489 24.838 51.2635 24.8696 51.2814 24.9004H35.7236C36.6861 23.2567 36.3721 20.9417 35.0187 19.6629C32.9949 17.7503 30.5636 18.8633 29.0834 20.842C28.1462 22.0956 27.268 23.4467 26.5917 24.9004H10.8825V19.9914C10.8825 18.0795 12.3222 16.5239 14.0918 16.5239H21.1986C21.9022 16.5239 22.473 15.9079 22.473 15.147C22.473 14.3868 21.9022 13.77 21.1986 13.77H14.0918C10.917 13.77 8.33368 16.5612 8.33368 19.9914V26.0098C3.2805 39.4911 0.853137 60.3684 0.0413618 68.7578C-0.410657 73.4344 2.91477 75.8297 6.4672 77.3049C14.6427 80.6993 23.6665 81.136 32.209 79.2735C34.7107 78.7278 36.6595 76.6394 37.1739 73.9522L40.9607 54.1908C40.9673 54.1563 40.9726 54.1219 40.9766 54.0875C41.0655 53.3416 41.6589 52.7787 42.3559 52.7787H44.6492C45.3468 52.7787 45.9395 53.3416 46.0285 54.0875C46.0324 54.1219 46.0378 54.1563 46.0444 54.1908L49.8311 73.9522C50.3455 76.6394 52.295 78.7278 54.7954 79.2735C64.2207 81.334 74.4114 80.5824 83.1663 76.0893C85.7351 74.7733 87.2611 71.8272 86.9637 68.7578C86.1519 60.3691 83.7246 39.4911 78.6714 26.0098ZM53.6643 21.7355C54.1509 21.2751 54.9567 21.3339 55.3821 21.8596C56.7096 23.5005 57.9104 25.3149 58.6398 27.3603C59.5731 29.9786 59.4649 32.7576 59.4357 35.5101C59.4098 38.0761 59.5147 41.0473 60.7028 45.2413C61.1422 46.7904 58.9193 47.6352 58.3943 46.0732C57.5679 43.6011 57.1856 40.8264 57.0501 38.2131C56.9267 35.8321 57.1829 33.4339 56.9632 31.0601C56.6957 28.1692 55.2826 25.7337 53.5488 23.5923C53.1068 23.0458 53.1585 22.2132 53.6643 21.7355ZM26.3023 45.2413C27.4054 41.3464 27.5747 38.5064 27.572 36.0659C27.572 33.1119 27.3576 30.1773 28.3652 27.3603C29.0993 25.3142 30.2934 23.5026 31.6223 21.8596C32.0504 21.3304 32.8522 21.273 33.3407 21.7348C33.8392 22.206 33.8917 23.0537 33.4562 23.5923C33.4503 23.5995 33.445 23.6066 33.439 23.6138C31.7066 25.7495 30.3021 28.1649 30.0419 31.0587C29.8905 32.7268 30.0074 34.4042 30.008 36.0759C30.0093 38.6455 29.8268 41.7917 28.6314 46.0122C28.4243 46.7423 27.6165 47.1583 26.972 46.8212C26.4489 46.548 26.129 45.8516 26.3023 45.2413ZM5.8665 73.9637C5.86318 73.9945 5.85986 74.0268 5.85588 74.0576C5.54192 73.9084 5.23327 73.7564 4.9306 73.6008C3.33758 72.7847 2.39106 70.9537 2.57625 69.0446C3.36479 60.8991 5.69193 40.825 10.4697 27.6536H13.8774C12.0029 33.7294 10.9416 40.2577 9.80988 46.5336C8.17106 55.6186 6.90461 64.7768 5.8665 73.9637ZM82.0738 73.6015C81.7711 73.7571 81.4625 73.9092 81.1485 74.0576C81.1359 73.9457 81.1226 73.8331 81.11 73.7213C80.8299 71.2399 80.4403 68.7628 80.21 66.2757C80.1131 65.5227 79.4692 64.997 78.7723 65.1017C78.0747 65.2071 77.5888 65.9028 77.6857 66.6558C78.0169 69.2139 78.3242 71.7763 78.6116 74.3402C78.6402 74.5948 78.6687 74.8494 78.6966 75.104C73.4901 77.0962 65.4447 78.7916 55.2998 76.5741C53.8011 76.2471 52.6342 74.9985 52.3269 73.3935L48.5494 53.6787C48.2739 51.5918 46.6066 50.0248 44.6492 50.0248H42.3559C40.3985 50.0248 38.7311 51.5918 38.4557 53.6787L34.6782 73.3935C34.3709 74.9985 33.2033 76.2471 31.7039 76.5741C21.5584 78.7923 13.513 77.0962 8.30647 75.1032C8.3078 75.091 8.30912 75.0781 8.31111 75.0659C8.32107 74.9713 8.33169 74.8773 8.34231 74.7834C8.66158 71.9083 9.00607 69.036 9.37777 66.1681C10.5121 57.4524 11.8788 48.7676 13.6325 40.1709C14.4907 35.9705 15.4346 31.7902 16.5258 27.6536H25.5854C25.5754 27.6909 25.5668 27.7282 25.5575 27.7655C24.8592 30.4563 25.0199 33.2403 25.0232 35.9999C25.0259 38.2597 24.8719 40.8809 23.8649 44.4352C23.2583 46.5759 24.4909 48.9569 26.4801 49.5529C29.773 50.539 31.0873 47.1038 31.6986 44.3147C32.6378 40.0318 32.5827 36.9143 32.5363 34.3246C32.4938 31.9702 32.5774 29.6953 33.7815 27.6536H53.2236C54.1801 29.2758 54.4914 31.0902 54.4861 32.9929C54.4728 37.734 54.6407 42.2435 55.937 46.8183C56.4521 48.6363 58.1613 49.8691 59.9156 49.6762C62.2142 49.4238 63.8165 46.8233 63.1401 44.4352C61.9009 40.0619 61.954 37.0993 62.0005 34.486C62.0416 32.1975 62.0111 29.8689 61.4197 27.6536H70.4793C72.5057 35.3552 74.0689 43.1888 75.3858 51.0654C75.9613 54.5042 76.5049 58.0477 76.9961 61.5403C77.1992 62.9818 79.1579 63.0872 79.4918 61.6729C79.7055 60.7643 79.2681 59.5207 79.132 58.6207C78.7085 55.8245 78.2917 52.9314 77.8151 50.1072C76.5387 42.5469 74.955 35.0755 73.1283 27.6493C74.2607 27.6823 75.4004 27.6536 76.5347 27.6536C81.3131 40.8243 83.6403 60.8984 84.4281 69.0446C84.6133 70.9537 83.6675 72.7847 82.0738 73.6015Z" fill="url(#paint0_linear)" fill-opacity="0.5"/>
</g>
<defs>
<linearGradient id="paint0_linear" x1="43.5003" y1="13.77" x2="43.5003" y2="80.3647" gradientUnits="userSpaceOnUse">
<stop stop-color="#00C2FF"/>
<stop offset="1" stop-color="#00FFF0"/>
</linearGradient>
<clipPath id="clip0">
<rect width="87" height="94" fill="white"/>
</clipPath>
</defs>
</svg>
