<svg width="76" height="76" viewBox="0 0 76 76" fill="none" xmlns="http://www.w3.org/2000/svg">
<path d="M74.417 22.5859C75.2368 22.5859 75.9014 21.9214 75.9014 21.1016C75.9014 20.2818 75.2368 19.6172 74.417 19.6172C73.5972 19.6172 72.9326 20.2818 72.9326 21.1016C72.9326 21.9214 73.5972 22.5859 74.417 22.5859Z" fill="#00C2FF"/>
<path d="M74.417 22.5859C75.2368 22.5859 75.9014 21.9214 75.9014 21.1016C75.9014 20.2818 75.2368 19.6172 74.417 19.6172C73.5972 19.6172 72.9326 20.2818 72.9326 21.1016C72.9326 21.9214 73.5972 22.5859 74.417 22.5859Z" fill="url(#paint0_linear)" fill-opacity="0.5"/>
<path d="M61.7725 76C62.5923 76 63.2568 75.3354 63.2568 74.5156C63.2568 73.6958 62.5923 73.0312 61.7725 73.0312C60.9527 73.0312 60.2881 73.6958 60.2881 74.5156C60.2881 75.3354 60.9527 76 61.7725 76Z" fill="#00C2FF"/>
<path d="M61.7725 76C62.5923 76 63.2568 75.3354 63.2568 74.5156C63.2568 73.6958 62.5923 73.0312 61.7725 73.0312C60.9527 73.0312 60.2881 73.6958 60.2881 74.5156C60.2881 75.3354 60.9527 76 61.7725 76Z" fill="url(#paint1_linear)" fill-opacity="0.5"/>
<path d="M74.6878 57.9589C73.861 56.3052 72.6498 54.8284 71.1877 53.6882C71.8749 53.4656 72.5206 53.136 73.1099 52.71C73.6933 52.287 74.2084 51.7778 74.6373 51.1976C75.528 49.9923 76 48.5597 76 47.0547C76 46.112 75.8145 45.1992 75.4508 44.3383C75.1005 43.5084 74.5973 42.7619 73.956 42.122C73.3163 41.4809 72.5696 40.9775 71.7398 40.6273C70.8789 40.2622 69.966 40.0781 69.0234 40.0781H66.656C67.2878 39.6846 67.8999 39.257 68.4876 38.7912C70.1768 37.4536 71.6285 35.861 72.8027 34.0545C73.9976 32.2198 74.8734 30.213 75.4048 28.0933C75.5013 27.7088 75.4419 27.3095 75.2385 26.9696C75.0352 26.6297 74.7101 26.3894 74.3256 26.2927C74.2069 26.263 74.0852 26.2482 73.9634 26.2482C73.2821 26.2482 72.6913 26.7097 72.5251 27.3717C70.6473 34.8531 63.9602 40.0781 56.2652 40.0781H56.2578C51.7795 40.0766 47.5683 38.3266 44.3991 35.1515C41.23 31.972 39.4844 27.7445 39.4844 23.2512C39.4903 20.5423 40.5116 18.142 42.4368 16.3712C44.319 14.6478 46.8988 13.6562 49.6984 13.6562H49.7548C51.5093 13.6562 53.0723 13.9279 54.4023 14.3953C56.2385 15.0471 57.5945 16.1046 58.5445 17.5964C59.4633 19.0481 59.9688 20.897 59.9688 23.0641V23.1131C59.9688 24.1371 59.5791 25.1272 58.8711 25.8635C58.166 26.5923 57.2375 27.0155 56.2563 27.0155H56.2474C54.2064 27.0155 52.5454 25.3203 52.5469 23.2704C52.5469 22.4525 51.8804 21.7764 51.0625 21.7764C50.2446 21.7764 49.5781 22.4381 49.5781 23.256C49.5781 25.0404 50.2698 26.736 51.5271 27.999C52.7844 29.2624 54.4573 29.9844 56.2385 29.9844H56.2727H56.2741C57.1811 29.9844 58.0643 29.7751 58.8955 29.4068C59.6927 29.055 60.4037 28.5453 61.0108 27.9113C61.6149 27.2819 62.0907 26.5482 62.4217 25.7377C62.7631 24.9037 62.9375 24.017 62.9375 23.1131V23.0284C62.9375 19.3739 61.7374 16.3176 59.5776 14.189C58.4391 13.0638 57.0286 12.2014 55.3868 11.6253C54.131 11.1845 52.7265 10.9069 51.2109 10.8V4.46322C51.2109 4.05813 51.3623 3.69149 51.6488 3.40204C51.9279 3.12298 52.2945 2.9686 52.679 2.9686C52.7206 2.9686 53.9655 3.08453 54.5313 3.16157C58.6999 3.72905 62.2683 5.06617 65.1566 7.14563C67.9933 9.1911 70.1189 11.9016 71.4727 15.1984C71.7027 15.7581 72.2416 16.1187 72.8472 16.1187C73.0402 16.1187 73.2287 16.0816 73.4098 16.0074C73.7764 15.8574 74.0629 15.5724 74.2158 15.2073C74.3687 14.8405 74.3702 14.4382 74.2202 14.0717C73.4751 12.2534 72.5028 10.5582 71.3287 9.03079C70.0714 7.39649 68.5781 5.95071 66.8919 4.73649C65.0958 3.44197 63.0518 2.38821 60.8163 1.6058C58.9661 0.959352 56.9641 0.490586 54.8447 0.207664C54.2539 0.128992 52.8007 0 52.679 0C51.4959 0.00148437 50.3827 0.466094 49.5455 1.30625C48.7068 2.14937 48.2437 3.27008 48.2422 4.46352V10.8226C46.7519 10.9694 45.3224 11.3362 43.9924 11.9136C42.6669 12.491 41.469 13.2629 40.4329 14.2114C39.6986 14.881 39.0609 15.6294 38.5209 16.4463C36.2373 8.55742 29.6733 1.09666 16.5297 0.0149922C15.3021 -0.0843125 14.0774 0.336359 13.1683 1.17355C12.2522 2.01756 11.7266 3.21679 11.7266 4.46352V10.8209C4.94534 11.4761 0 16.6007 0 23.251C0 30.5435 3.95363 36.9268 9.82374 40.3613C9.06998 40.5242 8.33165 40.7546 7.61484 41.0577C6.13047 41.6856 4.7975 42.5851 3.65156 43.7295C2.50711 44.8755 1.60758 46.2084 0.979688 47.6928C0.329531 49.2308 0 50.8636 0 52.5469C0 53.5295 0.114297 54.5077 0.341406 55.4548C0.561094 56.3751 0.887656 57.2716 1.31219 58.1192C2.13898 59.7728 3.35023 61.2498 4.81383 62.3898C4.12508 62.6124 3.47937 62.9421 2.89008 63.368C2.30672 63.7912 1.79164 64.3002 1.36266 64.8805C0.472031 66.0859 0 67.5181 0 69.0234C0 69.966 0.184062 70.8789 0.549219 71.7398C0.899531 72.5696 1.40273 73.3163 2.04398 73.956C2.68375 74.5973 3.43039 75.1005 4.26016 75.4508C5.12109 75.8145 6.03398 76 6.97656 76H55.0926C55.9105 76 56.577 75.3335 56.577 74.5156C56.577 73.6977 55.912 73.0327 55.0941 73.0312H55.0926H6.97656C4.77078 73.0268 2.9732 71.2291 2.96875 69.0234C2.9732 66.8177 4.77078 65.0186 6.97656 65.0156H61.1562C61.9761 65.0156 62.6406 64.3509 62.6406 63.5312C62.6406 62.7116 61.9761 62.0469 61.1562 62.0469H12.4688C9.93344 62.0469 7.54656 61.0583 5.75195 59.2637C3.95734 57.4691 2.96875 55.0822 2.96875 52.5469C2.96875 50.0101 3.95734 47.6247 5.75195 45.8286C7.54656 44.0355 9.93344 43.0484 12.4688 43.0469H69.0234C71.2292 43.0513 73.0268 44.8489 73.0312 47.0547C73.0268 49.2603 71.2292 51.058 69.0234 51.0625H14.8438C14.0239 51.0625 13.3594 51.7272 13.3594 52.5469C13.3594 53.3665 14.0239 54.0312 14.8438 54.0312H63.5312C66.0666 54.0312 68.4534 55.0198 70.2495 56.813C72.0427 58.6091 73.0312 60.9959 73.0312 63.5312C73.0327 67.1576 70.9175 70.5197 67.6445 72.0976C67.2867 72.2698 67.018 72.5696 66.8874 72.9437C66.7553 73.3191 66.7776 73.7213 66.9498 74.0791C67.1962 74.5897 67.7216 74.9192 68.2887 74.9192C68.5128 74.9192 68.7281 74.8702 68.9314 74.7723C71.017 73.7703 72.7804 72.2088 74.0332 70.2553C75.3187 68.2501 76 65.9241 76 63.5312C76 62.5486 75.8857 61.5704 75.6586 60.6234C75.4389 59.703 75.1123 58.8065 74.6878 57.9589ZM2.96875 23.2511C2.96875 17.8168 7.372 13.7187 13.2109 13.7187C19.8366 13.7187 23.378 16.9504 23.4519 23.0647C23.4647 24.1153 23.0497 25.1634 22.3133 25.9068C21.6168 26.6096 20.7039 27.0156 19.7414 27.0156C19.7382 27.0156 19.7348 27.0156 19.7314 27.0156C17.6911 27.0156 16.0312 25.3191 16.0312 23.2703C16.0312 22.4506 15.3667 21.7762 14.5469 21.7762C13.7271 21.7762 13.0625 22.4552 13.0625 23.275C13.0625 26.9563 16.0502 29.9844 19.7229 29.9844H19.7417C21.5021 29.9844 23.1638 29.2664 24.4223 27.9962C25.7146 26.6919 26.4428 24.8787 26.4205 23.0382C26.3763 19.3803 25.2146 16.3189 23.0615 14.194C21.0271 12.1866 18.2173 11.0446 14.6953 10.8002V4.46352C14.6953 4.0378 14.8674 3.64473 15.1798 3.35691C15.4847 3.07622 15.8779 2.93906 16.2863 2.9738C31.2014 4.20123 36.5156 14.2531 36.5156 23.2511C36.5156 32.5295 28.9912 40.0781 19.7422 40.0781C10.4932 40.0781 2.96875 32.5295 2.96875 23.2511ZM30.1291 40.0781C33.6321 37.8961 36.4067 34.6462 37.9975 30.785C38.0208 30.8417 38.0429 30.8987 38.0668 30.9552C39.0613 33.3123 40.4834 35.4291 42.2973 37.2474C43.3803 38.334 44.5706 39.2794 45.8543 40.0781H30.1291Z" fill="#00C2FF"/>
<path d="M74.6878 57.9589C73.861 56.3052 72.6498 54.8284 71.1877 53.6882C71.8749 53.4656 72.5206 53.136 73.1099 52.71C73.6933 52.287 74.2084 51.7778 74.6373 51.1976C75.528 49.9923 76 48.5597 76 47.0547C76 46.112 75.8145 45.1992 75.4508 44.3383C75.1005 43.5084 74.5973 42.7619 73.956 42.122C73.3163 41.4809 72.5696 40.9775 71.7398 40.6273C70.8789 40.2622 69.966 40.0781 69.0234 40.0781H66.656C67.2878 39.6846 67.8999 39.257 68.4876 38.7912C70.1768 37.4536 71.6285 35.861 72.8027 34.0545C73.9976 32.2198 74.8734 30.213 75.4048 28.0933C75.5013 27.7088 75.4419 27.3095 75.2385 26.9696C75.0352 26.6297 74.7101 26.3894 74.3256 26.2927C74.2069 26.263 74.0852 26.2482 73.9634 26.2482C73.2821 26.2482 72.6913 26.7097 72.5251 27.3717C70.6473 34.8531 63.9602 40.0781 56.2652 40.0781H56.2578C51.7795 40.0766 47.5683 38.3266 44.3991 35.1515C41.23 31.972 39.4844 27.7445 39.4844 23.2512C39.4903 20.5423 40.5116 18.142 42.4368 16.3712C44.319 14.6478 46.8988 13.6562 49.6984 13.6562H49.7548C51.5093 13.6562 53.0723 13.9279 54.4023 14.3953C56.2385 15.0471 57.5945 16.1046 58.5445 17.5964C59.4633 19.0481 59.9688 20.897 59.9688 23.0641V23.1131C59.9688 24.1371 59.5791 25.1272 58.8711 25.8635C58.166 26.5923 57.2375 27.0155 56.2563 27.0155H56.2474C54.2064 27.0155 52.5454 25.3203 52.5469 23.2704C52.5469 22.4525 51.8804 21.7764 51.0625 21.7764C50.2446 21.7764 49.5781 22.4381 49.5781 23.256C49.5781 25.0404 50.2698 26.736 51.5271 27.999C52.7844 29.2624 54.4573 29.9844 56.2385 29.9844H56.2727H56.2741C57.1811 29.9844 58.0643 29.7751 58.8955 29.4068C59.6927 29.055 60.4037 28.5453 61.0108 27.9113C61.6149 27.2819 62.0907 26.5482 62.4217 25.7377C62.7631 24.9037 62.9375 24.017 62.9375 23.1131V23.0284C62.9375 19.3739 61.7374 16.3176 59.5776 14.189C58.4391 13.0638 57.0286 12.2014 55.3868 11.6253C54.131 11.1845 52.7265 10.9069 51.2109 10.8V4.46322C51.2109 4.05813 51.3623 3.69149 51.6488 3.40204C51.9279 3.12298 52.2945 2.9686 52.679 2.9686C52.7206 2.9686 53.9655 3.08453 54.5313 3.16157C58.6999 3.72905 62.2683 5.06617 65.1566 7.14563C67.9933 9.1911 70.1189 11.9016 71.4727 15.1984C71.7027 15.7581 72.2416 16.1187 72.8472 16.1187C73.0402 16.1187 73.2287 16.0816 73.4098 16.0074C73.7764 15.8574 74.0629 15.5724 74.2158 15.2073C74.3687 14.8405 74.3702 14.4382 74.2202 14.0717C73.4751 12.2534 72.5028 10.5582 71.3287 9.03079C70.0714 7.39649 68.5781 5.95071 66.8919 4.73649C65.0958 3.44197 63.0518 2.38821 60.8163 1.6058C58.9661 0.959352 56.9641 0.490586 54.8447 0.207664C54.2539 0.128992 52.8007 0 52.679 0C51.4959 0.00148437 50.3827 0.466094 49.5455 1.30625C48.7068 2.14937 48.2437 3.27008 48.2422 4.46352V10.8226C46.7519 10.9694 45.3224 11.3362 43.9924 11.9136C42.6669 12.491 41.469 13.2629 40.4329 14.2114C39.6986 14.881 39.0609 15.6294 38.5209 16.4463C36.2373 8.55742 29.6733 1.09666 16.5297 0.0149922C15.3021 -0.0843125 14.0774 0.336359 13.1683 1.17355C12.2522 2.01756 11.7266 3.21679 11.7266 4.46352V10.8209C4.94534 11.4761 0 16.6007 0 23.251C0 30.5435 3.95363 36.9268 9.82374 40.3613C9.06998 40.5242 8.33165 40.7546 7.61484 41.0577C6.13047 41.6856 4.7975 42.5851 3.65156 43.7295C2.50711 44.8755 1.60758 46.2084 0.979688 47.6928C0.329531 49.2308 0 50.8636 0 52.5469C0 53.5295 0.114297 54.5077 0.341406 55.4548C0.561094 56.3751 0.887656 57.2716 1.31219 58.1192C2.13898 59.7728 3.35023 61.2498 4.81383 62.3898C4.12508 62.6124 3.47937 62.9421 2.89008 63.368C2.30672 63.7912 1.79164 64.3002 1.36266 64.8805C0.472031 66.0859 0 67.5181 0 69.0234C0 69.966 0.184062 70.8789 0.549219 71.7398C0.899531 72.5696 1.40273 73.3163 2.04398 73.956C2.68375 74.5973 3.43039 75.1005 4.26016 75.4508C5.12109 75.8145 6.03398 76 6.97656 76H55.0926C55.9105 76 56.577 75.3335 56.577 74.5156C56.577 73.6977 55.912 73.0327 55.0941 73.0312H55.0926H6.97656C4.77078 73.0268 2.9732 71.2291 2.96875 69.0234C2.9732 66.8177 4.77078 65.0186 6.97656 65.0156H61.1562C61.9761 65.0156 62.6406 64.3509 62.6406 63.5312C62.6406 62.7116 61.9761 62.0469 61.1562 62.0469H12.4688C9.93344 62.0469 7.54656 61.0583 5.75195 59.2637C3.95734 57.4691 2.96875 55.0822 2.96875 52.5469C2.96875 50.0101 3.95734 47.6247 5.75195 45.8286C7.54656 44.0355 9.93344 43.0484 12.4688 43.0469H69.0234C71.2292 43.0513 73.0268 44.8489 73.0312 47.0547C73.0268 49.2603 71.2292 51.058 69.0234 51.0625H14.8438C14.0239 51.0625 13.3594 51.7272 13.3594 52.5469C13.3594 53.3665 14.0239 54.0312 14.8438 54.0312H63.5312C66.0666 54.0312 68.4534 55.0198 70.2495 56.813C72.0427 58.6091 73.0312 60.9959 73.0312 63.5312C73.0327 67.1576 70.9175 70.5197 67.6445 72.0976C67.2867 72.2698 67.018 72.5696 66.8874 72.9437C66.7553 73.3191 66.7776 73.7213 66.9498 74.0791C67.1962 74.5897 67.7216 74.9192 68.2887 74.9192C68.5128 74.9192 68.7281 74.8702 68.9314 74.7723C71.017 73.7703 72.7804 72.2088 74.0332 70.2553C75.3187 68.2501 76 65.9241 76 63.5312C76 62.5486 75.8857 61.5704 75.6586 60.6234C75.4389 59.703 75.1123 58.8065 74.6878 57.9589ZM2.96875 23.2511C2.96875 17.8168 7.372 13.7187 13.2109 13.7187C19.8366 13.7187 23.378 16.9504 23.4519 23.0647C23.4647 24.1153 23.0497 25.1634 22.3133 25.9068C21.6168 26.6096 20.7039 27.0156 19.7414 27.0156C19.7382 27.0156 19.7348 27.0156 19.7314 27.0156C17.6911 27.0156 16.0312 25.3191 16.0312 23.2703C16.0312 22.4506 15.3667 21.7762 14.5469 21.7762C13.7271 21.7762 13.0625 22.4552 13.0625 23.275C13.0625 26.9563 16.0502 29.9844 19.7229 29.9844H19.7417C21.5021 29.9844 23.1638 29.2664 24.4223 27.9962C25.7146 26.6919 26.4428 24.8787 26.4205 23.0382C26.3763 19.3803 25.2146 16.3189 23.0615 14.194C21.0271 12.1866 18.2173 11.0446 14.6953 10.8002V4.46352C14.6953 4.0378 14.8674 3.64473 15.1798 3.35691C15.4847 3.07622 15.8779 2.93906 16.2863 2.9738C31.2014 4.20123 36.5156 14.2531 36.5156 23.2511C36.5156 32.5295 28.9912 40.0781 19.7422 40.0781C10.4932 40.0781 2.96875 32.5295 2.96875 23.2511ZM30.1291 40.0781C33.6321 37.8961 36.4067 34.6462 37.9975 30.785C38.0208 30.8417 38.0429 30.8987 38.0668 30.9552C39.0613 33.3123 40.4834 35.4291 42.2973 37.2474C43.3803 38.334 44.5706 39.2794 45.8543 40.0781H30.1291Z" fill="url(#paint2_linear)" fill-opacity="0.5"/>
<defs>
<linearGradient id="paint0_linear" x1="74.417" y1="19.6172" x2="74.417" y2="22.5859" gradientUnits="userSpaceOnUse">
<stop stop-color="#00C2FF"/>
<stop offset="1" stop-color="#00FFF0"/>
</linearGradient>
<linearGradient id="paint1_linear" x1="61.7725" y1="73.0312" x2="61.7725" y2="76" gradientUnits="userSpaceOnUse">
<stop stop-color="#00C2FF"/>
<stop offset="1" stop-color="#00FFF0"/>
</linearGradient>
<linearGradient id="paint2_linear" x1="38" y1="0" x2="38" y2="76" gradientUnits="userSpaceOnUse">
<stop stop-color="#00C2FF"/>
<stop offset="1" stop-color="#00FFF0"/>
</linearGradient>
</defs>
</svg>
