<svg width="74" height="84" viewBox="0 0 74 84" fill="none" xmlns="http://www.w3.org/2000/svg">
<path d="M72.5555 71.7723C72.8375 70.8218 72.9797 69.8363 72.9797 68.8293C72.9797 63.1221 68.3366 58.4789 62.6294 58.4789C60.3058 58.4789 58.1067 59.2354 56.3044 60.6334C53.6522 58.8048 50.4753 57.8109 47.2168 57.8109C46.5877 57.8109 45.9669 57.8483 45.357 57.921C45.7194 54.2638 45.9029 50.6715 45.9029 47.2193C45.9029 38.4026 44.6529 30.274 42.0814 22.3689C39.4344 14.2313 35.5947 6.91852 32.1876 0.838523C31.8977 0.320742 31.3502 0 30.7566 0H15.3536C14.76 0 14.2126 0.320742 13.9223 0.838523C10.5152 6.91884 6.67569 14.2316 4.02854 22.3689C1.45702 30.2741 0.207031 38.4028 0.207031 47.2193C0.207031 60.2962 2.81612 74.6958 6.69964 83.0507C6.9687 83.6295 7.54916 83.9998 8.18736 83.9998H73.6936C74.4002 83.9998 75.0272 83.5475 75.2502 82.877C75.6092 81.7988 75.791 80.6748 75.791 79.537C75.7913 76.7542 74.5981 73.9243 72.5555 71.7723ZM25.102 3.28125V5.32826C25.102 6.45701 24.1838 7.3751 23.055 7.3751C21.9263 7.3751 21.008 6.45684 21.008 5.32826V3.28125H25.102ZM16.317 3.28125H17.7269V5.32826C17.7269 8.26612 20.1172 10.6565 23.0552 10.6565C25.9932 10.6565 28.3835 8.26629 28.3835 5.32826V3.28125H29.7934C31.7261 6.76102 33.4645 10.0925 34.9919 13.3814H11.1185C12.6459 10.0926 14.3843 6.76102 16.317 3.28125ZM3.48828 47.2195C3.48828 35.4186 5.67934 26.0708 9.6608 16.6628H36.4493C40.4306 26.0707 42.6216 35.4185 42.6216 47.2195C42.6216 50.915 42.4042 54.78 41.9754 58.7167C36.9252 60.5261 33.1342 64.8741 32.3552 70.1792C28.0906 71.7191 25.1019 75.7426 25.1019 80.1439C25.1019 80.3358 25.1075 80.5276 25.1184 80.7189H9.25163C5.78614 72.6379 3.48828 59.3739 3.48828 47.2195ZM72.4141 80.7188H28.4077C28.3913 80.5278 28.3833 80.336 28.3833 80.1437C28.3833 76.8554 30.8564 73.8616 34.2638 73.0252C34.9606 72.8541 35.4652 72.2503 35.5102 71.5344C35.8767 65.679 41.0189 61.0921 47.2172 61.0921C50.146 61.0921 53.1064 62.1574 55.3397 64.0149C55.9983 64.5627 56.9672 64.5113 57.5643 63.8982C58.9068 62.5195 60.7057 61.7602 62.6297 61.7602C66.5277 61.7602 69.6988 64.9313 69.6988 68.8293C69.6988 69.7843 69.5121 70.71 69.144 71.5803C68.8678 72.2329 69.0421 72.9891 69.5759 73.4554C71.4133 75.0596 72.5104 77.3332 72.5104 79.537C72.51 79.9345 72.4777 80.3293 72.4141 80.7188Z" fill="#00C2FF"/>
<path d="M72.5555 71.7723C72.8375 70.8218 72.9797 69.8363 72.9797 68.8293C72.9797 63.1221 68.3366 58.4789 62.6294 58.4789C60.3058 58.4789 58.1067 59.2354 56.3044 60.6334C53.6522 58.8048 50.4753 57.8109 47.2168 57.8109C46.5877 57.8109 45.9669 57.8483 45.357 57.921C45.7194 54.2638 45.9029 50.6715 45.9029 47.2193C45.9029 38.4026 44.6529 30.274 42.0814 22.3689C39.4344 14.2313 35.5947 6.91852 32.1876 0.838523C31.8977 0.320742 31.3502 0 30.7566 0H15.3536C14.76 0 14.2126 0.320742 13.9223 0.838523C10.5152 6.91884 6.67569 14.2316 4.02854 22.3689C1.45702 30.2741 0.207031 38.4028 0.207031 47.2193C0.207031 60.2962 2.81612 74.6958 6.69964 83.0507C6.9687 83.6295 7.54916 83.9998 8.18736 83.9998H73.6936C74.4002 83.9998 75.0272 83.5475 75.2502 82.877C75.6092 81.7988 75.791 80.6748 75.791 79.537C75.7913 76.7542 74.5981 73.9243 72.5555 71.7723ZM25.102 3.28125V5.32826C25.102 6.45701 24.1838 7.3751 23.055 7.3751C21.9263 7.3751 21.008 6.45684 21.008 5.32826V3.28125H25.102ZM16.317 3.28125H17.7269V5.32826C17.7269 8.26612 20.1172 10.6565 23.0552 10.6565C25.9932 10.6565 28.3835 8.26629 28.3835 5.32826V3.28125H29.7934C31.7261 6.76102 33.4645 10.0925 34.9919 13.3814H11.1185C12.6459 10.0926 14.3843 6.76102 16.317 3.28125ZM3.48828 47.2195C3.48828 35.4186 5.67934 26.0708 9.6608 16.6628H36.4493C40.4306 26.0707 42.6216 35.4185 42.6216 47.2195C42.6216 50.915 42.4042 54.78 41.9754 58.7167C36.9252 60.5261 33.1342 64.8741 32.3552 70.1792C28.0906 71.7191 25.1019 75.7426 25.1019 80.1439C25.1019 80.3358 25.1075 80.5276 25.1184 80.7189H9.25163C5.78614 72.6379 3.48828 59.3739 3.48828 47.2195ZM72.4141 80.7188H28.4077C28.3913 80.5278 28.3833 80.336 28.3833 80.1437C28.3833 76.8554 30.8564 73.8616 34.2638 73.0252C34.9606 72.8541 35.4652 72.2503 35.5102 71.5344C35.8767 65.679 41.0189 61.0921 47.2172 61.0921C50.146 61.0921 53.1064 62.1574 55.3397 64.0149C55.9983 64.5627 56.9672 64.5113 57.5643 63.8982C58.9068 62.5195 60.7057 61.7602 62.6297 61.7602C66.5277 61.7602 69.6988 64.9313 69.6988 68.8293C69.6988 69.7843 69.5121 70.71 69.144 71.5803C68.8678 72.2329 69.0421 72.9891 69.5759 73.4554C71.4133 75.0596 72.5104 77.3332 72.5104 79.537C72.51 79.9345 72.4777 80.3293 72.4141 80.7188Z" fill="url(#paint0_linear)" fill-opacity="0.5"/>
<path d="M36.0553 55.2433V37.77C36.0553 36.8641 35.3208 36.1294 34.4147 36.1294H11.6948C10.7889 36.1294 10.0542 36.8641 10.0542 37.77V55.2433C10.0542 56.1493 10.7889 56.8839 11.6948 56.8839H34.4147C35.3208 56.8839 36.0553 56.1493 36.0553 55.2433ZM32.7741 53.6027H13.3354V39.4106H32.7741V53.6027Z" fill="#00C2FF"/>
<path d="M36.0553 55.2433V37.77C36.0553 36.8641 35.3208 36.1294 34.4147 36.1294H11.6948C10.7889 36.1294 10.0542 36.8641 10.0542 37.77V55.2433C10.0542 56.1493 10.7889 56.8839 11.6948 56.8839H34.4147C35.3208 56.8839 36.0553 56.1493 36.0553 55.2433ZM32.7741 53.6027H13.3354V39.4106H32.7741V53.6027Z" fill="url(#paint1_linear)" fill-opacity="0.5"/>
<defs>
<linearGradient id="paint0_linear" x1="37.999" y1="0" x2="37.999" y2="83.9998" gradientUnits="userSpaceOnUse">
<stop stop-color="#00C2FF"/>
<stop offset="1" stop-color="#00FFF0"/>
</linearGradient>
<linearGradient id="paint1_linear" x1="23.0548" y1="36.1294" x2="23.0548" y2="56.8839" gradientUnits="userSpaceOnUse">
<stop stop-color="#00C2FF"/>
<stop offset="1" stop-color="#00FFF0"/>
</linearGradient>
</defs>
</svg>
