<svg width="74" height="58" viewBox="0 0 74 58" fill="none" xmlns="http://www.w3.org/2000/svg">
<path d="M24.9062 46.1297C25.3297 45.7062 25.3297 45.0197 24.9062 44.5968C24.4828 44.1734 23.7963 44.1734 23.3734 44.5968C21.7192 46.2511 19.0273 46.2511 17.3731 44.5968C16.9497 44.1734 16.2637 44.1734 15.8403 44.5968C15.4169 45.0203 15.4169 45.7062 15.8403 46.1297C17.0897 47.3796 18.7315 48.0041 20.3733 48.0041C22.0145 48.0041 23.6563 47.3796 24.9062 46.1297ZM9.15685 28.6244C10.5248 28.6244 11.8109 28.0921 12.7786 27.1244C13.202 26.7009 13.202 26.015 12.778 25.5916C12.3552 25.1681 11.6686 25.1681 11.2452 25.5916C10.6874 26.1494 9.94612 26.4565 9.15685 26.4565C8.36813 26.4565 7.62628 26.1494 7.06848 25.5916C6.64505 25.1681 5.95909 25.1681 5.53566 25.5916C5.11223 26.015 5.11223 26.7009 5.53566 27.1244C6.50278 28.0921 7.78888 28.6244 9.15685 28.6244ZM58.5352 54.9941H11.8307C6.50278 54.9941 2.16797 50.6598 2.16797 45.3319V23.2164C2.16797 22.3356 2.51123 21.5069 3.13396 20.8836L4.89938 19.1181C5.32281 18.6953 5.32281 18.0087 4.89995 17.5853C4.47652 17.1619 3.78999 17.1619 3.36656 17.5853L1.60114 19.3507C0.568527 20.3833 0 21.7564 0 23.2164V45.3319C0 51.855 5.30701 57.1626 11.8307 57.1626H58.5352C59.1342 57.1626 59.6191 56.6771 59.6191 56.0786C59.6191 55.4796 59.1342 54.9941 58.5352 54.9941ZM49.5499 49.4358C49.9734 49.0124 49.9734 48.3264 49.5499 47.903C49.1265 47.4796 48.44 47.4796 48.0171 47.903C47.2154 48.7041 46.1501 49.1456 45.017 49.1456C43.8839 49.1456 42.8185 48.7041 42.0168 47.903C41.5934 47.4796 40.9074 47.4796 40.484 47.903C40.0606 48.3264 40.0606 49.0124 40.484 49.4358C41.695 50.6468 43.3046 51.3136 45.017 51.3136C46.7293 51.3136 48.3389 50.6468 49.5499 49.4358ZM39.0816 12.101L37.9022 13.281C37.4788 13.7039 37.4788 14.3904 37.9022 14.8138C38.1139 15.0255 38.3911 15.1311 38.6689 15.1311C38.9461 15.1311 39.2233 15.0255 39.435 14.8138L40.6144 13.6339C41.0378 13.211 41.0378 12.5245 40.615 12.101C40.191 11.6782 39.505 11.6782 39.0816 12.101ZM53.2925 26.3119L52.1131 27.4919C51.6897 27.9148 51.6897 28.6013 52.1131 29.0247C52.3248 29.2364 52.602 29.342 52.8798 29.342C53.157 29.342 53.4348 29.2364 53.6465 29.0247L54.8259 27.8453C55.2488 27.4219 55.2488 26.7354 54.8253 26.3125C54.4019 25.8885 53.7159 25.8885 53.2925 26.3119ZM66.9067 38.7812C66.4832 38.3577 65.7973 38.3577 65.3739 38.7812C64.5722 39.5823 63.5068 40.0238 62.3737 40.0238C61.2406 40.0238 60.1752 39.5823 59.3736 38.7812C58.9501 38.3577 58.2642 38.3577 57.8407 38.7812C57.4173 39.2046 57.4173 39.8905 57.8407 40.314C59.0517 41.525 60.6613 42.1918 62.3737 42.1918C64.0861 42.1918 65.6957 41.525 66.9067 40.314C67.3301 39.8905 67.3301 39.204 66.9067 38.7812ZM47.5209 21.9969C46.8168 22.0455 46.1309 21.788 45.6346 21.2917C45.1384 20.7955 44.8815 20.1084 44.93 19.4061C44.9707 18.8087 44.5201 18.291 43.9228 18.2504C43.3272 18.2092 42.8078 18.6603 42.7671 19.257C42.6757 20.5849 43.1623 21.8857 44.1018 22.8251C44.9667 23.6895 46.1371 24.1705 47.3532 24.1705C47.4582 24.1705 47.5638 24.1671 47.6693 24.1598C48.2667 24.1186 48.7178 23.6014 48.6765 23.0041C48.6359 22.4068 48.1171 21.9574 47.5209 21.9969ZM72.3989 19.3507L69.1926 16.1451C67.7868 14.7387 65.9085 13.9686 63.9427 13.9698C62.8293 11.6889 61.2773 9.52487 59.3397 7.58725C55.4588 3.70636 50.6695 1.37128 45.8537 1.01108C40.7251 0.628298 36.0047 2.43212 32.2068 6.23001C29.9677 8.46912 28.3693 11.1187 27.4875 13.9895C25.9716 14.1002 24.5195 14.6721 23.3384 15.6285C22.7484 13.731 22.3803 11.6228 22.2838 9.43228C22.1855 7.20899 20.2959 5.47856 18.0743 5.57793C16.9971 5.62479 16.0029 6.08887 15.2746 6.88436C14.5463 7.67984 14.1714 8.71076 14.2188 9.78796C14.3114 11.8927 14.5943 13.9421 15.0521 15.8922C13.1258 14.1465 10.4266 13.5283 7.91647 14.2831C7.34343 14.4553 7.01823 15.06 7.19043 15.633C7.36319 16.2066 7.96785 16.5318 8.54089 16.3591C10.4029 15.7996 12.4122 16.3043 13.7858 17.6779C14.4424 18.3345 15.1989 18.8505 16.0379 19.2198C16.7312 21.1342 17.6097 22.9098 18.6558 24.4968C17.6051 25.1681 16.6188 25.958 15.7144 26.8624C13.1557 29.4211 11.7505 32.3744 11.5377 35.6399C11.5156 35.9826 11.6568 36.3157 11.9187 36.5375C12.1813 36.7594 12.5324 36.8441 12.8672 36.7656C14.3521 36.4173 15.8815 36.852 16.9576 37.9281C18.2318 39.2023 19.9052 39.8397 21.5792 39.8397C23.2532 39.8397 24.9266 39.2023 26.2008 37.9281C27.9036 36.2253 30.6751 36.2253 32.3778 37.9281C34.692 40.2423 38.39 40.4834 40.9808 38.4887H40.9814C41.2117 38.3109 41.4268 38.1223 41.6216 37.9281C42.4465 37.1032 43.5434 36.6488 44.7098 36.6488C45.8768 36.6488 46.9738 37.1032 47.7986 37.9281C48.7821 38.9116 50.0276 39.5456 51.4001 39.7613C51.4559 39.7703 51.5118 39.7748 51.5683 39.7748C51.6524 39.7748 51.7365 39.7646 51.819 39.7455C55.1229 38.9607 58.1925 37.2229 60.6964 34.7196C64.4937 30.9217 66.2986 26.203 65.9147 21.0727C65.7928 19.4411 65.4439 17.8128 64.8849 16.2219C65.9254 16.411 66.8926 16.9101 67.6598 17.6779L70.8655 20.8836C71.4888 21.5063 71.832 22.3351 71.832 23.2164V45.3314C71.832 50.1331 68.2515 54.2477 63.5029 54.9026C62.91 54.9845 62.4957 55.5315 62.5775 56.1249C62.652 56.6675 63.1167 57.061 63.6496 57.061C63.6993 57.061 63.749 57.0576 63.7993 57.0508C69.6144 56.2486 74 51.2108 74 45.3319V23.2164C74 21.7564 73.4315 20.3833 72.3989 19.3507ZM40.082 3.8125C40.6867 4.88463 41.3484 5.92853 42.049 6.94025C39.3458 6.94194 37.2032 6.59191 35.5869 6.15605C36.9865 5.10312 38.4927 4.31836 40.082 3.8125ZM24.2982 17.6779C25.0282 16.9479 25.9541 16.4556 26.95 16.2484C26.7338 17.5136 26.6496 18.8099 26.7055 20.1225C26.7304 20.7012 26.7829 21.2771 26.8597 21.8501C26.8501 21.8507 26.8405 21.8512 26.8309 21.8518C25.7858 20.8164 24.8808 19.4332 24.1582 17.8128C24.2056 17.7682 24.2525 17.7236 24.2982 17.6779ZM16.3851 9.69255C16.3631 9.19403 16.5364 8.71697 16.8735 8.3483C17.2105 7.9802 17.6706 7.76566 18.1692 7.7442C19.1995 7.70017 20.0729 8.49904 20.1181 9.52826C20.2491 12.4996 20.8526 15.3524 21.8231 17.8202C21.8412 17.8766 21.8632 17.932 21.8908 17.9856C22.5339 19.5816 23.3316 21.0112 24.2553 22.2001C22.976 22.4728 21.7378 22.8912 20.5613 23.4456C18.124 19.8035 16.6121 14.8505 16.3851 9.69255ZM18.491 36.3953C17.2455 35.1504 15.5958 34.4791 13.8857 34.4791H13.8671C14.2296 32.5782 15.1159 30.8071 16.5099 29.1913L24.1542 36.8356C22.4469 38.0828 20.0317 37.9366 18.491 36.3953ZM33.9112 36.3953C31.7263 34.2104 28.3671 33.901 25.8474 35.4626L18.041 27.6568C18.8608 26.9448 19.7443 26.3311 20.6787 25.8196C20.7086 25.8055 20.7385 25.7886 20.7679 25.7711C22.7546 24.7007 24.9661 24.0937 27.2735 24.0017C28.1881 27.6432 30.1534 31.0724 33.0034 33.923C34.4679 35.3869 36.0797 36.616 37.8141 37.5955C36.4343 37.8553 34.9602 37.4442 33.9112 36.3953ZM51.5344 37.5831C50.6983 37.4115 49.9401 37.0039 49.332 36.3953C48.0973 35.1611 46.4561 34.4808 44.7104 34.4808C42.9834 34.4808 41.3585 35.1464 40.1289 36.3557C38.0862 35.3926 36.2073 34.0607 34.5373 32.3896C31.7703 29.6232 29.931 26.2628 29.2055 22.7224C29.2027 22.7038 29.1981 22.6851 29.1942 22.6671C29.0186 21.797 28.9096 20.9157 28.8724 20.0305C28.6787 15.4857 30.3826 11.1582 33.6718 7.83341C35.5417 8.48154 38.3092 9.10822 42.0287 9.10822C42.5396 9.10822 43.0686 9.09636 43.6151 9.07095C45.8294 11.9277 48.252 14.4683 50.355 16.5713C52.4586 18.6749 54.9992 21.0975 57.856 23.3118C57.6471 27.838 58.3556 31.1283 59.093 33.2557C56.9126 35.4129 54.3714 36.8689 51.5344 37.5831ZM60.7709 31.3401C60.3345 29.7231 59.9844 27.5811 59.9867 24.8774C60.9978 25.5786 62.0423 26.2402 63.1144 26.8443C62.608 28.4336 61.8232 29.9405 60.7709 31.3401ZM63.6288 24.6391C62.2534 23.8295 60.925 22.92 59.6541 21.9585C59.6338 21.9421 59.6129 21.9263 59.5915 21.9111C56.6596 19.6855 54.04 17.1912 51.8878 15.0391C49.7396 12.8909 47.2504 10.2769 45.0277 7.35126C45.0057 7.31908 44.9825 7.28803 44.9571 7.25867C44.0002 5.99233 43.094 4.66783 42.2878 3.29817C43.3938 3.12993 44.5314 3.08702 45.6922 3.1734C49.9909 3.49465 54.2929 5.60672 57.8063 9.12007C61.3202 12.634 63.4323 16.9361 63.7535 21.2347C63.8399 22.3955 63.797 23.5325 63.6288 24.6391Z" fill="#00C2FF"/>
<path d="M24.9062 46.1297C25.3297 45.7062 25.3297 45.0197 24.9062 44.5968C24.4828 44.1734 23.7963 44.1734 23.3734 44.5968C21.7192 46.2511 19.0273 46.2511 17.3731 44.5968C16.9497 44.1734 16.2637 44.1734 15.8403 44.5968C15.4169 45.0203 15.4169 45.7062 15.8403 46.1297C17.0897 47.3796 18.7315 48.0041 20.3733 48.0041C22.0145 48.0041 23.6563 47.3796 24.9062 46.1297ZM9.15685 28.6244C10.5248 28.6244 11.8109 28.0921 12.7786 27.1244C13.202 26.7009 13.202 26.015 12.778 25.5916C12.3552 25.1681 11.6686 25.1681 11.2452 25.5916C10.6874 26.1494 9.94612 26.4565 9.15685 26.4565C8.36813 26.4565 7.62628 26.1494 7.06848 25.5916C6.64505 25.1681 5.95909 25.1681 5.53566 25.5916C5.11223 26.015 5.11223 26.7009 5.53566 27.1244C6.50278 28.0921 7.78888 28.6244 9.15685 28.6244ZM58.5352 54.9941H11.8307C6.50278 54.9941 2.16797 50.6598 2.16797 45.3319V23.2164C2.16797 22.3356 2.51123 21.5069 3.13396 20.8836L4.89938 19.1181C5.32281 18.6953 5.32281 18.0087 4.89995 17.5853C4.47652 17.1619 3.78999 17.1619 3.36656 17.5853L1.60114 19.3507C0.568527 20.3833 0 21.7564 0 23.2164V45.3319C0 51.855 5.30701 57.1626 11.8307 57.1626H58.5352C59.1342 57.1626 59.6191 56.6771 59.6191 56.0786C59.6191 55.4796 59.1342 54.9941 58.5352 54.9941ZM49.5499 49.4358C49.9734 49.0124 49.9734 48.3264 49.5499 47.903C49.1265 47.4796 48.44 47.4796 48.0171 47.903C47.2154 48.7041 46.1501 49.1456 45.017 49.1456C43.8839 49.1456 42.8185 48.7041 42.0168 47.903C41.5934 47.4796 40.9074 47.4796 40.484 47.903C40.0606 48.3264 40.0606 49.0124 40.484 49.4358C41.695 50.6468 43.3046 51.3136 45.017 51.3136C46.7293 51.3136 48.3389 50.6468 49.5499 49.4358ZM39.0816 12.101L37.9022 13.281C37.4788 13.7039 37.4788 14.3904 37.9022 14.8138C38.1139 15.0255 38.3911 15.1311 38.6689 15.1311C38.9461 15.1311 39.2233 15.0255 39.435 14.8138L40.6144 13.6339C41.0378 13.211 41.0378 12.5245 40.615 12.101C40.191 11.6782 39.505 11.6782 39.0816 12.101ZM53.2925 26.3119L52.1131 27.4919C51.6897 27.9148 51.6897 28.6013 52.1131 29.0247C52.3248 29.2364 52.602 29.342 52.8798 29.342C53.157 29.342 53.4348 29.2364 53.6465 29.0247L54.8259 27.8453C55.2488 27.4219 55.2488 26.7354 54.8253 26.3125C54.4019 25.8885 53.7159 25.8885 53.2925 26.3119ZM66.9067 38.7812C66.4832 38.3577 65.7973 38.3577 65.3739 38.7812C64.5722 39.5823 63.5068 40.0238 62.3737 40.0238C61.2406 40.0238 60.1752 39.5823 59.3736 38.7812C58.9501 38.3577 58.2642 38.3577 57.8407 38.7812C57.4173 39.2046 57.4173 39.8905 57.8407 40.314C59.0517 41.525 60.6613 42.1918 62.3737 42.1918C64.0861 42.1918 65.6957 41.525 66.9067 40.314C67.3301 39.8905 67.3301 39.204 66.9067 38.7812ZM47.5209 21.9969C46.8168 22.0455 46.1309 21.788 45.6346 21.2917C45.1384 20.7955 44.8815 20.1084 44.93 19.4061C44.9707 18.8087 44.5201 18.291 43.9228 18.2504C43.3272 18.2092 42.8078 18.6603 42.7671 19.257C42.6757 20.5849 43.1623 21.8857 44.1018 22.8251C44.9667 23.6895 46.1371 24.1705 47.3532 24.1705C47.4582 24.1705 47.5638 24.1671 47.6693 24.1598C48.2667 24.1186 48.7178 23.6014 48.6765 23.0041C48.6359 22.4068 48.1171 21.9574 47.5209 21.9969ZM72.3989 19.3507L69.1926 16.1451C67.7868 14.7387 65.9085 13.9686 63.9427 13.9698C62.8293 11.6889 61.2773 9.52487 59.3397 7.58725C55.4588 3.70636 50.6695 1.37128 45.8537 1.01108C40.7251 0.628298 36.0047 2.43212 32.2068 6.23001C29.9677 8.46912 28.3693 11.1187 27.4875 13.9895C25.9716 14.1002 24.5195 14.6721 23.3384 15.6285C22.7484 13.731 22.3803 11.6228 22.2838 9.43228C22.1855 7.20899 20.2959 5.47856 18.0743 5.57793C16.9971 5.62479 16.0029 6.08887 15.2746 6.88436C14.5463 7.67984 14.1714 8.71076 14.2188 9.78796C14.3114 11.8927 14.5943 13.9421 15.0521 15.8922C13.1258 14.1465 10.4266 13.5283 7.91647 14.2831C7.34343 14.4553 7.01823 15.06 7.19043 15.633C7.36319 16.2066 7.96785 16.5318 8.54089 16.3591C10.4029 15.7996 12.4122 16.3043 13.7858 17.6779C14.4424 18.3345 15.1989 18.8505 16.0379 19.2198C16.7312 21.1342 17.6097 22.9098 18.6558 24.4968C17.6051 25.1681 16.6188 25.958 15.7144 26.8624C13.1557 29.4211 11.7505 32.3744 11.5377 35.6399C11.5156 35.9826 11.6568 36.3157 11.9187 36.5375C12.1813 36.7594 12.5324 36.8441 12.8672 36.7656C14.3521 36.4173 15.8815 36.852 16.9576 37.9281C18.2318 39.2023 19.9052 39.8397 21.5792 39.8397C23.2532 39.8397 24.9266 39.2023 26.2008 37.9281C27.9036 36.2253 30.6751 36.2253 32.3778 37.9281C34.692 40.2423 38.39 40.4834 40.9808 38.4887H40.9814C41.2117 38.3109 41.4268 38.1223 41.6216 37.9281C42.4465 37.1032 43.5434 36.6488 44.7098 36.6488C45.8768 36.6488 46.9738 37.1032 47.7986 37.9281C48.7821 38.9116 50.0276 39.5456 51.4001 39.7613C51.4559 39.7703 51.5118 39.7748 51.5683 39.7748C51.6524 39.7748 51.7365 39.7646 51.819 39.7455C55.1229 38.9607 58.1925 37.2229 60.6964 34.7196C64.4937 30.9217 66.2986 26.203 65.9147 21.0727C65.7928 19.4411 65.4439 17.8128 64.8849 16.2219C65.9254 16.411 66.8926 16.9101 67.6598 17.6779L70.8655 20.8836C71.4888 21.5063 71.832 22.3351 71.832 23.2164V45.3314C71.832 50.1331 68.2515 54.2477 63.5029 54.9026C62.91 54.9845 62.4957 55.5315 62.5775 56.1249C62.652 56.6675 63.1167 57.061 63.6496 57.061C63.6993 57.061 63.749 57.0576 63.7993 57.0508C69.6144 56.2486 74 51.2108 74 45.3319V23.2164C74 21.7564 73.4315 20.3833 72.3989 19.3507ZM40.082 3.8125C40.6867 4.88463 41.3484 5.92853 42.049 6.94025C39.3458 6.94194 37.2032 6.59191 35.5869 6.15605C36.9865 5.10312 38.4927 4.31836 40.082 3.8125ZM24.2982 17.6779C25.0282 16.9479 25.9541 16.4556 26.95 16.2484C26.7338 17.5136 26.6496 18.8099 26.7055 20.1225C26.7304 20.7012 26.7829 21.2771 26.8597 21.8501C26.8501 21.8507 26.8405 21.8512 26.8309 21.8518C25.7858 20.8164 24.8808 19.4332 24.1582 17.8128C24.2056 17.7682 24.2525 17.7236 24.2982 17.6779ZM16.3851 9.69255C16.3631 9.19403 16.5364 8.71697 16.8735 8.3483C17.2105 7.9802 17.6706 7.76566 18.1692 7.7442C19.1995 7.70017 20.0729 8.49904 20.1181 9.52826C20.2491 12.4996 20.8526 15.3524 21.8231 17.8202C21.8412 17.8766 21.8632 17.932 21.8908 17.9856C22.5339 19.5816 23.3316 21.0112 24.2553 22.2001C22.976 22.4728 21.7378 22.8912 20.5613 23.4456C18.124 19.8035 16.6121 14.8505 16.3851 9.69255ZM18.491 36.3953C17.2455 35.1504 15.5958 34.4791 13.8857 34.4791H13.8671C14.2296 32.5782 15.1159 30.8071 16.5099 29.1913L24.1542 36.8356C22.4469 38.0828 20.0317 37.9366 18.491 36.3953ZM33.9112 36.3953C31.7263 34.2104 28.3671 33.901 25.8474 35.4626L18.041 27.6568C18.8608 26.9448 19.7443 26.3311 20.6787 25.8196C20.7086 25.8055 20.7385 25.7886 20.7679 25.7711C22.7546 24.7007 24.9661 24.0937 27.2735 24.0017C28.1881 27.6432 30.1534 31.0724 33.0034 33.923C34.4679 35.3869 36.0797 36.616 37.8141 37.5955C36.4343 37.8553 34.9602 37.4442 33.9112 36.3953ZM51.5344 37.5831C50.6983 37.4115 49.9401 37.0039 49.332 36.3953C48.0973 35.1611 46.4561 34.4808 44.7104 34.4808C42.9834 34.4808 41.3585 35.1464 40.1289 36.3557C38.0862 35.3926 36.2073 34.0607 34.5373 32.3896C31.7703 29.6232 29.931 26.2628 29.2055 22.7224C29.2027 22.7038 29.1981 22.6851 29.1942 22.6671C29.0186 21.797 28.9096 20.9157 28.8724 20.0305C28.6787 15.4857 30.3826 11.1582 33.6718 7.83341C35.5417 8.48154 38.3092 9.10822 42.0287 9.10822C42.5396 9.10822 43.0686 9.09636 43.6151 9.07095C45.8294 11.9277 48.252 14.4683 50.355 16.5713C52.4586 18.6749 54.9992 21.0975 57.856 23.3118C57.6471 27.838 58.3556 31.1283 59.093 33.2557C56.9126 35.4129 54.3714 36.8689 51.5344 37.5831ZM60.7709 31.3401C60.3345 29.7231 59.9844 27.5811 59.9867 24.8774C60.9978 25.5786 62.0423 26.2402 63.1144 26.8443C62.608 28.4336 61.8232 29.9405 60.7709 31.3401ZM63.6288 24.6391C62.2534 23.8295 60.925 22.92 59.6541 21.9585C59.6338 21.9421 59.6129 21.9263 59.5915 21.9111C56.6596 19.6855 54.04 17.1912 51.8878 15.0391C49.7396 12.8909 47.2504 10.2769 45.0277 7.35126C45.0057 7.31908 44.9825 7.28803 44.9571 7.25867C44.0002 5.99233 43.094 4.66783 42.2878 3.29817C43.3938 3.12993 44.5314 3.08702 45.6922 3.1734C49.9909 3.49465 54.2929 5.60672 57.8063 9.12007C61.3202 12.634 63.4323 16.9361 63.7535 21.2347C63.8399 22.3955 63.797 23.5325 63.6288 24.6391Z" fill="url(#paint0_linear)" fill-opacity="0.5"/>
<defs>
<linearGradient id="paint0_linear" x1="37" y1="0.960693" x2="37" y2="57.1626" gradientUnits="userSpaceOnUse">
<stop stop-color="#00C2FF"/>
<stop offset="1" stop-color="#00FFF0"/>
</linearGradient>
</defs>
</svg>
