<svg width="65" height="69" viewBox="0 0 65 69" fill="none" xmlns="http://www.w3.org/2000/svg">
<path fill-rule="evenodd" clip-rule="evenodd" d="M63.9083 28.7546C63.5955 28.502 63.1855 28.4043 62.7932 28.4885L42.4914 32.8321L40.2144 32.3452L46.2223 20.3111C46.2322 20.2914 46.2415 20.2717 46.2504 20.2519C47.0568 18.4161 47.4658 16.4628 47.4658 14.4456C47.4658 6.48026 40.986 0 33.0207 0C25.0553 0 18.5751 6.48026 18.5751 14.4456C18.5751 16.4628 18.984 18.4161 19.791 20.2519C19.7998 20.2717 19.8087 20.2914 19.8185 20.3111L24.1065 28.8985L22.1891 28.4885C22.1714 28.4843 22.1532 28.4828 22.135 28.4802C22.1091 28.4755 22.0836 28.4708 22.0576 28.4677C22.0337 28.4651 22.0103 28.4646 21.9869 28.463C21.961 28.4615 21.9355 28.4594 21.91 28.4594C21.8856 28.4594 21.8617 28.4615 21.8373 28.4625C21.8123 28.4641 21.7874 28.4651 21.763 28.4677C21.7375 28.4708 21.7126 28.4755 21.6876 28.4797C21.6689 28.4828 21.6507 28.4843 21.632 28.488L1.05172 32.8918C0.438565 33.0228 0 33.5653 0 34.1924V45.1643C0 45.8991 0.595492 46.4946 1.33024 46.4946C2.06499 46.4946 2.66049 45.8991 2.66049 45.1643V35.2681L20.5803 31.4343V61.2993L2.66049 65.1331V55.8063C2.66049 55.0715 2.06499 54.4761 1.33024 54.4761C0.595492 54.4761 0 55.0715 0 55.8063V66.7782C0 67.1799 0.18135 67.5602 0.493645 67.8123C0.732673 68.0056 1.02834 68.1084 1.33024 68.1084C1.42274 68.1084 1.51627 68.0986 1.60876 68.0788L21.9106 63.7353L42.2129 68.0788C42.2201 68.0804 42.2274 68.0814 42.2347 68.0825C42.2643 68.0882 42.2939 68.0929 42.3236 68.0965C42.3371 68.0981 42.3501 68.1001 42.3636 68.1017C42.4057 68.1058 42.4483 68.1084 42.4914 68.1084C42.534 68.1084 42.5766 68.1058 42.6187 68.1017C42.6322 68.1001 42.6457 68.0981 42.6587 68.0965C42.6883 68.0929 42.7179 68.0882 42.747 68.0825C42.7543 68.0809 42.7621 68.0804 42.7694 68.0788L63.3497 63.6755C63.9634 63.544 64.4019 63.0021 64.4019 62.3749V51.403C64.4019 50.6682 63.8065 50.0727 63.0717 50.0727C62.337 50.0727 61.7415 50.6682 61.7415 51.403V61.2987L43.8216 65.1331V35.2681L61.7415 31.4343V40.761C61.7415 41.4958 62.337 42.0913 63.0717 42.0913C63.8065 42.0913 64.4019 41.4958 64.4019 40.761V29.7891C64.4019 29.3875 64.2206 29.0076 63.9083 28.7546ZM21.2356 14.4456C21.2356 7.94716 26.5222 2.66049 33.0207 2.66049C39.5191 2.66049 44.8058 7.94716 44.8058 14.4456C44.8058 16.0814 44.4764 17.6647 43.8274 19.1524L33.0207 40.7974L22.214 19.1524C21.5645 17.6647 21.2356 16.0814 21.2356 14.4456ZM23.2408 31.4343L25.6269 31.9445L31.8307 44.3693C32.0557 44.8204 32.5166 45.1056 33.0207 45.1056C33.5247 45.1056 33.9856 44.8204 34.2112 44.3693L38.987 34.803L41.1611 35.2681V65.1331L23.2413 61.2987V31.4343H23.2408Z" fill="#00C2FF"/>
<path fill-rule="evenodd" clip-rule="evenodd" d="M63.9083 28.7546C63.5955 28.502 63.1855 28.4043 62.7932 28.4885L42.4914 32.8321L40.2144 32.3452L46.2223 20.3111C46.2322 20.2914 46.2415 20.2717 46.2504 20.2519C47.0568 18.4161 47.4658 16.4628 47.4658 14.4456C47.4658 6.48026 40.986 0 33.0207 0C25.0553 0 18.5751 6.48026 18.5751 14.4456C18.5751 16.4628 18.984 18.4161 19.791 20.2519C19.7998 20.2717 19.8087 20.2914 19.8185 20.3111L24.1065 28.8985L22.1891 28.4885C22.1714 28.4843 22.1532 28.4828 22.135 28.4802C22.1091 28.4755 22.0836 28.4708 22.0576 28.4677C22.0337 28.4651 22.0103 28.4646 21.9869 28.463C21.961 28.4615 21.9355 28.4594 21.91 28.4594C21.8856 28.4594 21.8617 28.4615 21.8373 28.4625C21.8123 28.4641 21.7874 28.4651 21.763 28.4677C21.7375 28.4708 21.7126 28.4755 21.6876 28.4797C21.6689 28.4828 21.6507 28.4843 21.632 28.488L1.05172 32.8918C0.438565 33.0228 0 33.5653 0 34.1924V45.1643C0 45.8991 0.595492 46.4946 1.33024 46.4946C2.06499 46.4946 2.66049 45.8991 2.66049 45.1643V35.2681L20.5803 31.4343V61.2993L2.66049 65.1331V55.8063C2.66049 55.0715 2.06499 54.4761 1.33024 54.4761C0.595492 54.4761 0 55.0715 0 55.8063V66.7782C0 67.1799 0.18135 67.5602 0.493645 67.8123C0.732673 68.0056 1.02834 68.1084 1.33024 68.1084C1.42274 68.1084 1.51627 68.0986 1.60876 68.0788L21.9106 63.7353L42.2129 68.0788C42.2201 68.0804 42.2274 68.0814 42.2347 68.0825C42.2643 68.0882 42.2939 68.0929 42.3236 68.0965C42.3371 68.0981 42.3501 68.1001 42.3636 68.1017C42.4057 68.1058 42.4483 68.1084 42.4914 68.1084C42.534 68.1084 42.5766 68.1058 42.6187 68.1017C42.6322 68.1001 42.6457 68.0981 42.6587 68.0965C42.6883 68.0929 42.7179 68.0882 42.747 68.0825C42.7543 68.0809 42.7621 68.0804 42.7694 68.0788L63.3497 63.6755C63.9634 63.544 64.4019 63.0021 64.4019 62.3749V51.403C64.4019 50.6682 63.8065 50.0727 63.0717 50.0727C62.337 50.0727 61.7415 50.6682 61.7415 51.403V61.2987L43.8216 65.1331V35.2681L61.7415 31.4343V40.761C61.7415 41.4958 62.337 42.0913 63.0717 42.0913C63.8065 42.0913 64.4019 41.4958 64.4019 40.761V29.7891C64.4019 29.3875 64.2206 29.0076 63.9083 28.7546ZM21.2356 14.4456C21.2356 7.94716 26.5222 2.66049 33.0207 2.66049C39.5191 2.66049 44.8058 7.94716 44.8058 14.4456C44.8058 16.0814 44.4764 17.6647 43.8274 19.1524L33.0207 40.7974L22.214 19.1524C21.5645 17.6647 21.2356 16.0814 21.2356 14.4456ZM23.2408 31.4343L25.6269 31.9445L31.8307 44.3693C32.0557 44.8204 32.5166 45.1056 33.0207 45.1056C33.5247 45.1056 33.9856 44.8204 34.2112 44.3693L38.987 34.803L41.1611 35.2681V65.1331L23.2413 61.2987V31.4343H23.2408Z" fill="url(#paint0_linear)" fill-opacity="0.5"/>
<defs>
<linearGradient id="paint0_linear" x1="32.201" y1="0" x2="32.201" y2="68.1084" gradientUnits="userSpaceOnUse">
<stop stop-color="#00C2FF"/>
<stop offset="1" stop-color="#00FFF0"/>
</linearGradient>
</defs>
</svg>
