<svg width="74" height="74" viewBox="0 0 74 74" fill="none" xmlns="http://www.w3.org/2000/svg">
<path d="M50.2319 39.1498C50.8303 39.1498 51.3158 38.6648 51.3158 38.0658V36.0667C51.3158 35.4677 50.8303 34.9827 50.2319 34.9827C49.6328 34.9827 49.1479 35.4677 49.1479 36.0667V38.0658C49.1479 38.6648 49.6328 39.1498 50.2319 39.1498ZM71.7478 44.2874C70.8546 43.3937 69.7774 42.7467 68.6014 42.3814C69.4979 41.1354 69.9902 39.6404 69.9902 38.0664C69.9902 35.2486 68.3507 32.6623 65.8361 31.3943C65.9276 29.6514 65.669 27.7663 65.0683 25.8897C65.5804 25.0586 65.6515 24.0362 65.2535 23.1391C64.7154 21.9269 64.0786 20.765 63.3593 19.6856C62.8089 18.859 61.8897 18.365 60.9012 18.365H60.6087C59.2458 16.8864 57.665 15.567 55.8962 14.4435C55.3915 14.1228 54.7213 14.2724 54.4001 14.7777C54.0794 15.283 54.229 15.9532 54.7338 16.2738C55.7297 16.9062 56.6573 17.6068 57.5143 18.365H54.0529C53.0265 18.365 51.2938 17.8569 49.2879 17.2681C46.1076 16.3348 42.1494 15.1729 38.1867 15.1729C34.2234 15.1729 30.2651 16.3348 27.0849 17.2681C25.079 17.8569 23.3463 18.365 22.3199 18.365H18.8528C20.6691 16.7554 22.8003 15.4275 25.2178 14.404C28.9773 12.813 33.3404 12.0062 38.1867 12.0062C42.7473 12.0062 46.8879 12.7227 50.4938 14.1347C51.0505 14.3526 51.68 14.0782 51.8985 13.521C52.1164 12.9632 51.8415 12.3342 51.2842 12.1163C47.4254 10.605 43.0189 9.83827 38.1867 9.83827C34.9432 9.83827 31.8962 10.1838 29.0761 10.8664C29.0298 10.6592 28.9694 10.4542 28.8927 10.2549C28.0543 8.08413 25.6565 6.96628 23.4705 7.68554C20.795 2.58518 16.6459 0 11.1227 0C3.96051 0 0.754294 4.99366 0.754294 9.94271C0.754294 10.876 1.00327 11.8747 1.2658 12.9316C1.84166 15.2435 2.43616 17.6339 0.522818 19.5535C0.0237348 20.0537 -0.132087 20.7752 0.116325 21.4369C0.364738 22.0986 0.95754 22.54 1.66326 22.5886C2.5073 22.6462 3.39706 22.7072 4.3145 22.7072C7.13398 22.7072 10.2182 22.1307 13.0648 19.1283C13.1196 19.217 13.1783 19.3033 13.2398 19.388C13.1585 19.4818 13.0829 19.5811 13.0135 19.6861C12.2942 20.7656 11.6568 21.9275 11.1193 23.1391C10.7213 24.0367 10.7924 25.0586 11.3045 25.8897C10.7032 27.7669 10.4401 29.6458 10.5338 31.3954C8.02092 32.664 6.38253 35.2497 6.38253 38.067C6.38253 42.1979 9.79933 45.5594 13.9992 45.5594C14.0534 45.5594 14.1093 45.5555 14.1641 45.5543C15.4643 48.3371 17.3003 50.854 19.6235 52.9875C20.4969 53.7898 21.4273 54.526 22.4051 55.1961C22.3425 55.2622 22.2809 55.3288 22.2194 55.396C22.194 55.4208 22.1703 55.4468 22.1483 55.4739C19.9131 57.9083 18.2527 60.8182 17.3121 63.9837C17.1416 64.5579 17.4691 65.1609 18.0427 65.3314C18.146 65.3619 18.2499 65.3765 18.3521 65.3765C18.819 65.3765 19.2509 65.0722 19.3909 64.6014C20.0622 62.3414 21.1411 60.2265 22.5621 58.3538C24.2818 63.6952 24.8661 66.7185 25.0276 69.1095H20.6064C20.0559 69.1095 19.5439 68.8611 19.2017 68.4286C18.8303 67.9589 18.1483 67.8799 17.6791 68.2508C17.2094 68.6223 17.1298 69.3043 17.5012 69.7734C18.2572 70.7293 19.3892 71.2775 20.6064 71.2775H47.4073L47.6659 71.536C49.2534 73.1242 51.3644 73.9981 53.6103 73.9981C55.8556 73.9981 57.9665 73.1242 59.5541 71.536L68.8667 62.2239C72.1802 58.9105 74.0507 54.3227 73.9987 49.6373C73.9761 47.6162 73.1773 45.7164 71.7478 44.2874ZM65.4799 33.6955C66.9178 34.6778 67.8223 36.31 67.8223 38.0664C67.8223 39.5975 67.1617 41.0265 65.9993 42.0382C65.1479 42.0483 64.3005 42.1217 63.4649 42.2555C64.1418 39.9752 64.4857 37.578 64.4857 35.1046C64.4857 35.0544 64.4851 35.0025 64.4851 34.9511C64.9475 34.6648 65.3043 34.2222 65.4799 33.6955ZM63.4282 32.996C63.4118 33.0643 63.3554 33.1179 63.2848 33.1315C60.3552 33.7017 57.0271 32.6561 53.3754 30.0257C54.6909 29.276 55.973 28.3704 57.0711 27.2898H62.5633C62.7806 27.2898 62.994 27.265 63.2007 27.2192C63.7596 29.2794 63.8449 31.2955 63.4282 32.996ZM38.1867 31.8674C33.0857 31.8674 26.0054 29.9433 21.8564 26.6575C25.1411 25.8022 31.2294 25.0411 38.1867 25.0411C45.1434 25.0411 51.2317 25.8022 54.517 26.6575C50.3679 29.9433 43.2876 31.8674 38.1867 31.8674ZM24.0413 9.78294C25.167 9.34765 26.4356 9.91053 26.8704 11.0352C26.9229 11.1712 26.9607 11.3095 26.985 11.4496C26.0884 11.733 25.2162 12.0508 24.3727 12.4076C20.9683 13.8484 18.0749 15.8521 15.7618 18.365H15.4716C15.3869 18.365 15.3028 18.3701 15.2192 18.3774C15.208 18.3662 15.1955 18.356 15.1842 18.3441C14.8026 17.9433 14.5931 17.4239 14.5847 16.8734C14.5841 16.8593 14.5847 16.8452 14.5835 16.8311C14.5835 16.8147 14.5818 16.7983 14.5824 16.782C14.5971 16.1976 14.8382 15.6545 15.261 15.2514C17.7017 12.9299 20.6555 11.0899 24.0413 9.78294ZM12.4252 16.5324C9.33525 20.5996 5.93144 20.682 2.59932 20.4777C4.71591 17.8163 3.94414 14.7162 3.36996 12.4082C3.13962 11.4834 2.92226 10.61 2.92226 9.94271C2.92226 9.0473 3.08655 6.75908 4.60808 4.85534C6.03362 3.07241 8.2253 2.16796 11.1227 2.16796C15.772 2.16796 19.1628 4.24955 21.4606 8.52111C18.5514 9.85577 15.9696 11.5851 13.7672 13.6808C12.9717 14.4373 12.5003 15.4439 12.4252 16.5324ZM13.101 24.0181C13.5893 22.9183 14.1663 21.8654 14.8178 20.8875C14.9178 20.7374 15.0634 20.629 15.2277 20.5742C15.248 20.5686 15.2684 20.5629 15.2881 20.5561C15.3474 20.5415 15.4089 20.533 15.4716 20.533H22.3205C23.6585 20.533 25.4397 20.0102 27.6952 19.3485C30.7428 18.4542 34.5356 17.3409 38.1867 17.3409C41.8378 17.3409 45.6306 18.4537 48.6776 19.3485C50.9336 20.0102 52.7149 20.533 54.0529 20.533H60.9012C61.1631 20.533 61.4076 20.6657 61.5555 20.8875C62.2065 21.8648 62.784 22.9183 63.2718 24.0181C63.4293 24.3732 63.2837 24.6617 63.2137 24.7696C63.1448 24.8757 62.9438 25.1218 62.5633 25.1218H56.8329C53.5369 23.8137 45.783 22.8731 38.1867 22.8731C30.5903 22.8731 22.8365 23.8137 19.5405 25.1218H13.8101C13.4295 25.1218 13.2286 24.8757 13.1597 24.7696C13.0897 24.6617 12.9434 24.3732 13.101 24.0181ZM8.55049 38.0664C8.55049 36.2383 9.53003 34.5457 11.0702 33.5797C11.287 33.9546 11.5653 34.2883 11.8939 34.5655C11.8894 34.7507 11.8877 34.9296 11.8877 35.1046C11.8877 37.9811 12.3591 40.7538 13.2641 43.3418C10.6061 42.9895 8.55049 40.7588 8.55049 38.0664ZM12.7543 31.9283C12.7532 31.9182 12.7521 31.908 12.7504 31.8984C12.5827 30.4441 12.7278 28.8458 13.1704 27.2187C13.3782 27.2644 13.5921 27.2898 13.8101 27.2898H19.3017C20.6719 28.6374 22.3289 29.7124 23.9775 30.5547C20.585 32.4816 17.0253 33.4843 14.1793 33.2754C13.4448 33.2212 12.8486 32.6561 12.7543 31.9283ZM21.0902 51.3903C16.6341 47.2983 14.146 41.6447 14.0596 35.4394C14.3554 35.4603 14.6552 35.4711 14.9601 35.4711C18.4633 35.4711 22.5429 34.1048 26.3747 31.6376C26.9855 31.8809 27.5727 32.0932 28.1169 32.275C31.4677 33.3934 35.138 34.0353 38.1867 34.0353C41.2354 34.0353 44.9057 33.394 48.2564 32.275C49.1552 31.9746 50.1698 31.5924 51.2187 31.1193C54.9353 33.9992 58.4464 35.4507 61.6927 35.4507C61.901 35.4507 62.1082 35.4428 62.3143 35.431C62.2799 38.0161 61.8372 40.5031 60.9943 42.837C58.3058 43.6777 55.824 45.1563 53.8118 47.1685L44.4986 56.4811C44.2852 56.6945 44.0859 56.9181 43.899 57.1496C42.0472 57.5431 40.1282 57.7452 38.1867 57.7452C34.9934 57.7452 31.9176 57.2094 29.0857 56.1887C29.0547 56.1762 29.0231 56.1644 28.9909 56.1548C27.4965 55.6094 26.0704 54.9291 24.7329 54.1195C24.7063 54.1014 24.6792 54.0845 24.6516 54.0687C23.3785 53.2913 22.1855 52.3964 21.0902 51.3903ZM42.041 62.5875C40.9057 63.1397 39.6128 63.4197 38.1867 63.4197C34.255 63.4197 31.9707 61.2941 30.6451 58.9438C33.0502 59.5817 35.5834 59.9126 38.1867 59.9126C39.6478 59.9126 41.0987 59.8059 42.522 59.5976C42.203 60.493 42.0371 61.4465 42.0371 62.4249C42.0371 62.4797 42.0399 62.5333 42.041 62.5875ZM27.1984 69.1095C26.9906 65.8525 26.111 62.1347 24.218 56.4421C24.2417 56.4179 24.2648 56.393 24.2891 56.3693C25.4194 57.0079 26.6027 57.564 27.8296 58.0348C29.7096 62.911 33.3703 65.5877 38.1867 65.5877C39.7014 65.5877 41.105 65.3257 42.3792 64.8086C42.771 66.1398 43.4903 67.3604 44.4992 68.3693L45.2393 69.1095H27.1984ZM67.3334 60.6906L58.0207 70.0032C56.8425 71.1815 55.2763 71.8302 53.6097 71.8302C51.9431 71.8302 50.377 71.1815 49.1987 70.0032L46.0314 66.836C45.0141 65.8186 44.3925 64.511 44.2417 63.0996C44.2395 63.0815 44.2378 63.0629 44.235 63.0448C44.2146 62.8405 44.2045 62.6333 44.2045 62.4249C44.2045 60.7589 44.8532 59.1928 46.032 58.0139L55.3446 48.7013C58.2087 45.8372 62.1596 44.2033 66.2076 44.2033C66.2629 44.2033 66.3188 44.2033 66.3736 44.2039C69.35 44.2372 71.7975 46.6852 71.8308 49.661C71.8765 53.7672 70.237 57.787 67.3334 60.6906ZM63.0658 59.4457L58.2048 64.3061C57.7813 64.7295 57.7813 65.416 58.2048 65.8395C58.4165 66.0506 58.6937 66.1568 58.9715 66.1568C59.2487 66.1568 59.5259 66.0506 59.7382 65.8395L64.5991 60.9785C65.022 60.5551 65.022 59.8685 64.5991 59.4457C64.1757 59.0223 63.4892 59.0223 63.0658 59.4457ZM38.1867 40.6855C39.7167 40.6855 41.1721 40.0226 42.1793 38.867C42.5728 38.4153 42.526 37.731 42.0743 37.3375C41.6227 36.944 40.9384 36.9914 40.5449 37.4425C39.9498 38.1257 39.09 38.5175 38.1867 38.5175C37.2834 38.5175 36.4235 38.1257 35.8284 37.4425C35.4349 36.9914 34.7501 36.9446 34.299 37.3375C33.8479 37.731 33.8005 38.4153 34.194 38.867C35.2006 40.0226 36.6561 40.6855 38.1867 40.6855ZM55.0567 51.4361L50.1957 56.2971C49.7723 56.7211 49.7723 57.407 50.1957 57.8304C50.4074 58.0422 50.6852 58.1477 50.9624 58.1477C51.2396 58.1477 51.5174 58.0422 51.7291 57.8304L56.5895 52.9695C57.013 52.546 57.013 51.8595 56.5895 51.4361C56.1661 51.0132 55.4801 51.0132 55.0567 51.4361ZM36.3213 21.6164H40.0515C40.6505 21.6164 41.1354 21.1314 41.1354 20.5324C41.1354 19.934 40.6505 19.4484 40.0515 19.4484H36.3213C35.7229 19.4484 35.2373 19.934 35.2373 20.5324C35.2373 21.1314 35.7229 21.6164 36.3213 21.6164ZM26.1415 39.1498C26.7399 39.1498 27.2255 38.6648 27.2255 38.0658V36.0667C27.2255 35.4677 26.7399 34.9827 26.1415 34.9827C25.5425 34.9827 25.0575 35.4677 25.0575 36.0667V38.0658C25.0575 38.6648 25.5425 39.1498 26.1415 39.1498Z" fill="#00C2FF"/>
<path d="M50.2319 39.1498C50.8303 39.1498 51.3158 38.6648 51.3158 38.0658V36.0667C51.3158 35.4677 50.8303 34.9827 50.2319 34.9827C49.6328 34.9827 49.1479 35.4677 49.1479 36.0667V38.0658C49.1479 38.6648 49.6328 39.1498 50.2319 39.1498ZM71.7478 44.2874C70.8546 43.3937 69.7774 42.7467 68.6014 42.3814C69.4979 41.1354 69.9902 39.6404 69.9902 38.0664C69.9902 35.2486 68.3507 32.6623 65.8361 31.3943C65.9276 29.6514 65.669 27.7663 65.0683 25.8897C65.5804 25.0586 65.6515 24.0362 65.2535 23.1391C64.7154 21.9269 64.0786 20.765 63.3593 19.6856C62.8089 18.859 61.8897 18.365 60.9012 18.365H60.6087C59.2458 16.8864 57.665 15.567 55.8962 14.4435C55.3915 14.1228 54.7213 14.2724 54.4001 14.7777C54.0794 15.283 54.229 15.9532 54.7338 16.2738C55.7297 16.9062 56.6573 17.6068 57.5143 18.365H54.0529C53.0265 18.365 51.2938 17.8569 49.2879 17.2681C46.1076 16.3348 42.1494 15.1729 38.1867 15.1729C34.2234 15.1729 30.2651 16.3348 27.0849 17.2681C25.079 17.8569 23.3463 18.365 22.3199 18.365H18.8528C20.6691 16.7554 22.8003 15.4275 25.2178 14.404C28.9773 12.813 33.3404 12.0062 38.1867 12.0062C42.7473 12.0062 46.8879 12.7227 50.4938 14.1347C51.0505 14.3526 51.68 14.0782 51.8985 13.521C52.1164 12.9632 51.8415 12.3342 51.2842 12.1163C47.4254 10.605 43.0189 9.83827 38.1867 9.83827C34.9432 9.83827 31.8962 10.1838 29.0761 10.8664C29.0298 10.6592 28.9694 10.4542 28.8927 10.2549C28.0543 8.08413 25.6565 6.96628 23.4705 7.68554C20.795 2.58518 16.6459 0 11.1227 0C3.96051 0 0.754294 4.99366 0.754294 9.94271C0.754294 10.876 1.00327 11.8747 1.2658 12.9316C1.84166 15.2435 2.43616 17.6339 0.522818 19.5535C0.0237348 20.0537 -0.132087 20.7752 0.116325 21.4369C0.364738 22.0986 0.95754 22.54 1.66326 22.5886C2.5073 22.6462 3.39706 22.7072 4.3145 22.7072C7.13398 22.7072 10.2182 22.1307 13.0648 19.1283C13.1196 19.217 13.1783 19.3033 13.2398 19.388C13.1585 19.4818 13.0829 19.5811 13.0135 19.6861C12.2942 20.7656 11.6568 21.9275 11.1193 23.1391C10.7213 24.0367 10.7924 25.0586 11.3045 25.8897C10.7032 27.7669 10.4401 29.6458 10.5338 31.3954C8.02092 32.664 6.38253 35.2497 6.38253 38.067C6.38253 42.1979 9.79933 45.5594 13.9992 45.5594C14.0534 45.5594 14.1093 45.5555 14.1641 45.5543C15.4643 48.3371 17.3003 50.854 19.6235 52.9875C20.4969 53.7898 21.4273 54.526 22.4051 55.1961C22.3425 55.2622 22.2809 55.3288 22.2194 55.396C22.194 55.4208 22.1703 55.4468 22.1483 55.4739C19.9131 57.9083 18.2527 60.8182 17.3121 63.9837C17.1416 64.5579 17.4691 65.1609 18.0427 65.3314C18.146 65.3619 18.2499 65.3765 18.3521 65.3765C18.819 65.3765 19.2509 65.0722 19.3909 64.6014C20.0622 62.3414 21.1411 60.2265 22.5621 58.3538C24.2818 63.6952 24.8661 66.7185 25.0276 69.1095H20.6064C20.0559 69.1095 19.5439 68.8611 19.2017 68.4286C18.8303 67.9589 18.1483 67.8799 17.6791 68.2508C17.2094 68.6223 17.1298 69.3043 17.5012 69.7734C18.2572 70.7293 19.3892 71.2775 20.6064 71.2775H47.4073L47.6659 71.536C49.2534 73.1242 51.3644 73.9981 53.6103 73.9981C55.8556 73.9981 57.9665 73.1242 59.5541 71.536L68.8667 62.2239C72.1802 58.9105 74.0507 54.3227 73.9987 49.6373C73.9761 47.6162 73.1773 45.7164 71.7478 44.2874ZM65.4799 33.6955C66.9178 34.6778 67.8223 36.31 67.8223 38.0664C67.8223 39.5975 67.1617 41.0265 65.9993 42.0382C65.1479 42.0483 64.3005 42.1217 63.4649 42.2555C64.1418 39.9752 64.4857 37.578 64.4857 35.1046C64.4857 35.0544 64.4851 35.0025 64.4851 34.9511C64.9475 34.6648 65.3043 34.2222 65.4799 33.6955ZM63.4282 32.996C63.4118 33.0643 63.3554 33.1179 63.2848 33.1315C60.3552 33.7017 57.0271 32.6561 53.3754 30.0257C54.6909 29.276 55.973 28.3704 57.0711 27.2898H62.5633C62.7806 27.2898 62.994 27.265 63.2007 27.2192C63.7596 29.2794 63.8449 31.2955 63.4282 32.996ZM38.1867 31.8674C33.0857 31.8674 26.0054 29.9433 21.8564 26.6575C25.1411 25.8022 31.2294 25.0411 38.1867 25.0411C45.1434 25.0411 51.2317 25.8022 54.517 26.6575C50.3679 29.9433 43.2876 31.8674 38.1867 31.8674ZM24.0413 9.78294C25.167 9.34765 26.4356 9.91053 26.8704 11.0352C26.9229 11.1712 26.9607 11.3095 26.985 11.4496C26.0884 11.733 25.2162 12.0508 24.3727 12.4076C20.9683 13.8484 18.0749 15.8521 15.7618 18.365H15.4716C15.3869 18.365 15.3028 18.3701 15.2192 18.3774C15.208 18.3662 15.1955 18.356 15.1842 18.3441C14.8026 17.9433 14.5931 17.4239 14.5847 16.8734C14.5841 16.8593 14.5847 16.8452 14.5835 16.8311C14.5835 16.8147 14.5818 16.7983 14.5824 16.782C14.5971 16.1976 14.8382 15.6545 15.261 15.2514C17.7017 12.9299 20.6555 11.0899 24.0413 9.78294ZM12.4252 16.5324C9.33525 20.5996 5.93144 20.682 2.59932 20.4777C4.71591 17.8163 3.94414 14.7162 3.36996 12.4082C3.13962 11.4834 2.92226 10.61 2.92226 9.94271C2.92226 9.0473 3.08655 6.75908 4.60808 4.85534C6.03362 3.07241 8.2253 2.16796 11.1227 2.16796C15.772 2.16796 19.1628 4.24955 21.4606 8.52111C18.5514 9.85577 15.9696 11.5851 13.7672 13.6808C12.9717 14.4373 12.5003 15.4439 12.4252 16.5324ZM13.101 24.0181C13.5893 22.9183 14.1663 21.8654 14.8178 20.8875C14.9178 20.7374 15.0634 20.629 15.2277 20.5742C15.248 20.5686 15.2684 20.5629 15.2881 20.5561C15.3474 20.5415 15.4089 20.533 15.4716 20.533H22.3205C23.6585 20.533 25.4397 20.0102 27.6952 19.3485C30.7428 18.4542 34.5356 17.3409 38.1867 17.3409C41.8378 17.3409 45.6306 18.4537 48.6776 19.3485C50.9336 20.0102 52.7149 20.533 54.0529 20.533H60.9012C61.1631 20.533 61.4076 20.6657 61.5555 20.8875C62.2065 21.8648 62.784 22.9183 63.2718 24.0181C63.4293 24.3732 63.2837 24.6617 63.2137 24.7696C63.1448 24.8757 62.9438 25.1218 62.5633 25.1218H56.8329C53.5369 23.8137 45.783 22.8731 38.1867 22.8731C30.5903 22.8731 22.8365 23.8137 19.5405 25.1218H13.8101C13.4295 25.1218 13.2286 24.8757 13.1597 24.7696C13.0897 24.6617 12.9434 24.3732 13.101 24.0181ZM8.55049 38.0664C8.55049 36.2383 9.53003 34.5457 11.0702 33.5797C11.287 33.9546 11.5653 34.2883 11.8939 34.5655C11.8894 34.7507 11.8877 34.9296 11.8877 35.1046C11.8877 37.9811 12.3591 40.7538 13.2641 43.3418C10.6061 42.9895 8.55049 40.7588 8.55049 38.0664ZM12.7543 31.9283C12.7532 31.9182 12.7521 31.908 12.7504 31.8984C12.5827 30.4441 12.7278 28.8458 13.1704 27.2187C13.3782 27.2644 13.5921 27.2898 13.8101 27.2898H19.3017C20.6719 28.6374 22.3289 29.7124 23.9775 30.5547C20.585 32.4816 17.0253 33.4843 14.1793 33.2754C13.4448 33.2212 12.8486 32.6561 12.7543 31.9283ZM21.0902 51.3903C16.6341 47.2983 14.146 41.6447 14.0596 35.4394C14.3554 35.4603 14.6552 35.4711 14.9601 35.4711C18.4633 35.4711 22.5429 34.1048 26.3747 31.6376C26.9855 31.8809 27.5727 32.0932 28.1169 32.275C31.4677 33.3934 35.138 34.0353 38.1867 34.0353C41.2354 34.0353 44.9057 33.394 48.2564 32.275C49.1552 31.9746 50.1698 31.5924 51.2187 31.1193C54.9353 33.9992 58.4464 35.4507 61.6927 35.4507C61.901 35.4507 62.1082 35.4428 62.3143 35.431C62.2799 38.0161 61.8372 40.5031 60.9943 42.837C58.3058 43.6777 55.824 45.1563 53.8118 47.1685L44.4986 56.4811C44.2852 56.6945 44.0859 56.9181 43.899 57.1496C42.0472 57.5431 40.1282 57.7452 38.1867 57.7452C34.9934 57.7452 31.9176 57.2094 29.0857 56.1887C29.0547 56.1762 29.0231 56.1644 28.9909 56.1548C27.4965 55.6094 26.0704 54.9291 24.7329 54.1195C24.7063 54.1014 24.6792 54.0845 24.6516 54.0687C23.3785 53.2913 22.1855 52.3964 21.0902 51.3903ZM42.041 62.5875C40.9057 63.1397 39.6128 63.4197 38.1867 63.4197C34.255 63.4197 31.9707 61.2941 30.6451 58.9438C33.0502 59.5817 35.5834 59.9126 38.1867 59.9126C39.6478 59.9126 41.0987 59.8059 42.522 59.5976C42.203 60.493 42.0371 61.4465 42.0371 62.4249C42.0371 62.4797 42.0399 62.5333 42.041 62.5875ZM27.1984 69.1095C26.9906 65.8525 26.111 62.1347 24.218 56.4421C24.2417 56.4179 24.2648 56.393 24.2891 56.3693C25.4194 57.0079 26.6027 57.564 27.8296 58.0348C29.7096 62.911 33.3703 65.5877 38.1867 65.5877C39.7014 65.5877 41.105 65.3257 42.3792 64.8086C42.771 66.1398 43.4903 67.3604 44.4992 68.3693L45.2393 69.1095H27.1984ZM67.3334 60.6906L58.0207 70.0032C56.8425 71.1815 55.2763 71.8302 53.6097 71.8302C51.9431 71.8302 50.377 71.1815 49.1987 70.0032L46.0314 66.836C45.0141 65.8186 44.3925 64.511 44.2417 63.0996C44.2395 63.0815 44.2378 63.0629 44.235 63.0448C44.2146 62.8405 44.2045 62.6333 44.2045 62.4249C44.2045 60.7589 44.8532 59.1928 46.032 58.0139L55.3446 48.7013C58.2087 45.8372 62.1596 44.2033 66.2076 44.2033C66.2629 44.2033 66.3188 44.2033 66.3736 44.2039C69.35 44.2372 71.7975 46.6852 71.8308 49.661C71.8765 53.7672 70.237 57.787 67.3334 60.6906ZM63.0658 59.4457L58.2048 64.3061C57.7813 64.7295 57.7813 65.416 58.2048 65.8395C58.4165 66.0506 58.6937 66.1568 58.9715 66.1568C59.2487 66.1568 59.5259 66.0506 59.7382 65.8395L64.5991 60.9785C65.022 60.5551 65.022 59.8685 64.5991 59.4457C64.1757 59.0223 63.4892 59.0223 63.0658 59.4457ZM38.1867 40.6855C39.7167 40.6855 41.1721 40.0226 42.1793 38.867C42.5728 38.4153 42.526 37.731 42.0743 37.3375C41.6227 36.944 40.9384 36.9914 40.5449 37.4425C39.9498 38.1257 39.09 38.5175 38.1867 38.5175C37.2834 38.5175 36.4235 38.1257 35.8284 37.4425C35.4349 36.9914 34.7501 36.9446 34.299 37.3375C33.8479 37.731 33.8005 38.4153 34.194 38.867C35.2006 40.0226 36.6561 40.6855 38.1867 40.6855ZM55.0567 51.4361L50.1957 56.2971C49.7723 56.7211 49.7723 57.407 50.1957 57.8304C50.4074 58.0422 50.6852 58.1477 50.9624 58.1477C51.2396 58.1477 51.5174 58.0422 51.7291 57.8304L56.5895 52.9695C57.013 52.546 57.013 51.8595 56.5895 51.4361C56.1661 51.0132 55.4801 51.0132 55.0567 51.4361ZM36.3213 21.6164H40.0515C40.6505 21.6164 41.1354 21.1314 41.1354 20.5324C41.1354 19.934 40.6505 19.4484 40.0515 19.4484H36.3213C35.7229 19.4484 35.2373 19.934 35.2373 20.5324C35.2373 21.1314 35.7229 21.6164 36.3213 21.6164ZM26.1415 39.1498C26.7399 39.1498 27.2255 38.6648 27.2255 38.0658V36.0667C27.2255 35.4677 26.7399 34.9827 26.1415 34.9827C25.5425 34.9827 25.0575 35.4677 25.0575 36.0667V38.0658C25.0575 38.6648 25.5425 39.1498 26.1415 39.1498Z" fill="url(#paint0_linear)" fill-opacity="0.5"/>
<defs>
<linearGradient id="paint0_linear" x1="36.9999" y1="0" x2="36.9999" y2="73.9981" gradientUnits="userSpaceOnUse">
<stop stop-color="#00C2FF"/>
<stop offset="1" stop-color="#00FFF0"/>
</linearGradient>
</defs>
</svg>
