<svg width="74" height="74" viewBox="0 0 74 74" fill="none" xmlns="http://www.w3.org/2000/svg">
<path d="M49.8624 14.3343C49.8624 13.4983 49.5368 12.7121 48.9455 12.1208C47.7253 10.9006 45.7394 10.9004 44.5187 12.1208C44.0954 12.5441 44.0954 13.2303 44.5185 13.6535C44.9419 14.077 45.6281 14.0769 46.0514 13.6537C46.4266 13.2782 47.0371 13.2783 47.4125 13.6535C47.5943 13.8355 47.6945 14.0772 47.6945 14.3343C47.6945 14.5912 47.5943 14.8329 47.4125 15.0147C46.9892 15.4381 46.9892 16.1243 47.4125 16.5475C47.6242 16.7592 47.9016 16.865 48.1791 16.865C48.4564 16.865 48.7339 16.7592 48.9455 16.5476C49.5367 15.9563 49.8624 15.1704 49.8624 14.3343Z" fill="#00C2FF"/>
<path d="M49.8624 14.3343C49.8624 13.4983 49.5368 12.7121 48.9455 12.1208C47.7253 10.9006 45.7394 10.9004 44.5187 12.1208C44.0954 12.5441 44.0954 13.2303 44.5185 13.6535C44.9419 14.077 45.6281 14.0769 46.0514 13.6537C46.4266 13.2782 47.0371 13.2783 47.4125 13.6535C47.5943 13.8355 47.6945 14.0772 47.6945 14.3343C47.6945 14.5912 47.5943 14.8329 47.4125 15.0147C46.9892 15.4381 46.9892 16.1243 47.4125 16.5475C47.6242 16.7592 47.9016 16.865 48.1791 16.865C48.4564 16.865 48.7339 16.7592 48.9455 16.5476C49.5367 15.9563 49.8624 15.1704 49.8624 14.3343Z" fill="url(#paint0_linear)" fill-opacity="0.5"/>
<path d="M72.2005 30.6269C73.247 28.0301 73.8115 25.244 73.8432 22.3811C73.9055 16.7483 71.9039 11.4538 68.1855 7.35288C69.2883 6.30821 70.6343 5.53482 72.0945 5.11063C72.6695 4.94369 73.0001 4.3423 72.8331 3.7675C72.6661 3.19255 72.0646 2.86186 71.4899 3.02894C69.6798 3.55475 68.0132 4.51819 66.6526 5.82027C60.2434 0.0115628 51.1579 -1.31119 43.3844 1.80838C41.9047 0.636516 40.0859 0 38.1807 0C38.1383 0 38.0958 0.000289062 38.0536 0.000867188C35.8584 0.0335312 33.794 0.906645 32.2413 2.45949C29.6017 5.09906 29.0569 9.0543 30.708 12.2417C30.053 12.2116 29.3835 12.3103 28.7364 12.5533C23.8861 14.3736 16.7974 19.1544 12.5985 23.4372C10.2911 25.7904 9.07556 29.0359 9.26345 32.3413C9.31866 33.3116 9.41073 34.3889 9.53575 35.5496C6.69426 38.1813 4.1219 41.5034 2.42987 44.7435C1.30744 46.8932 -0.381696 50.8964 0.917206 53.5559C0.922265 53.5663 0.927612 53.5772 0.93296 53.5881C-1.10305 59.1361 0.247882 65.343 4.45244 69.5474C7.362 72.457 11.2297 74.0003 15.1752 74C16.931 74 18.7025 73.693 20.411 73.0662C20.4218 73.0717 20.433 73.0776 20.4438 73.0828C21.0799 73.3934 21.8393 73.5462 22.7002 73.5462C24.8407 73.5462 27.6069 72.6017 30.6522 70.7904C33.4701 69.1143 36.2123 66.8733 38.4459 64.465C39.611 64.5901 40.6897 64.6815 41.6585 64.7367C41.8817 64.7494 42.1043 64.7556 42.3267 64.7556C45.3977 64.7556 48.3683 63.5534 50.5628 61.4018C53.0174 58.9951 55.7058 55.5815 57.9391 52.0362C58.2582 51.5297 58.1062 50.8605 57.5998 50.5414C57.0932 50.2223 56.424 50.3742 56.105 50.8809C53.9577 54.2895 51.3846 57.56 49.0452 59.8539C47.1266 61.7351 44.4801 62.7263 41.7818 62.5725C41.2728 62.5436 40.7304 62.5038 40.1599 62.4543C40.4482 62.0835 40.7233 61.7117 40.9818 61.3399C42.3422 59.383 43.0457 57.064 43.0167 54.6338C42.9673 50.5025 42.4526 43.3902 41.1567 35.8182C41.144 35.7442 41.1307 35.6683 41.1177 35.5936C48.101 36.9929 53.9446 38.8601 58.0868 41.0223C59.3438 41.6786 59.9162 43.1747 59.4177 44.5023C59.1772 45.1429 58.8732 45.8442 58.5139 46.5872C58.2533 47.1263 58.4789 47.7742 59.0179 48.035C59.1699 48.1085 59.3307 48.1434 59.4891 48.1434C59.8917 48.1434 60.2786 47.9179 60.4655 47.5311C60.8534 46.7288 61.1838 45.9663 61.4472 45.2641C61.69 44.6174 61.7886 43.9482 61.7586 43.2933C62.9666 43.9191 64.2846 44.2305 65.6001 44.2305C67.7551 44.2305 69.9021 43.3981 71.541 41.7593C73.0938 40.2063 73.9671 38.1421 73.9994 35.9467C74.0278 34 73.3925 32.1374 72.2005 30.6269ZM33.7741 3.99224C35.7615 2.00494 38.724 1.62757 41.0846 2.88268C39.1475 3.92316 37.3251 5.26166 35.6881 6.89862C34.4628 8.12396 33.3885 9.46925 32.475 10.9159C31.4517 8.61421 31.9067 5.85959 33.7741 3.99224ZM5.98519 68.0145C2.62007 64.6494 1.38794 59.7878 2.65982 55.2864C4.31138 56.349 7.59513 57.8272 14.3044 59.6962C15.1021 62.5547 15.9096 65.0635 16.683 67.0717C17.4679 69.1099 18.1443 70.447 18.7211 71.338C14.2178 72.6135 9.35234 71.3817 5.98519 68.0145ZM39.2017 60.1022C36.9153 63.3913 33.3051 66.6902 29.5441 68.9272C26.0204 71.0231 22.8978 71.8685 21.395 71.135C21.3614 71.1185 21.3255 71.0964 21.2879 71.0696C21.2478 71.0316 21.2052 70.9969 21.1604 70.9656C20.2714 70.1514 18.4976 66.8297 16.2429 58.5808C16.2351 58.5459 16.2257 58.5115 16.2145 58.4775C15.959 57.5396 15.6974 56.5387 15.4302 55.4711C15.2848 54.8904 14.6965 54.5371 14.1155 54.6827C13.5348 54.8279 13.1818 55.4166 13.3271 55.9972C13.4336 56.4231 13.5409 56.8417 13.6484 57.2562C5.42485 54.872 3.44896 53.3049 2.99065 52.7806C2.98314 52.7712 2.97504 52.7624 2.96724 52.7533C2.90567 52.6793 2.87691 52.6295 2.86476 52.6046C1.71025 50.2404 4.56662 43.6466 9.86514 38.2492C10.3826 42.0765 11.1775 46.5248 12.1614 51.0191C12.2895 51.604 12.8676 51.9737 13.4521 51.8462C14.0369 51.7182 14.407 51.1404 14.2793 50.5557C12.7493 43.5665 11.6832 36.7114 11.4278 32.2182C11.2745 29.5207 12.2652 26.8733 14.1464 24.9548C18.1567 20.8642 24.9 16.3085 29.4981 14.5825C30.8255 14.0838 32.3218 14.6562 32.9781 15.9133C34.6884 19.1897 37.0107 25.828 38.6903 34.2951C38.6964 34.3938 38.7153 34.4898 38.7467 34.581C39.9161 40.5566 40.7619 47.4258 40.8486 54.659C40.8724 56.6359 40.3028 58.518 39.2017 60.1022ZM60.6838 40.4185C60.2617 39.8856 59.7254 39.4322 59.0896 39.1002C54.535 36.7226 48.35 34.7728 40.6981 33.3012C39.5874 27.5464 37.7589 20.3873 34.8998 14.9104C34.568 14.2746 34.1144 13.7383 33.5816 13.3161C34.5449 11.5265 35.766 9.88652 37.2209 8.43166C45.2207 0.43186 58.0868 0.282125 65.9024 8.09765C73.7177 15.913 73.568 28.7794 65.5683 36.7789C64.1133 38.2342 62.4734 39.455 60.6838 40.4185ZM70.0078 40.2259C68.1404 42.0931 65.3858 42.5481 63.0843 41.525C64.5309 40.6117 65.8759 39.5372 67.1014 38.3119C68.7193 36.694 70.0672 34.8794 71.1224 32.9247C72.3711 35.2835 71.9925 38.2411 70.0078 40.2259Z" fill="#00C2FF"/>
<path d="M72.2005 30.6269C73.247 28.0301 73.8115 25.244 73.8432 22.3811C73.9055 16.7483 71.9039 11.4538 68.1855 7.35288C69.2883 6.30821 70.6343 5.53482 72.0945 5.11063C72.6695 4.94369 73.0001 4.3423 72.8331 3.7675C72.6661 3.19255 72.0646 2.86186 71.4899 3.02894C69.6798 3.55475 68.0132 4.51819 66.6526 5.82027C60.2434 0.0115628 51.1579 -1.31119 43.3844 1.80838C41.9047 0.636516 40.0859 0 38.1807 0C38.1383 0 38.0958 0.000289062 38.0536 0.000867188C35.8584 0.0335312 33.794 0.906645 32.2413 2.45949C29.6017 5.09906 29.0569 9.0543 30.708 12.2417C30.053 12.2116 29.3835 12.3103 28.7364 12.5533C23.8861 14.3736 16.7974 19.1544 12.5985 23.4372C10.2911 25.7904 9.07556 29.0359 9.26345 32.3413C9.31866 33.3116 9.41073 34.3889 9.53575 35.5496C6.69426 38.1813 4.1219 41.5034 2.42987 44.7435C1.30744 46.8932 -0.381696 50.8964 0.917206 53.5559C0.922265 53.5663 0.927612 53.5772 0.93296 53.5881C-1.10305 59.1361 0.247882 65.343 4.45244 69.5474C7.362 72.457 11.2297 74.0003 15.1752 74C16.931 74 18.7025 73.693 20.411 73.0662C20.4218 73.0717 20.433 73.0776 20.4438 73.0828C21.0799 73.3934 21.8393 73.5462 22.7002 73.5462C24.8407 73.5462 27.6069 72.6017 30.6522 70.7904C33.4701 69.1143 36.2123 66.8733 38.4459 64.465C39.611 64.5901 40.6897 64.6815 41.6585 64.7367C41.8817 64.7494 42.1043 64.7556 42.3267 64.7556C45.3977 64.7556 48.3683 63.5534 50.5628 61.4018C53.0174 58.9951 55.7058 55.5815 57.9391 52.0362C58.2582 51.5297 58.1062 50.8605 57.5998 50.5414C57.0932 50.2223 56.424 50.3742 56.105 50.8809C53.9577 54.2895 51.3846 57.56 49.0452 59.8539C47.1266 61.7351 44.4801 62.7263 41.7818 62.5725C41.2728 62.5436 40.7304 62.5038 40.1599 62.4543C40.4482 62.0835 40.7233 61.7117 40.9818 61.3399C42.3422 59.383 43.0457 57.064 43.0167 54.6338C42.9673 50.5025 42.4526 43.3902 41.1567 35.8182C41.144 35.7442 41.1307 35.6683 41.1177 35.5936C48.101 36.9929 53.9446 38.8601 58.0868 41.0223C59.3438 41.6786 59.9162 43.1747 59.4177 44.5023C59.1772 45.1429 58.8732 45.8442 58.5139 46.5872C58.2533 47.1263 58.4789 47.7742 59.0179 48.035C59.1699 48.1085 59.3307 48.1434 59.4891 48.1434C59.8917 48.1434 60.2786 47.9179 60.4655 47.5311C60.8534 46.7288 61.1838 45.9663 61.4472 45.2641C61.69 44.6174 61.7886 43.9482 61.7586 43.2933C62.9666 43.9191 64.2846 44.2305 65.6001 44.2305C67.7551 44.2305 69.9021 43.3981 71.541 41.7593C73.0938 40.2063 73.9671 38.1421 73.9994 35.9467C74.0278 34 73.3925 32.1374 72.2005 30.6269ZM33.7741 3.99224C35.7615 2.00494 38.724 1.62757 41.0846 2.88268C39.1475 3.92316 37.3251 5.26166 35.6881 6.89862C34.4628 8.12396 33.3885 9.46925 32.475 10.9159C31.4517 8.61421 31.9067 5.85959 33.7741 3.99224ZM5.98519 68.0145C2.62007 64.6494 1.38794 59.7878 2.65982 55.2864C4.31138 56.349 7.59513 57.8272 14.3044 59.6962C15.1021 62.5547 15.9096 65.0635 16.683 67.0717C17.4679 69.1099 18.1443 70.447 18.7211 71.338C14.2178 72.6135 9.35234 71.3817 5.98519 68.0145ZM39.2017 60.1022C36.9153 63.3913 33.3051 66.6902 29.5441 68.9272C26.0204 71.0231 22.8978 71.8685 21.395 71.135C21.3614 71.1185 21.3255 71.0964 21.2879 71.0696C21.2478 71.0316 21.2052 70.9969 21.1604 70.9656C20.2714 70.1514 18.4976 66.8297 16.2429 58.5808C16.2351 58.5459 16.2257 58.5115 16.2145 58.4775C15.959 57.5396 15.6974 56.5387 15.4302 55.4711C15.2848 54.8904 14.6965 54.5371 14.1155 54.6827C13.5348 54.8279 13.1818 55.4166 13.3271 55.9972C13.4336 56.4231 13.5409 56.8417 13.6484 57.2562C5.42485 54.872 3.44896 53.3049 2.99065 52.7806C2.98314 52.7712 2.97504 52.7624 2.96724 52.7533C2.90567 52.6793 2.87691 52.6295 2.86476 52.6046C1.71025 50.2404 4.56662 43.6466 9.86514 38.2492C10.3826 42.0765 11.1775 46.5248 12.1614 51.0191C12.2895 51.604 12.8676 51.9737 13.4521 51.8462C14.0369 51.7182 14.407 51.1404 14.2793 50.5557C12.7493 43.5665 11.6832 36.7114 11.4278 32.2182C11.2745 29.5207 12.2652 26.8733 14.1464 24.9548C18.1567 20.8642 24.9 16.3085 29.4981 14.5825C30.8255 14.0838 32.3218 14.6562 32.9781 15.9133C34.6884 19.1897 37.0107 25.828 38.6903 34.2951C38.6964 34.3938 38.7153 34.4898 38.7467 34.581C39.9161 40.5566 40.7619 47.4258 40.8486 54.659C40.8724 56.6359 40.3028 58.518 39.2017 60.1022ZM60.6838 40.4185C60.2617 39.8856 59.7254 39.4322 59.0896 39.1002C54.535 36.7226 48.35 34.7728 40.6981 33.3012C39.5874 27.5464 37.7589 20.3873 34.8998 14.9104C34.568 14.2746 34.1144 13.7383 33.5816 13.3161C34.5449 11.5265 35.766 9.88652 37.2209 8.43166C45.2207 0.43186 58.0868 0.282125 65.9024 8.09765C73.7177 15.913 73.568 28.7794 65.5683 36.7789C64.1133 38.2342 62.4734 39.455 60.6838 40.4185ZM70.0078 40.2259C68.1404 42.0931 65.3858 42.5481 63.0843 41.525C64.5309 40.6117 65.8759 39.5372 67.1014 38.3119C68.7193 36.694 70.0672 34.8794 71.1224 32.9247C72.3711 35.2835 71.9925 38.2411 70.0078 40.2259Z" fill="url(#paint1_linear)" fill-opacity="0.5"/>
<path d="M59.6662 24.1382C58.8299 24.1382 58.044 24.4638 57.4527 25.0551C57.0293 25.4784 57.0295 26.1647 57.4528 26.5878C57.8763 27.011 58.5624 27.0112 58.9857 26.5877C59.1675 26.4059 59.4092 26.3059 59.6662 26.3059C59.9232 26.3059 60.1649 26.4059 60.3468 26.5878C60.5286 26.7697 60.6288 27.0113 60.6288 27.2683C60.6288 27.5254 60.5286 27.7671 60.3468 27.949C59.9234 28.3724 59.9236 29.0586 60.3468 29.4818C60.5585 29.6934 60.8359 29.7992 61.1132 29.7992C61.3906 29.7992 61.6681 29.6934 61.8798 29.4817C62.4711 28.8904 62.7967 28.1044 62.7967 27.2683C62.7967 26.4322 62.4711 25.6461 61.8798 25.0551C61.2882 24.4635 60.5023 24.1382 59.6662 24.1382Z" fill="#00C2FF"/>
<path d="M59.6662 24.1382C58.8299 24.1382 58.044 24.4638 57.4527 25.0551C57.0293 25.4784 57.0295 26.1647 57.4528 26.5878C57.8763 27.011 58.5624 27.0112 58.9857 26.5877C59.1675 26.4059 59.4092 26.3059 59.6662 26.3059C59.9232 26.3059 60.1649 26.4059 60.3468 26.5878C60.5286 26.7697 60.6288 27.0113 60.6288 27.2683C60.6288 27.5254 60.5286 27.7671 60.3468 27.949C59.9234 28.3724 59.9236 29.0586 60.3468 29.4818C60.5585 29.6934 60.8359 29.7992 61.1132 29.7992C61.3906 29.7992 61.6681 29.6934 61.8798 29.4817C62.4711 28.8904 62.7967 28.1044 62.7967 27.2683C62.7967 26.4322 62.4711 25.6461 61.8798 25.0551C61.2882 24.4635 60.5023 24.1382 59.6662 24.1382Z" fill="url(#paint2_linear)" fill-opacity="0.5"/>
<path d="M52.9674 22.9456C52.4488 22.9809 51.9405 22.7915 51.5739 22.425C51.2073 22.0583 51.0175 21.5503 51.0532 21.0314C51.0942 20.4342 50.6433 19.917 50.0462 19.8759C49.448 19.8367 48.9318 20.2858 48.8907 20.883C48.8121 22.0271 49.2315 23.148 50.0412 23.9578C50.7867 24.703 51.7952 25.1173 52.8432 25.1173C52.9338 25.1173 53.0249 25.1143 53.1159 25.1081C53.7133 25.067 54.1639 24.5496 54.123 23.9526C54.0818 23.3554 53.5649 22.9056 52.9674 22.9456Z" fill="#00C2FF"/>
<path d="M52.9674 22.9456C52.4488 22.9809 51.9405 22.7915 51.5739 22.425C51.2073 22.0583 51.0175 21.5503 51.0532 21.0314C51.0942 20.4342 50.6433 19.917 50.0462 19.8759C49.448 19.8367 48.9318 20.2858 48.8907 20.883C48.8121 22.0271 49.2315 23.148 50.0412 23.9578C50.7867 24.703 51.7952 25.1173 52.8432 25.1173C52.9338 25.1173 53.0249 25.1143 53.1159 25.1081C53.7133 25.067 54.1639 24.5496 54.123 23.9526C54.0818 23.3554 53.5649 22.9056 52.9674 22.9456Z" fill="url(#paint3_linear)" fill-opacity="0.5"/>
<defs>
<linearGradient id="paint0_linear" x1="47.0318" y1="11.2056" x2="47.0318" y2="16.865" gradientUnits="userSpaceOnUse">
<stop stop-color="#00C2FF"/>
<stop offset="1" stop-color="#00FFF0"/>
</linearGradient>
<linearGradient id="paint1_linear" x1="37.0002" y1="0" x2="37.0002" y2="74" gradientUnits="userSpaceOnUse">
<stop stop-color="#00C2FF"/>
<stop offset="1" stop-color="#00FFF0"/>
</linearGradient>
<linearGradient id="paint2_linear" x1="59.966" y1="24.1382" x2="59.966" y2="29.7992" gradientUnits="userSpaceOnUse">
<stop stop-color="#00C2FF"/>
<stop offset="1" stop-color="#00FFF0"/>
</linearGradient>
<linearGradient id="paint3_linear" x1="51.5035" y1="19.8735" x2="51.5035" y2="25.1173" gradientUnits="userSpaceOnUse">
<stop stop-color="#00C2FF"/>
<stop offset="1" stop-color="#00FFF0"/>
</linearGradient>
</defs>
</svg>
