<svg width="80" height="65" viewBox="0 0 80 65" fill="none" xmlns="http://www.w3.org/2000/svg">
<path d="M77.7167 13.5023V6.02062C77.7167 2.70078 75.0157 0 71.696 0H8.30406C4.98421 0 2.28344 2.70078 2.28344 6.02062V13.5023C0.944374 14.0584 0 15.3795 0 16.9175V20.8101C0 22.3481 0.944374 23.6692 2.28344 24.2253V26.3525C2.28344 36.427 6.20656 45.8984 13.3303 53.0222C20.454 60.1459 29.9254 64.069 40 64.069C49.7034 64.069 58.922 60.3921 65.9576 53.7156C66.4271 53.2701 66.4465 52.5284 66.001 52.0589C65.5556 51.5895 64.8139 51.57 64.3443 52.0154C60.544 55.6218 56.0636 58.2926 51.2092 59.9112C50.2207 57.3746 49.7184 54.6981 49.7184 51.9498C49.7184 39.8448 59.5665 29.9969 71.6713 29.9969C72.8368 29.9969 74.0056 30.09 75.1521 30.2726C74.399 36.9928 71.7265 43.415 67.4379 48.6789C67.0292 49.1806 67.1045 49.9189 67.6062 50.3276C67.8237 50.5048 68.0854 50.5911 68.3457 50.5911C68.6859 50.5911 69.0232 50.4436 69.2549 50.1593C74.7113 43.4622 77.7163 35.0073 77.7163 26.3525V24.2253C79.0554 23.669 79.9996 22.348 79.9996 20.8101V16.9175C79.9999 15.3795 79.0557 14.0584 77.7167 13.5023ZM77.6562 20.8103C77.6562 21.5562 77.0493 22.1631 76.3034 22.1631H73.069V15.5648H76.3034C77.0493 15.5648 77.6562 16.1717 77.6562 16.9176V20.8103ZM60.0882 22.1631C58.2692 22.1631 56.7892 20.6831 56.7892 18.8639C56.7892 17.0447 58.2692 15.5647 60.0882 15.5647H70.7253V22.163H60.0882V22.1631ZM19.9117 15.5647C21.7308 15.5647 23.2108 17.0447 23.2108 18.8639C23.2108 20.6831 21.7308 22.1631 19.9117 22.1631H9.27468V15.5648H19.9117V15.5647ZM6.93093 22.1631H3.69656C2.95062 22.1631 2.34375 21.5562 2.34375 20.8103V16.9175C2.34375 16.1716 2.95062 15.5647 3.69656 15.5647H6.93093V22.1631ZM4.84328 30.2736C5.99125 30.0905 7.1614 29.997 8.32843 29.997C20.4334 29.997 30.2814 39.8451 30.2814 51.95C30.2814 54.7039 29.7789 57.3815 28.7884 59.9195C23.6451 58.2071 18.9325 55.3097 14.9876 51.3648C9.23968 45.6172 5.71609 38.239 4.84328 30.2736ZM71.6717 27.6533C58.2743 27.6533 47.375 38.5528 47.375 51.95C47.375 54.9254 47.9065 57.8261 48.9547 60.5807C46.0611 61.3346 43.0565 61.7254 40.0001 61.7254C36.9359 61.7254 33.932 61.3361 31.0426 60.5853C32.092 57.8303 32.6253 54.9301 32.6253 51.95C32.6253 38.5526 21.7258 27.6533 8.32859 27.6533C7.10234 27.6533 5.8725 27.7469 4.66343 27.93C4.64062 27.4061 4.62734 26.8805 4.62734 26.3526V24.5067H19.9119C23.0234 24.5067 25.5547 21.9753 25.5547 18.8637C25.5547 15.7522 23.0233 13.2208 19.9119 13.2208H4.62718V11.9295H12.7773C13.4245 11.9295 13.9492 11.4048 13.9492 10.7576C13.9492 10.1105 13.4245 9.58578 12.7773 9.58578H4.62718V6.02062C4.62718 3.99312 6.27671 2.34375 8.30406 2.34375H71.6959C73.7234 2.34375 75.3727 3.99312 75.3727 6.02062V9.58593H17.4648C16.8176 9.58593 16.293 10.1106 16.293 10.7578C16.293 11.405 16.8176 11.9297 17.4648 11.9297H75.3729V13.2209H60.0884C56.977 13.2209 54.4456 15.7523 54.4456 18.8639C54.4456 21.9755 56.977 24.5069 60.0884 24.5069H75.3729V26.3528C75.3729 26.8795 75.3604 27.4055 75.3368 27.9301C74.1276 27.747 72.8978 27.6533 71.6717 27.6533Z" fill="#00C2FF"/>
<path d="M77.7167 13.5023V6.02062C77.7167 2.70078 75.0157 0 71.696 0H8.30406C4.98421 0 2.28344 2.70078 2.28344 6.02062V13.5023C0.944374 14.0584 0 15.3795 0 16.9175V20.8101C0 22.3481 0.944374 23.6692 2.28344 24.2253V26.3525C2.28344 36.427 6.20656 45.8984 13.3303 53.0222C20.454 60.1459 29.9254 64.069 40 64.069C49.7034 64.069 58.922 60.3921 65.9576 53.7156C66.4271 53.2701 66.4465 52.5284 66.001 52.0589C65.5556 51.5895 64.8139 51.57 64.3443 52.0154C60.544 55.6218 56.0636 58.2926 51.2092 59.9112C50.2207 57.3746 49.7184 54.6981 49.7184 51.9498C49.7184 39.8448 59.5665 29.9969 71.6713 29.9969C72.8368 29.9969 74.0056 30.09 75.1521 30.2726C74.399 36.9928 71.7265 43.415 67.4379 48.6789C67.0292 49.1806 67.1045 49.9189 67.6062 50.3276C67.8237 50.5048 68.0854 50.5911 68.3457 50.5911C68.6859 50.5911 69.0232 50.4436 69.2549 50.1593C74.7113 43.4622 77.7163 35.0073 77.7163 26.3525V24.2253C79.0554 23.669 79.9996 22.348 79.9996 20.8101V16.9175C79.9999 15.3795 79.0557 14.0584 77.7167 13.5023ZM77.6562 20.8103C77.6562 21.5562 77.0493 22.1631 76.3034 22.1631H73.069V15.5648H76.3034C77.0493 15.5648 77.6562 16.1717 77.6562 16.9176V20.8103ZM60.0882 22.1631C58.2692 22.1631 56.7892 20.6831 56.7892 18.8639C56.7892 17.0447 58.2692 15.5647 60.0882 15.5647H70.7253V22.163H60.0882V22.1631ZM19.9117 15.5647C21.7308 15.5647 23.2108 17.0447 23.2108 18.8639C23.2108 20.6831 21.7308 22.1631 19.9117 22.1631H9.27468V15.5648H19.9117V15.5647ZM6.93093 22.1631H3.69656C2.95062 22.1631 2.34375 21.5562 2.34375 20.8103V16.9175C2.34375 16.1716 2.95062 15.5647 3.69656 15.5647H6.93093V22.1631ZM4.84328 30.2736C5.99125 30.0905 7.1614 29.997 8.32843 29.997C20.4334 29.997 30.2814 39.8451 30.2814 51.95C30.2814 54.7039 29.7789 57.3815 28.7884 59.9195C23.6451 58.2071 18.9325 55.3097 14.9876 51.3648C9.23968 45.6172 5.71609 38.239 4.84328 30.2736ZM71.6717 27.6533C58.2743 27.6533 47.375 38.5528 47.375 51.95C47.375 54.9254 47.9065 57.8261 48.9547 60.5807C46.0611 61.3346 43.0565 61.7254 40.0001 61.7254C36.9359 61.7254 33.932 61.3361 31.0426 60.5853C32.092 57.8303 32.6253 54.9301 32.6253 51.95C32.6253 38.5526 21.7258 27.6533 8.32859 27.6533C7.10234 27.6533 5.8725 27.7469 4.66343 27.93C4.64062 27.4061 4.62734 26.8805 4.62734 26.3526V24.5067H19.9119C23.0234 24.5067 25.5547 21.9753 25.5547 18.8637C25.5547 15.7522 23.0233 13.2208 19.9119 13.2208H4.62718V11.9295H12.7773C13.4245 11.9295 13.9492 11.4048 13.9492 10.7576C13.9492 10.1105 13.4245 9.58578 12.7773 9.58578H4.62718V6.02062C4.62718 3.99312 6.27671 2.34375 8.30406 2.34375H71.6959C73.7234 2.34375 75.3727 3.99312 75.3727 6.02062V9.58593H17.4648C16.8176 9.58593 16.293 10.1106 16.293 10.7578C16.293 11.405 16.8176 11.9297 17.4648 11.9297H75.3729V13.2209H60.0884C56.977 13.2209 54.4456 15.7523 54.4456 18.8639C54.4456 21.9755 56.977 24.5069 60.0884 24.5069H75.3729V26.3528C75.3729 26.8795 75.3604 27.4055 75.3368 27.9301C74.1276 27.747 72.8978 27.6533 71.6717 27.6533Z" fill="url(#paint0_linear)" fill-opacity="0.5"/>
<path d="M44.2396 19.144C42.6751 19.144 41.1843 19.6867 39.9996 20.6626C38.8148 19.6865 37.3241 19.144 35.7596 19.144C32.0787 19.144 29.084 22.1387 29.084 25.8197C29.084 27.037 29.4152 28.2289 30.0416 29.2664C30.6495 30.2731 31.9641 31.5345 33.5585 32.6406C34.8798 33.5573 37.0155 34.8058 39.6865 35.5465C39.789 35.575 39.8944 35.5892 39.9996 35.5892C40.1194 35.5892 40.2391 35.5709 40.3543 35.5342C44.8623 34.1022 48.7777 31.2218 49.9587 29.2643C50.5844 28.2273 50.9152 27.0362 50.9152 25.8197C50.9152 22.1387 47.9205 19.144 44.2396 19.144ZM47.9519 28.0536C47.178 29.3364 43.9246 31.8573 39.9779 33.1912C35.8629 31.9523 32.7496 29.2167 32.048 28.0548C31.6423 27.3828 31.4277 26.61 31.4277 25.8197C31.4277 23.4311 33.371 21.4878 35.7596 21.4878C37.0537 21.4878 38.2702 22.0601 39.0971 23.0583C39.3198 23.327 39.6505 23.4825 39.9994 23.4825C40.3484 23.4825 40.6793 23.327 40.9018 23.0583C41.7287 22.0601 42.9452 21.4878 44.2394 21.4878C46.628 21.4878 48.5713 23.4311 48.5713 25.8197C48.5715 26.6095 48.3573 27.382 47.9519 28.0536Z" fill="#00C2FF"/>
<path d="M44.2396 19.144C42.6751 19.144 41.1843 19.6867 39.9996 20.6626C38.8148 19.6865 37.3241 19.144 35.7596 19.144C32.0787 19.144 29.084 22.1387 29.084 25.8197C29.084 27.037 29.4152 28.2289 30.0416 29.2664C30.6495 30.2731 31.9641 31.5345 33.5585 32.6406C34.8798 33.5573 37.0155 34.8058 39.6865 35.5465C39.789 35.575 39.8944 35.5892 39.9996 35.5892C40.1194 35.5892 40.2391 35.5709 40.3543 35.5342C44.8623 34.1022 48.7777 31.2218 49.9587 29.2643C50.5844 28.2273 50.9152 27.0362 50.9152 25.8197C50.9152 22.1387 47.9205 19.144 44.2396 19.144ZM47.9519 28.0536C47.178 29.3364 43.9246 31.8573 39.9779 33.1912C35.8629 31.9523 32.7496 29.2167 32.048 28.0548C31.6423 27.3828 31.4277 26.61 31.4277 25.8197C31.4277 23.4311 33.371 21.4878 35.7596 21.4878C37.0537 21.4878 38.2702 22.0601 39.0971 23.0583C39.3198 23.327 39.6505 23.4825 39.9994 23.4825C40.3484 23.4825 40.6793 23.327 40.9018 23.0583C41.7287 22.0601 42.9452 21.4878 44.2394 21.4878C46.628 21.4878 48.5713 23.4311 48.5713 25.8197C48.5715 26.6095 48.3573 27.382 47.9519 28.0536Z" fill="url(#paint1_linear)" fill-opacity="0.5"/>
<defs>
<linearGradient id="paint0_linear" x1="39.9998" y1="0" x2="39.9998" y2="64.069" gradientUnits="userSpaceOnUse">
<stop stop-color="#00C2FF"/>
<stop offset="1" stop-color="#00FFF0"/>
</linearGradient>
<linearGradient id="paint1_linear" x1="39.9996" y1="19.144" x2="39.9996" y2="35.5892" gradientUnits="userSpaceOnUse">
<stop stop-color="#00C2FF"/>
<stop offset="1" stop-color="#00FFF0"/>
</linearGradient>
</defs>
</svg>
