<svg width="73" height="73" viewBox="0 0 73 73" fill="none" xmlns="http://www.w3.org/2000/svg">
<path d="M69.8765 60.5244C71.7537 59.3191 73 57.2129 73 54.8213C73 51.087 69.9618 48.0488 66.2275 48.0488H61.7991C65.114 45.8039 67.2969 42.0081 67.2969 37.7119C67.2969 30.8328 61.7004 25.2363 54.8213 25.2363H53.5692C55.614 22.2063 56.7246 18.6408 56.7468 14.9067C56.7512 14.1606 56.4636 13.4595 55.937 12.9328C55.4143 12.4103 54.7202 12.1231 53.9806 12.1231H53.9634C53.1881 12.1277 52.4169 12.1816 51.6538 12.2813C51.5483 9.85044 51.0287 7.47209 50.1011 5.19469C49.795 4.44302 49.2141 3.85831 48.4657 3.5482C47.7173 3.23809 46.8932 3.24094 46.1453 3.55604C44.7757 4.13291 43.4785 4.84794 42.2711 5.68502C41.3012 3.94514 40.1039 2.34398 38.6941 0.917348C38.1096 0.325791 37.3302 0 36.5 0C35.6698 0 34.8904 0.325791 34.3057 0.917633C32.8961 2.34413 31.6987 3.94528 30.7287 5.6853C29.5214 4.84808 28.2242 4.13305 26.8547 3.55618C26.1068 3.24109 25.2827 3.23838 24.5343 3.54834C23.7857 3.85845 23.205 4.44302 22.8989 5.19483C21.9716 7.47152 21.4515 9.8503 21.3459 12.2813C20.5831 12.1816 19.8121 12.1278 19.0369 12.1233H19.0196C18.2801 12.1233 17.5859 12.4104 17.0633 12.933C16.5366 13.4595 16.2491 14.1606 16.2535 14.9067C16.2756 18.6409 17.3863 22.2064 19.4311 25.2365H12.4756C8.74132 25.2363 5.70312 28.2745 5.70312 32.0088C5.70312 34.4004 6.9494 36.5066 8.82658 37.7119C6.9494 38.9173 5.70312 41.0234 5.70312 43.415C5.70312 45.5858 6.73083 47.5197 8.324 48.76C3.4799 50.4745 0 55.1003 0 60.5244C0 67.4035 5.59648 73 12.4756 73H66.2275C69.9618 73 73 69.9618 73 66.2275C73 63.8359 71.7537 61.7298 69.8765 60.5244ZM53.9762 14.2618H53.9801C54.1486 14.2618 54.3063 14.3268 54.4246 14.445C54.544 14.5644 54.6091 14.7238 54.6081 14.8939C54.5822 19.2835 52.8587 23.4102 49.7552 26.5137C47.9419 28.327 45.7979 29.6634 43.4594 30.4701C45.0436 28.7698 46.0154 26.492 46.0154 23.9903C46.0154 21.849 45.2226 19.6505 44.0934 17.604C46.9252 15.4654 50.4019 14.283 53.9762 14.2618ZM36.0603 11.8246C36.1772 11.7059 36.3335 11.6408 36.5 11.6408C36.6665 11.6408 36.8228 11.7059 36.9399 11.8246C39.0255 13.9377 43.8767 19.3534 43.8767 23.9905C43.8767 28.0579 40.5676 31.3672 36.5 31.3672C32.4325 31.3672 29.1233 28.0579 29.1233 23.9905C29.1233 19.3533 33.9745 13.9377 36.0603 11.8246ZM46.9755 5.52718C47.1925 5.43565 47.4312 5.43465 47.6475 5.52419C47.8638 5.61373 48.0317 5.78325 48.1207 6.00154C48.9944 8.14663 49.4659 10.3911 49.5284 12.6843C47.17 13.2749 44.9379 14.321 42.9725 15.7704C41.8287 14.0608 40.5315 12.5218 39.3935 11.2958C41.3827 8.77198 43.9875 6.78572 46.9755 5.52718ZM35.8269 2.42083C36.0067 2.2389 36.2458 2.13867 36.5 2.13867C36.7542 2.13867 36.9933 2.2389 37.1731 2.42083C38.5219 3.78588 39.6584 5.32544 40.5599 7.00558C39.5622 7.86005 38.6461 8.8089 37.821 9.83832C37.4208 9.61918 36.9698 9.50212 36.5 9.50212C36.0302 9.50212 35.5794 9.61918 35.179 9.83832C34.3539 8.8089 33.4377 7.86019 32.4399 7.00572C33.3416 5.32544 34.4781 3.78573 35.8269 2.42083ZM24.8795 6.00154C24.9684 5.7834 25.1364 5.61373 25.3527 5.52419C25.5688 5.43451 25.8075 5.43565 26.0246 5.52718C29.0122 6.78558 31.6176 8.77198 33.6068 11.2956C32.4687 12.5215 31.1716 14.0606 30.0278 15.7703C28.0622 14.3207 25.8303 13.2747 23.4721 12.6842C23.5345 10.3908 24.006 8.14606 24.8795 6.00154ZM18.5754 14.445C18.6937 14.3268 18.8514 14.2618 19.0199 14.2618H19.0239C22.5982 14.2829 26.0745 15.4654 28.9066 17.6043C27.7772 19.6507 26.9846 21.8491 26.9846 23.9903C26.9846 26.4758 27.9435 28.7408 29.5095 30.4374C27.1731 29.6223 25.0215 28.2905 23.2448 26.5137C20.1413 23.4102 18.4178 19.2835 18.3919 14.8937C18.3909 14.7239 18.456 14.5644 18.5754 14.445ZM66.2275 70.8613H12.4756C6.77574 70.8613 2.13867 66.2243 2.13867 60.5244C2.13867 54.8246 6.77574 50.1875 12.4756 50.1875H18.1178C18.7084 50.1875 19.1872 49.7089 19.1872 49.1182C19.1872 48.5275 18.7084 48.0488 18.1178 48.0488H12.4756C9.92059 48.0488 7.8418 45.9702 7.8418 43.415C7.8418 40.8599 9.92059 38.7812 12.4756 38.7812H54.8213C55.4118 38.7812 55.8906 38.3026 55.8906 37.7119C55.8906 37.1212 55.4118 36.6426 54.8213 36.6426H12.4756C9.92059 36.6426 7.8418 34.5639 7.8418 32.0088C7.8418 29.4536 9.92059 27.375 12.4756 27.375H21.1117C21.3129 27.5961 21.5197 27.8134 21.7326 28.0262C25.2363 31.5299 30.0297 33.5059 34.974 33.5056H38.0263C42.9692 33.5056 47.7651 31.5284 51.2675 28.0262C51.4804 27.8133 51.6871 27.5961 51.8885 27.375H54.8213C60.5211 27.375 65.1582 32.0121 65.1582 37.7119C65.1582 43.4118 60.5211 48.0488 54.8213 48.0488H22.3952C21.8046 48.0488 21.3258 48.5275 21.3258 49.1182C21.3258 49.7089 21.8046 50.1875 22.3952 50.1875H66.2275C68.7825 50.1875 70.8613 52.2661 70.8613 54.8213C70.8613 57.3764 68.7825 59.4551 66.2275 59.4551H56.96C56.3694 59.4551 55.8906 59.9337 55.8906 60.5244C55.8906 61.1151 56.3694 61.5938 56.96 61.5938H66.2275C68.7825 61.5938 70.8613 63.6724 70.8613 66.2275C70.8613 68.7827 68.7825 70.8613 66.2275 70.8613Z" fill="#00C2FF"/>
<path d="M69.8765 60.5244C71.7537 59.3191 73 57.2129 73 54.8213C73 51.087 69.9618 48.0488 66.2275 48.0488H61.7991C65.114 45.8039 67.2969 42.0081 67.2969 37.7119C67.2969 30.8328 61.7004 25.2363 54.8213 25.2363H53.5692C55.614 22.2063 56.7246 18.6408 56.7468 14.9067C56.7512 14.1606 56.4636 13.4595 55.937 12.9328C55.4143 12.4103 54.7202 12.1231 53.9806 12.1231H53.9634C53.1881 12.1277 52.4169 12.1816 51.6538 12.2813C51.5483 9.85044 51.0287 7.47209 50.1011 5.19469C49.795 4.44302 49.2141 3.85831 48.4657 3.5482C47.7173 3.23809 46.8932 3.24094 46.1453 3.55604C44.7757 4.13291 43.4785 4.84794 42.2711 5.68502C41.3012 3.94514 40.1039 2.34398 38.6941 0.917348C38.1096 0.325791 37.3302 0 36.5 0C35.6698 0 34.8904 0.325791 34.3057 0.917633C32.8961 2.34413 31.6987 3.94528 30.7287 5.6853C29.5214 4.84808 28.2242 4.13305 26.8547 3.55618C26.1068 3.24109 25.2827 3.23838 24.5343 3.54834C23.7857 3.85845 23.205 4.44302 22.8989 5.19483C21.9716 7.47152 21.4515 9.8503 21.3459 12.2813C20.5831 12.1816 19.8121 12.1278 19.0369 12.1233H19.0196C18.2801 12.1233 17.5859 12.4104 17.0633 12.933C16.5366 13.4595 16.2491 14.1606 16.2535 14.9067C16.2756 18.6409 17.3863 22.2064 19.4311 25.2365H12.4756C8.74132 25.2363 5.70312 28.2745 5.70312 32.0088C5.70312 34.4004 6.9494 36.5066 8.82658 37.7119C6.9494 38.9173 5.70312 41.0234 5.70312 43.415C5.70312 45.5858 6.73083 47.5197 8.324 48.76C3.4799 50.4745 0 55.1003 0 60.5244C0 67.4035 5.59648 73 12.4756 73H66.2275C69.9618 73 73 69.9618 73 66.2275C73 63.8359 71.7537 61.7298 69.8765 60.5244ZM53.9762 14.2618H53.9801C54.1486 14.2618 54.3063 14.3268 54.4246 14.445C54.544 14.5644 54.6091 14.7238 54.6081 14.8939C54.5822 19.2835 52.8587 23.4102 49.7552 26.5137C47.9419 28.327 45.7979 29.6634 43.4594 30.4701C45.0436 28.7698 46.0154 26.492 46.0154 23.9903C46.0154 21.849 45.2226 19.6505 44.0934 17.604C46.9252 15.4654 50.4019 14.283 53.9762 14.2618ZM36.0603 11.8246C36.1772 11.7059 36.3335 11.6408 36.5 11.6408C36.6665 11.6408 36.8228 11.7059 36.9399 11.8246C39.0255 13.9377 43.8767 19.3534 43.8767 23.9905C43.8767 28.0579 40.5676 31.3672 36.5 31.3672C32.4325 31.3672 29.1233 28.0579 29.1233 23.9905C29.1233 19.3533 33.9745 13.9377 36.0603 11.8246ZM46.9755 5.52718C47.1925 5.43565 47.4312 5.43465 47.6475 5.52419C47.8638 5.61373 48.0317 5.78325 48.1207 6.00154C48.9944 8.14663 49.4659 10.3911 49.5284 12.6843C47.17 13.2749 44.9379 14.321 42.9725 15.7704C41.8287 14.0608 40.5315 12.5218 39.3935 11.2958C41.3827 8.77198 43.9875 6.78572 46.9755 5.52718ZM35.8269 2.42083C36.0067 2.2389 36.2458 2.13867 36.5 2.13867C36.7542 2.13867 36.9933 2.2389 37.1731 2.42083C38.5219 3.78588 39.6584 5.32544 40.5599 7.00558C39.5622 7.86005 38.6461 8.8089 37.821 9.83832C37.4208 9.61918 36.9698 9.50212 36.5 9.50212C36.0302 9.50212 35.5794 9.61918 35.179 9.83832C34.3539 8.8089 33.4377 7.86019 32.4399 7.00572C33.3416 5.32544 34.4781 3.78573 35.8269 2.42083ZM24.8795 6.00154C24.9684 5.7834 25.1364 5.61373 25.3527 5.52419C25.5688 5.43451 25.8075 5.43565 26.0246 5.52718C29.0122 6.78558 31.6176 8.77198 33.6068 11.2956C32.4687 12.5215 31.1716 14.0606 30.0278 15.7703C28.0622 14.3207 25.8303 13.2747 23.4721 12.6842C23.5345 10.3908 24.006 8.14606 24.8795 6.00154ZM18.5754 14.445C18.6937 14.3268 18.8514 14.2618 19.0199 14.2618H19.0239C22.5982 14.2829 26.0745 15.4654 28.9066 17.6043C27.7772 19.6507 26.9846 21.8491 26.9846 23.9903C26.9846 26.4758 27.9435 28.7408 29.5095 30.4374C27.1731 29.6223 25.0215 28.2905 23.2448 26.5137C20.1413 23.4102 18.4178 19.2835 18.3919 14.8937C18.3909 14.7239 18.456 14.5644 18.5754 14.445ZM66.2275 70.8613H12.4756C6.77574 70.8613 2.13867 66.2243 2.13867 60.5244C2.13867 54.8246 6.77574 50.1875 12.4756 50.1875H18.1178C18.7084 50.1875 19.1872 49.7089 19.1872 49.1182C19.1872 48.5275 18.7084 48.0488 18.1178 48.0488H12.4756C9.92059 48.0488 7.8418 45.9702 7.8418 43.415C7.8418 40.8599 9.92059 38.7812 12.4756 38.7812H54.8213C55.4118 38.7812 55.8906 38.3026 55.8906 37.7119C55.8906 37.1212 55.4118 36.6426 54.8213 36.6426H12.4756C9.92059 36.6426 7.8418 34.5639 7.8418 32.0088C7.8418 29.4536 9.92059 27.375 12.4756 27.375H21.1117C21.3129 27.5961 21.5197 27.8134 21.7326 28.0262C25.2363 31.5299 30.0297 33.5059 34.974 33.5056H38.0263C42.9692 33.5056 47.7651 31.5284 51.2675 28.0262C51.4804 27.8133 51.6871 27.5961 51.8885 27.375H54.8213C60.5211 27.375 65.1582 32.0121 65.1582 37.7119C65.1582 43.4118 60.5211 48.0488 54.8213 48.0488H22.3952C21.8046 48.0488 21.3258 48.5275 21.3258 49.1182C21.3258 49.7089 21.8046 50.1875 22.3952 50.1875H66.2275C68.7825 50.1875 70.8613 52.2661 70.8613 54.8213C70.8613 57.3764 68.7825 59.4551 66.2275 59.4551H56.96C56.3694 59.4551 55.8906 59.9337 55.8906 60.5244C55.8906 61.1151 56.3694 61.5938 56.96 61.5938H66.2275C68.7825 61.5938 70.8613 63.6724 70.8613 66.2275C70.8613 68.7827 68.7825 70.8613 66.2275 70.8613Z" fill="url(#paint0_linear)" fill-opacity="0.5"/>
<path d="M52.6826 59.4551H12.4756C11.885 59.4551 11.4062 59.9337 11.4062 60.5244C11.4062 61.1151 11.885 61.5938 12.4756 61.5938H52.6826C53.2732 61.5938 53.752 61.1151 53.752 60.5244C53.752 59.9337 53.2732 59.4551 52.6826 59.4551Z" fill="#00C2FF"/>
<path d="M52.6826 59.4551H12.4756C11.885 59.4551 11.4062 59.9337 11.4062 60.5244C11.4062 61.1151 11.885 61.5938 12.4756 61.5938H52.6826C53.2732 61.5938 53.752 61.1151 53.752 60.5244C53.752 59.9337 53.2732 59.4551 52.6826 59.4551Z" fill="url(#paint1_linear)" fill-opacity="0.5"/>
<defs>
<linearGradient id="paint0_linear" x1="36.5" y1="0" x2="36.5" y2="73" gradientUnits="userSpaceOnUse">
<stop stop-color="#00C2FF"/>
<stop offset="1" stop-color="#00FFF0"/>
</linearGradient>
<linearGradient id="paint1_linear" x1="32.5791" y1="59.4551" x2="32.5791" y2="61.5938" gradientUnits="userSpaceOnUse">
<stop stop-color="#00C2FF"/>
<stop offset="1" stop-color="#00FFF0"/>
</linearGradient>
</defs>
</svg>
