<svg width="39" height="39" viewBox="0 0 39 39" fill="none" xmlns="http://www.w3.org/2000/svg">
<path d="M19.5 0C8.74296 0 0 8.74296 0 19.5C0 30.257 8.74296 39 19.5 39C30.257 39 39 30.257 39 19.5C39 8.74296 30.257 0 19.5 0ZM19.5 37.0317C9.84155 37.0317 1.96831 29.1585 1.96831 19.5C1.96831 9.84155 9.84155 1.96831 19.5 1.96831C29.1585 1.96831 37.0317 9.84155 37.0317 19.5C37.0317 29.1585 29.1585 37.0317 19.5 37.0317Z" fill="#55DFFF"/>
<path d="M20.8728 19.4083L26.5947 13.6865C26.9609 13.3203 26.9609 12.6794 26.5947 12.3132C26.2285 11.947 25.5876 11.947 25.2214 12.3132L19.4996 18.0351L13.7778 12.3132C13.4116 11.947 12.7707 11.947 12.4045 12.3132C12.0383 12.6794 12.0383 13.3203 12.4045 13.6865L18.1264 19.4083L12.4045 25.0843C12.0383 25.4505 12.0383 26.0914 12.4045 26.4576C12.5876 26.6407 12.8623 26.7322 13.0911 26.7322C13.32 26.7322 13.5947 26.6407 13.7778 26.4576L19.4996 20.7358L25.2214 26.4576C25.4045 26.6407 25.6792 26.7322 25.908 26.7322C26.1369 26.7322 26.4116 26.6407 26.5947 26.4576C26.9609 26.0914 26.9609 25.4505 26.5947 25.0843L20.8728 19.4083Z" fill="#55DFFF"/>
</svg>
