<svg width="25" height="26" viewBox="0 0 25 26" fill="none" xmlns="http://www.w3.org/2000/svg">
<path d="M3.66211 25.0039H21.3379C23.3572 25.0039 25 23.3608 25 21.3412V3.66268C25 1.64306 23.3572 0 21.3379 0H3.66211C1.6428 0 0 1.64306 0 3.66268V21.3412C0 23.3608 1.6428 25.0039 3.66211 25.0039ZM1.46484 3.66268C1.46484 2.45094 2.45056 1.46507 3.66211 1.46507H21.3379C22.5494 1.46507 23.5352 2.45094 23.5352 3.66268V21.3412C23.5352 22.553 22.5494 23.5388 21.3379 23.5388H3.66211C2.45056 23.5388 1.46484 22.553 1.46484 21.3412V3.66268Z" fill="#00FFF0"/>
<path d="M12.5 19.0947C16.1346 19.0947 19.0918 16.1376 19.0918 12.5029C19.0918 8.86829 16.1346 5.91113 12.5 5.91113C8.86536 5.91113 5.9082 8.86829 5.9082 12.5029C5.9082 16.1376 8.86536 19.0947 12.5 19.0947ZM12.5 7.37598C15.3271 7.37598 17.627 9.67586 17.627 12.5029C17.627 15.33 15.3271 17.6299 12.5 17.6299C9.67293 17.6299 7.37305 15.33 7.37305 12.5029C7.37305 9.67586 9.67293 7.37598 12.5 7.37598Z" fill="#00FFF0"/>
<path d="M19.8242 7.375C21.0358 7.375 22.0215 6.38884 22.0215 5.17676C22.0215 3.96467 21.0358 2.97852 19.8242 2.97852C18.6127 2.97852 17.627 3.96467 17.627 5.17676C17.627 6.38884 18.6127 7.375 19.8242 7.375ZM19.8242 4.44401C20.228 4.44401 20.5566 4.77279 20.5566 5.17676C20.5566 5.58072 20.228 5.90951 19.8242 5.90951C19.4204 5.90951 19.0918 5.58072 19.0918 5.17676C19.0918 4.77279 19.4204 4.44401 19.8242 4.44401Z" fill="#00FFF0"/>
</svg>
