<svg width="204" height="48" viewBox="0 0 204 48" fill="none" xmlns="http://www.w3.org/2000/svg">
<path d="M56.07 40C55.51 40 55.08 39.76 54.78 39.28C54.48 38.8 54.45 38.29 54.69 37.75L63.12 17.62C63.42 16.92 63.91 16.57 64.59 16.57C65.31 16.57 65.8 16.92 66.06 17.62L74.52 37.81C74.74 38.37 74.7 38.88 74.4 39.34C74.12 39.78 73.69 40 73.11 40C72.81 40 72.52 39.92 72.24 39.76C71.98 39.58 71.79 39.34 71.67 39.04L64.23 20.56H65.07L57.51 39.04C57.37 39.36 57.16 39.6 56.88 39.76C56.62 39.92 56.35 40 56.07 40ZM57.66 34.84L58.86 32.26H70.62L71.82 34.84H57.66ZM91.9838 47.02C91.5238 47.02 91.1438 46.87 90.8438 46.57C90.5638 46.29 90.4238 45.93 90.4238 45.49V37.39C89.7438 38.23 88.9038 38.9 87.9038 39.4C86.9038 39.88 85.8138 40.12 84.6338 40.12C83.1738 40.12 81.8638 39.76 80.7038 39.04C79.5438 38.3 78.6238 37.31 77.9438 36.07C77.2838 34.81 76.9538 33.39 76.9538 31.81C76.9538 30.23 77.3138 28.81 78.0338 27.55C78.7738 26.29 79.7638 25.3 81.0038 24.58C82.2638 23.84 83.6738 23.47 85.2338 23.47C86.7938 23.47 88.1938 23.84 89.4338 24.58C90.6738 25.3 91.6538 26.29 92.3738 27.55C93.1138 28.81 93.4838 30.23 93.4838 31.81V45.49C93.4838 45.93 93.3438 46.29 93.0638 46.57C92.7838 46.87 92.4238 47.02 91.9838 47.02ZM85.2338 37.42C86.2538 37.42 87.1638 37.18 87.9638 36.7C88.7638 36.2 89.3938 35.53 89.8538 34.69C90.3138 33.83 90.5438 32.87 90.5438 31.81C90.5438 30.73 90.3138 29.77 89.8538 28.93C89.3938 28.07 88.7638 27.4 87.9638 26.92C87.1638 26.42 86.2538 26.17 85.2338 26.17C84.2338 26.17 83.3238 26.42 82.5038 26.92C81.7038 27.4 81.0638 28.07 80.5838 28.93C80.1238 29.77 79.8938 30.73 79.8938 31.81C79.8938 32.87 80.1238 33.83 80.5838 34.69C81.0638 35.53 81.7038 36.2 82.5038 36.7C83.3238 37.18 84.2338 37.42 85.2338 37.42ZM105.788 40.15C104.408 40.15 103.168 39.86 102.068 39.28C100.988 38.68 100.128 37.81 99.4875 36.67C98.8675 35.53 98.5575 34.13 98.5575 32.47V25.09C98.5575 24.65 98.6975 24.29 98.9775 24.01C99.2775 23.71 99.6475 23.56 100.088 23.56C100.528 23.56 100.888 23.71 101.168 24.01C101.468 24.29 101.618 24.65 101.618 25.09V32.47C101.618 33.59 101.828 34.52 102.248 35.26C102.668 35.98 103.238 36.52 103.958 36.88C104.678 37.22 105.488 37.39 106.388 37.39C107.248 37.39 108.008 37.22 108.668 36.88C109.348 36.54 109.888 36.08 110.288 35.5C110.688 34.92 110.888 34.27 110.888 33.55H112.778C112.778 34.79 112.468 35.91 111.848 36.91C111.248 37.91 110.418 38.7 109.358 39.28C108.318 39.86 107.128 40.15 105.788 40.15ZM112.418 40C111.978 40 111.608 39.86 111.308 39.58C111.028 39.28 110.888 38.91 110.888 38.47V25.09C110.888 24.63 111.028 24.26 111.308 23.98C111.608 23.7 111.978 23.56 112.418 23.56C112.878 23.56 113.248 23.7 113.528 23.98C113.808 24.26 113.948 24.63 113.948 25.09V38.47C113.948 38.91 113.808 39.28 113.528 39.58C113.248 39.86 112.878 40 112.418 40ZM126.177 40.12C124.717 40.12 123.407 39.76 122.247 39.04C121.087 38.3 120.167 37.31 119.487 36.07C118.827 34.81 118.497 33.39 118.497 31.81C118.497 30.23 118.857 28.81 119.577 27.55C120.317 26.29 121.307 25.3 122.547 24.58C123.807 23.84 125.217 23.47 126.777 23.47C128.337 23.47 129.737 23.84 130.977 24.58C132.217 25.3 133.197 26.29 133.917 27.55C134.657 28.81 135.027 30.23 135.027 31.81H133.857C133.857 33.39 133.517 34.81 132.837 36.07C132.177 37.31 131.267 38.3 130.107 39.04C128.947 39.76 127.637 40.12 126.177 40.12ZM126.777 37.42C127.797 37.42 128.707 37.18 129.507 36.7C130.307 36.2 130.937 35.53 131.397 34.69C131.857 33.83 132.087 32.87 132.087 31.81C132.087 30.73 131.857 29.77 131.397 28.93C130.937 28.07 130.307 27.4 129.507 26.92C128.707 26.42 127.797 26.17 126.777 26.17C125.777 26.17 124.867 26.42 124.047 26.92C123.247 27.4 122.607 28.07 122.127 28.93C121.667 29.77 121.437 30.73 121.437 31.81C121.437 32.87 121.667 33.83 122.127 34.69C122.607 35.53 123.247 36.2 124.047 36.7C124.867 37.18 125.777 37.42 126.777 37.42ZM133.497 40.03C133.057 40.03 132.687 39.89 132.387 39.61C132.107 39.31 131.967 38.94 131.967 38.5V33.91L132.537 30.73L135.027 31.81V38.5C135.027 38.94 134.877 39.31 134.577 39.61C134.297 39.89 133.937 40.03 133.497 40.03ZM141.441 40C141.021 40 140.651 39.85 140.331 39.55C140.031 39.25 139.881 38.88 139.881 38.44V18.13C139.881 17.69 140.031 17.32 140.331 17.02C140.651 16.72 141.021 16.57 141.441 16.57C141.881 16.57 142.251 16.72 142.551 17.02C142.851 17.32 143.001 17.69 143.001 18.13V27.13L152.931 17.2C153.171 16.96 153.391 16.8 153.591 16.72C153.791 16.62 154.001 16.57 154.221 16.57C154.721 16.57 155.081 16.72 155.301 17.02C155.521 17.32 155.601 17.68 155.541 18.1C155.481 18.5 155.291 18.87 154.971 19.21L147.321 26.89L155.121 37.51C155.361 37.85 155.461 38.22 155.421 38.62C155.381 39 155.241 39.33 155.001 39.61C154.761 39.87 154.441 40 154.041 40C153.481 40 153.051 39.78 152.751 39.34L145.161 29.05L143.001 31.21V38.44C143.001 38.88 142.851 39.25 142.551 39.55C142.251 39.85 141.881 40 141.441 40ZM161.421 40C160.981 40 160.611 39.86 160.311 39.58C160.031 39.28 159.891 38.91 159.891 38.47V25.12C159.891 24.66 160.031 24.29 160.311 24.01C160.611 23.73 160.981 23.59 161.421 23.59C161.881 23.59 162.251 23.73 162.531 24.01C162.811 24.29 162.951 24.66 162.951 25.12V38.47C162.951 38.91 162.811 39.28 162.531 39.58C162.251 39.86 161.881 40 161.421 40ZM161.421 20.92C160.881 20.92 160.411 20.73 160.011 20.35C159.631 19.95 159.441 19.48 159.441 18.94C159.441 18.4 159.631 17.94 160.011 17.56C160.411 17.16 160.881 16.96 161.421 16.96C161.961 16.96 162.421 17.16 162.801 17.56C163.201 17.94 163.401 18.4 163.401 18.94C163.401 19.48 163.201 19.95 162.801 20.35C162.421 20.73 161.961 20.92 161.421 20.92ZM176.083 40.12C174.523 40.12 173.113 39.76 171.853 39.04C170.613 38.3 169.623 37.3 168.883 36.04C168.163 34.78 167.803 33.36 167.803 31.78C167.803 30.2 168.133 28.79 168.793 27.55C169.473 26.29 170.393 25.3 171.553 24.58C172.713 23.84 174.023 23.47 175.483 23.47C176.663 23.47 177.753 23.72 178.753 24.22C179.753 24.7 180.593 25.36 181.273 26.2V18.1C181.273 17.64 181.413 17.27 181.693 16.99C181.993 16.71 182.363 16.57 182.803 16.57C183.263 16.57 183.633 16.71 183.913 16.99C184.193 17.27 184.333 17.64 184.333 18.1V31.78C184.333 33.36 183.963 34.78 183.223 36.04C182.503 37.3 181.523 38.3 180.283 39.04C179.043 39.76 177.643 40.12 176.083 40.12ZM176.083 37.42C177.103 37.42 178.013 37.18 178.813 36.7C179.613 36.2 180.243 35.52 180.703 34.66C181.163 33.8 181.393 32.84 181.393 31.78C181.393 30.7 181.163 29.74 180.703 28.9C180.243 28.06 179.613 27.4 178.813 26.92C178.013 26.42 177.103 26.17 176.083 26.17C175.083 26.17 174.173 26.42 173.353 26.92C172.553 27.4 171.913 28.06 171.433 28.9C170.973 29.74 170.743 30.7 170.743 31.78C170.743 32.84 170.973 33.8 171.433 34.66C171.913 35.52 172.553 36.2 173.353 36.7C174.173 37.18 175.083 37.42 176.083 37.42ZM195.707 40.12C194.307 40.12 193.007 39.91 191.807 39.49C190.627 39.05 189.707 38.5 189.047 37.84C188.747 37.52 188.617 37.16 188.657 36.76C188.717 36.34 188.917 36 189.257 35.74C189.657 35.42 190.047 35.29 190.427 35.35C190.827 35.39 191.167 35.56 191.447 35.86C191.787 36.24 192.327 36.6 193.067 36.94C193.827 37.26 194.667 37.42 195.587 37.42C196.747 37.42 197.627 37.23 198.227 36.85C198.847 36.47 199.167 35.98 199.187 35.38C199.207 34.78 198.917 34.26 198.317 33.82C197.737 33.38 196.667 33.02 195.107 32.74C193.087 32.34 191.617 31.74 190.697 30.94C189.797 30.14 189.347 29.16 189.347 28C189.347 26.98 189.647 26.14 190.247 25.48C190.847 24.8 191.617 24.3 192.557 23.98C193.497 23.64 194.477 23.47 195.497 23.47C196.817 23.47 197.987 23.68 199.007 24.1C200.027 24.52 200.837 25.1 201.437 25.84C201.717 26.16 201.847 26.5 201.827 26.86C201.807 27.2 201.637 27.49 201.317 27.73C200.997 27.95 200.617 28.02 200.177 27.94C199.737 27.86 199.367 27.68 199.067 27.4C198.567 26.92 198.027 26.59 197.447 26.41C196.867 26.23 196.197 26.14 195.437 26.14C194.557 26.14 193.807 26.29 193.187 26.59C192.587 26.89 192.287 27.33 192.287 27.91C192.287 28.27 192.377 28.6 192.557 28.9C192.757 29.18 193.137 29.44 193.697 29.68C194.257 29.9 195.077 30.12 196.157 30.34C197.657 30.64 198.837 31.02 199.697 31.48C200.577 31.94 201.207 32.48 201.587 33.1C201.967 33.7 202.157 34.4 202.157 35.2C202.157 36.12 201.907 36.95 201.407 37.69C200.927 38.43 200.207 39.02 199.247 39.46C198.307 39.9 197.127 40.12 195.707 40.12Z" fill="#00C2FF"/>
<path d="M56.07 40C55.51 40 55.08 39.76 54.78 39.28C54.48 38.8 54.45 38.29 54.69 37.75L63.12 17.62C63.42 16.92 63.91 16.57 64.59 16.57C65.31 16.57 65.8 16.92 66.06 17.62L74.52 37.81C74.74 38.37 74.7 38.88 74.4 39.34C74.12 39.78 73.69 40 73.11 40C72.81 40 72.52 39.92 72.24 39.76C71.98 39.58 71.79 39.34 71.67 39.04L64.23 20.56H65.07L57.51 39.04C57.37 39.36 57.16 39.6 56.88 39.76C56.62 39.92 56.35 40 56.07 40ZM57.66 34.84L58.86 32.26H70.62L71.82 34.84H57.66ZM91.9838 47.02C91.5238 47.02 91.1438 46.87 90.8438 46.57C90.5638 46.29 90.4238 45.93 90.4238 45.49V37.39C89.7438 38.23 88.9038 38.9 87.9038 39.4C86.9038 39.88 85.8138 40.12 84.6338 40.12C83.1738 40.12 81.8638 39.76 80.7038 39.04C79.5438 38.3 78.6238 37.31 77.9438 36.07C77.2838 34.81 76.9538 33.39 76.9538 31.81C76.9538 30.23 77.3138 28.81 78.0338 27.55C78.7738 26.29 79.7638 25.3 81.0038 24.58C82.2638 23.84 83.6738 23.47 85.2338 23.47C86.7938 23.47 88.1938 23.84 89.4338 24.58C90.6738 25.3 91.6538 26.29 92.3738 27.55C93.1138 28.81 93.4838 30.23 93.4838 31.81V45.49C93.4838 45.93 93.3438 46.29 93.0638 46.57C92.7838 46.87 92.4238 47.02 91.9838 47.02ZM85.2338 37.42C86.2538 37.42 87.1638 37.18 87.9638 36.7C88.7638 36.2 89.3938 35.53 89.8538 34.69C90.3138 33.83 90.5438 32.87 90.5438 31.81C90.5438 30.73 90.3138 29.77 89.8538 28.93C89.3938 28.07 88.7638 27.4 87.9638 26.92C87.1638 26.42 86.2538 26.17 85.2338 26.17C84.2338 26.17 83.3238 26.42 82.5038 26.92C81.7038 27.4 81.0638 28.07 80.5838 28.93C80.1238 29.77 79.8938 30.73 79.8938 31.81C79.8938 32.87 80.1238 33.83 80.5838 34.69C81.0638 35.53 81.7038 36.2 82.5038 36.7C83.3238 37.18 84.2338 37.42 85.2338 37.42ZM105.788 40.15C104.408 40.15 103.168 39.86 102.068 39.28C100.988 38.68 100.128 37.81 99.4875 36.67C98.8675 35.53 98.5575 34.13 98.5575 32.47V25.09C98.5575 24.65 98.6975 24.29 98.9775 24.01C99.2775 23.71 99.6475 23.56 100.088 23.56C100.528 23.56 100.888 23.71 101.168 24.01C101.468 24.29 101.618 24.65 101.618 25.09V32.47C101.618 33.59 101.828 34.52 102.248 35.26C102.668 35.98 103.238 36.52 103.958 36.88C104.678 37.22 105.488 37.39 106.388 37.39C107.248 37.39 108.008 37.22 108.668 36.88C109.348 36.54 109.888 36.08 110.288 35.5C110.688 34.92 110.888 34.27 110.888 33.55H112.778C112.778 34.79 112.468 35.91 111.848 36.91C111.248 37.91 110.418 38.7 109.358 39.28C108.318 39.86 107.128 40.15 105.788 40.15ZM112.418 40C111.978 40 111.608 39.86 111.308 39.58C111.028 39.28 110.888 38.91 110.888 38.47V25.09C110.888 24.63 111.028 24.26 111.308 23.98C111.608 23.7 111.978 23.56 112.418 23.56C112.878 23.56 113.248 23.7 113.528 23.98C113.808 24.26 113.948 24.63 113.948 25.09V38.47C113.948 38.91 113.808 39.28 113.528 39.58C113.248 39.86 112.878 40 112.418 40ZM126.177 40.12C124.717 40.12 123.407 39.76 122.247 39.04C121.087 38.3 120.167 37.31 119.487 36.07C118.827 34.81 118.497 33.39 118.497 31.81C118.497 30.23 118.857 28.81 119.577 27.55C120.317 26.29 121.307 25.3 122.547 24.58C123.807 23.84 125.217 23.47 126.777 23.47C128.337 23.47 129.737 23.84 130.977 24.58C132.217 25.3 133.197 26.29 133.917 27.55C134.657 28.81 135.027 30.23 135.027 31.81H133.857C133.857 33.39 133.517 34.81 132.837 36.07C132.177 37.31 131.267 38.3 130.107 39.04C128.947 39.76 127.637 40.12 126.177 40.12ZM126.777 37.42C127.797 37.42 128.707 37.18 129.507 36.7C130.307 36.2 130.937 35.53 131.397 34.69C131.857 33.83 132.087 32.87 132.087 31.81C132.087 30.73 131.857 29.77 131.397 28.93C130.937 28.07 130.307 27.4 129.507 26.92C128.707 26.42 127.797 26.17 126.777 26.17C125.777 26.17 124.867 26.42 124.047 26.92C123.247 27.4 122.607 28.07 122.127 28.93C121.667 29.77 121.437 30.73 121.437 31.81C121.437 32.87 121.667 33.83 122.127 34.69C122.607 35.53 123.247 36.2 124.047 36.7C124.867 37.18 125.777 37.42 126.777 37.42ZM133.497 40.03C133.057 40.03 132.687 39.89 132.387 39.61C132.107 39.31 131.967 38.94 131.967 38.5V33.91L132.537 30.73L135.027 31.81V38.5C135.027 38.94 134.877 39.31 134.577 39.61C134.297 39.89 133.937 40.03 133.497 40.03ZM141.441 40C141.021 40 140.651 39.85 140.331 39.55C140.031 39.25 139.881 38.88 139.881 38.44V18.13C139.881 17.69 140.031 17.32 140.331 17.02C140.651 16.72 141.021 16.57 141.441 16.57C141.881 16.57 142.251 16.72 142.551 17.02C142.851 17.32 143.001 17.69 143.001 18.13V27.13L152.931 17.2C153.171 16.96 153.391 16.8 153.591 16.72C153.791 16.62 154.001 16.57 154.221 16.57C154.721 16.57 155.081 16.72 155.301 17.02C155.521 17.32 155.601 17.68 155.541 18.1C155.481 18.5 155.291 18.87 154.971 19.21L147.321 26.89L155.121 37.51C155.361 37.85 155.461 38.22 155.421 38.62C155.381 39 155.241 39.33 155.001 39.61C154.761 39.87 154.441 40 154.041 40C153.481 40 153.051 39.78 152.751 39.34L145.161 29.05L143.001 31.21V38.44C143.001 38.88 142.851 39.25 142.551 39.55C142.251 39.85 141.881 40 141.441 40ZM161.421 40C160.981 40 160.611 39.86 160.311 39.58C160.031 39.28 159.891 38.91 159.891 38.47V25.12C159.891 24.66 160.031 24.29 160.311 24.01C160.611 23.73 160.981 23.59 161.421 23.59C161.881 23.59 162.251 23.73 162.531 24.01C162.811 24.29 162.951 24.66 162.951 25.12V38.47C162.951 38.91 162.811 39.28 162.531 39.58C162.251 39.86 161.881 40 161.421 40ZM161.421 20.92C160.881 20.92 160.411 20.73 160.011 20.35C159.631 19.95 159.441 19.48 159.441 18.94C159.441 18.4 159.631 17.94 160.011 17.56C160.411 17.16 160.881 16.96 161.421 16.96C161.961 16.96 162.421 17.16 162.801 17.56C163.201 17.94 163.401 18.4 163.401 18.94C163.401 19.48 163.201 19.95 162.801 20.35C162.421 20.73 161.961 20.92 161.421 20.92ZM176.083 40.12C174.523 40.12 173.113 39.76 171.853 39.04C170.613 38.3 169.623 37.3 168.883 36.04C168.163 34.78 167.803 33.36 167.803 31.78C167.803 30.2 168.133 28.79 168.793 27.55C169.473 26.29 170.393 25.3 171.553 24.58C172.713 23.84 174.023 23.47 175.483 23.47C176.663 23.47 177.753 23.72 178.753 24.22C179.753 24.7 180.593 25.36 181.273 26.2V18.1C181.273 17.64 181.413 17.27 181.693 16.99C181.993 16.71 182.363 16.57 182.803 16.57C183.263 16.57 183.633 16.71 183.913 16.99C184.193 17.27 184.333 17.64 184.333 18.1V31.78C184.333 33.36 183.963 34.78 183.223 36.04C182.503 37.3 181.523 38.3 180.283 39.04C179.043 39.76 177.643 40.12 176.083 40.12ZM176.083 37.42C177.103 37.42 178.013 37.18 178.813 36.7C179.613 36.2 180.243 35.52 180.703 34.66C181.163 33.8 181.393 32.84 181.393 31.78C181.393 30.7 181.163 29.74 180.703 28.9C180.243 28.06 179.613 27.4 178.813 26.92C178.013 26.42 177.103 26.17 176.083 26.17C175.083 26.17 174.173 26.42 173.353 26.92C172.553 27.4 171.913 28.06 171.433 28.9C170.973 29.74 170.743 30.7 170.743 31.78C170.743 32.84 170.973 33.8 171.433 34.66C171.913 35.52 172.553 36.2 173.353 36.7C174.173 37.18 175.083 37.42 176.083 37.42ZM195.707 40.12C194.307 40.12 193.007 39.91 191.807 39.49C190.627 39.05 189.707 38.5 189.047 37.84C188.747 37.52 188.617 37.16 188.657 36.76C188.717 36.34 188.917 36 189.257 35.74C189.657 35.42 190.047 35.29 190.427 35.35C190.827 35.39 191.167 35.56 191.447 35.86C191.787 36.24 192.327 36.6 193.067 36.94C193.827 37.26 194.667 37.42 195.587 37.42C196.747 37.42 197.627 37.23 198.227 36.85C198.847 36.47 199.167 35.98 199.187 35.38C199.207 34.78 198.917 34.26 198.317 33.82C197.737 33.38 196.667 33.02 195.107 32.74C193.087 32.34 191.617 31.74 190.697 30.94C189.797 30.14 189.347 29.16 189.347 28C189.347 26.98 189.647 26.14 190.247 25.48C190.847 24.8 191.617 24.3 192.557 23.98C193.497 23.64 194.477 23.47 195.497 23.47C196.817 23.47 197.987 23.68 199.007 24.1C200.027 24.52 200.837 25.1 201.437 25.84C201.717 26.16 201.847 26.5 201.827 26.86C201.807 27.2 201.637 27.49 201.317 27.73C200.997 27.95 200.617 28.02 200.177 27.94C199.737 27.86 199.367 27.68 199.067 27.4C198.567 26.92 198.027 26.59 197.447 26.41C196.867 26.23 196.197 26.14 195.437 26.14C194.557 26.14 193.807 26.29 193.187 26.59C192.587 26.89 192.287 27.33 192.287 27.91C192.287 28.27 192.377 28.6 192.557 28.9C192.757 29.18 193.137 29.44 193.697 29.68C194.257 29.9 195.077 30.12 196.157 30.34C197.657 30.64 198.837 31.02 199.697 31.48C200.577 31.94 201.207 32.48 201.587 33.1C201.967 33.7 202.157 34.4 202.157 35.2C202.157 36.12 201.907 36.95 201.407 37.69C200.927 38.43 200.207 39.02 199.247 39.46C198.307 39.9 197.127 40.12 195.707 40.12Z" fill="url(#paint0_linear)"/>
<g clip-path="url(#clip0)">
<path d="M35.0261 22.9595L23.2552 1.74012C22.7078 0.753295 21.2887 0.753295 20.7413 1.74012L8.97041 22.9595C4.50209 31.9622 8.58575 41.3153 16.9546 44.1574C18.3736 44.6661 19.8988 44.9632 21.4993 44.9965C21.61 44.9988 21.721 44.9999 21.8325 44.9999H21.8326C21.8881 44.9999 21.9429 44.9979 21.9983 44.9974C22.0536 44.998 22.1084 44.9999 22.164 44.9999H22.1641C22.2755 44.9999 22.3865 44.9987 22.4972 44.9965C24.0978 44.9632 25.6229 44.666 27.0419 44.1574C35.4827 41.2908 39.4721 31.9172 35.0261 22.9595Z" fill="#02C2FF"/>
<path d="M16.276 25.4352L21.7778 1.80172C21.8539 1.47525 22.0282 1.21202 22.2559 1.0233C21.6859 0.921551 21.063 1.16011 20.7413 1.74019L8.97041 22.9596C4.50209 31.9623 8.58575 41.3154 16.9547 44.1576C18.3737 44.6661 19.8989 44.9634 21.4994 44.9967C21.6101 44.999 21.721 45.0001 21.8326 45.0001C21.8881 45.0001 21.9429 44.9981 21.9983 44.9976C22.0536 44.9981 22.1084 45.0001 22.1639 45.0001C22.2753 45.0001 22.3864 44.9989 22.4971 44.9967C24.0977 44.9634 25.6229 44.6661 27.0419 44.1576C27.5816 43.9743 28.103 43.7639 28.6054 43.5292C20.3791 42.4893 14.5284 34.8794 16.276 25.4352Z" fill="#00FFF0"/>
<path d="M16.276 25.4352L21.7778 1.80172C21.8539 1.47525 22.0282 1.21202 22.2559 1.0233C21.6859 0.921551 21.063 1.16011 20.7413 1.74019L8.97041 22.9596C4.50209 31.9623 8.58575 41.3154 16.9547 44.1576C18.3737 44.6661 19.8989 44.9634 21.4994 44.9967C21.6101 44.999 21.721 45.0001 21.8326 45.0001C21.8881 45.0001 21.9429 44.9981 21.9983 44.9976C22.0536 44.9981 22.1084 45.0001 22.1639 45.0001C22.2753 45.0001 22.3864 44.9989 22.4971 44.9967C24.0977 44.9634 25.6229 44.6661 27.0419 44.1576C27.5816 43.9743 28.103 43.7639 28.6054 43.5292C20.3791 42.4893 14.5284 34.8794 16.276 25.4352Z" fill="url(#paint1_linear)"/>
</g>
<defs>
<linearGradient id="paint0_linear" x1="204" y1="30.8367" x2="55.3699" y2="30.8367" gradientUnits="userSpaceOnUse">
<stop stop-color="#00FFF0"/>
<stop offset="1" stop-color="white" stop-opacity="0"/>
</linearGradient>
<linearGradient id="paint1_linear" x1="17.8701" y1="1.00049" x2="17.8701" y2="45.0001" gradientUnits="userSpaceOnUse">
<stop stop-color="#00C2FF"/>
<stop offset="1" stop-color="white" stop-opacity="0"/>
</linearGradient>
<clipPath id="clip0">
<rect width="44" height="44" fill="white" transform="translate(0 1)"/>
</clipPath>
</defs>
</svg>
