<svg width="44" height="44" viewBox="0 0 44 44" fill="none" xmlns="http://www.w3.org/2000/svg">
<g clip-path="url(#clip0)">
<path d="M35.0261 21.9595L23.2552 0.740115C22.7078 -0.246705 21.2887 -0.246705 20.7413 0.740115L8.97041 21.9595C4.50209 30.9622 8.58575 40.3153 16.9546 43.1574C18.3736 43.6661 19.8988 43.9632 21.4993 43.9965C21.61 43.9988 21.721 43.9999 21.8325 43.9999H21.8326C21.8881 43.9999 21.9429 43.9979 21.9983 43.9974C22.0536 43.998 22.1084 43.9999 22.164 43.9999H22.1641C22.2755 43.9999 22.3865 43.9987 22.4972 43.9965C24.0978 43.9632 25.6229 43.666 27.0419 43.1574C35.4827 40.2908 39.4721 30.9172 35.0261 21.9595Z" fill="#02C2FF"/>
<path d="M16.276 24.4352L21.7778 0.801723C21.8539 0.475246 22.0282 0.21202 22.2559 0.0233009C21.6859 -0.0784491 21.063 0.160114 20.7413 0.740192L8.97041 21.9596C4.50209 30.9623 8.58575 40.3154 16.9547 43.1576C18.3737 43.6661 19.8989 43.9634 21.4994 43.9967C21.6101 43.999 21.721 44.0001 21.8326 44.0001C21.8881 44.0001 21.9429 43.9981 21.9983 43.9976C22.0536 43.9981 22.1084 44.0001 22.1639 44.0001C22.2753 44.0001 22.3864 43.9989 22.4971 43.9967C24.0977 43.9634 25.6229 43.6661 27.0419 43.1576C27.5816 42.9743 28.103 42.7639 28.6054 42.5292C20.3791 41.4893 14.5284 33.8794 16.276 24.4352Z" fill="#00FFF0"/>
<path d="M16.276 24.4352L21.7778 0.801723C21.8539 0.475246 22.0282 0.21202 22.2559 0.0233009C21.6859 -0.0784491 21.063 0.160114 20.7413 0.740192L8.97041 21.9596C4.50209 30.9623 8.58575 40.3154 16.9547 43.1576C18.3737 43.6661 19.8989 43.9634 21.4994 43.9967C21.6101 43.999 21.721 44.0001 21.8326 44.0001C21.8881 44.0001 21.9429 43.9981 21.9983 43.9976C22.0536 43.9981 22.1084 44.0001 22.1639 44.0001C22.2753 44.0001 22.3864 43.9989 22.4971 43.9967C24.0977 43.9634 25.6229 43.6661 27.0419 43.1576C27.5816 42.9743 28.103 42.7639 28.6054 42.5292C20.3791 41.4893 14.5284 33.8794 16.276 24.4352Z" fill="url(#paint0_linear)"/>
</g>
<defs>
<linearGradient id="paint0_linear" x1="17.8701" y1="0.000488281" x2="17.8701" y2="44.0001" gradientUnits="userSpaceOnUse">
<stop stop-color="#00C2FF"/>
<stop offset="1" stop-color="white" stop-opacity="0"/>
</linearGradient>
<clipPath id="clip0">
<rect width="44" height="44" fill="white"/>
</clipPath>
</defs>
</svg>
