<svg width="79" height="79" viewBox="0 0 79 79" fill="none" xmlns="http://www.w3.org/2000/svg">
<path d="M49.3127 21.584C49.3125 19.6432 48.7367 17.7462 47.6583 16.1326C46.5799 14.5191 45.0472 13.2616 43.2542 12.519C41.4611 11.7765 39.4881 11.5824 37.5847 11.9612C35.6812 12.34 33.9329 13.2746 32.5607 14.6471C31.1884 16.0195 30.254 17.7679 29.8755 19.6714C29.4969 21.5749 29.6914 23.5479 30.4341 25.3408C31.1769 27.1338 32.4346 28.6663 34.0483 29.7445C35.662 30.8227 37.5591 31.3982 39.4999 31.3982C42.1017 31.395 44.596 30.36 46.4356 28.5201C48.2752 26.6802 49.3099 24.1858 49.3127 21.584ZM32.0112 21.584C32.0115 20.1029 32.4509 18.6552 33.2739 17.4239C34.097 16.1926 35.2666 15.2329 36.635 14.6663C38.0034 14.0997 39.5091 13.9516 40.9616 14.2407C42.4142 14.5298 43.7484 15.2432 44.7956 16.2905C45.8428 17.3379 46.5559 18.6722 46.8447 20.1248C47.1335 21.5775 46.9852 23.0831 46.4183 24.4514C45.8515 25.8197 44.8917 26.9892 43.6602 27.812C42.4287 28.6348 40.9809 29.0739 39.4999 29.0739C37.5142 29.0717 35.6106 28.2818 34.2067 26.8776C32.8027 25.4734 32.0132 23.5696 32.0112 21.584Z" fill="#00C2FF"/>
<path d="M49.3127 21.584C49.3125 19.6432 48.7367 17.7462 47.6583 16.1326C46.5799 14.5191 45.0472 13.2616 43.2542 12.519C41.4611 11.7765 39.4881 11.5824 37.5847 11.9612C35.6812 12.34 33.9329 13.2746 32.5607 14.6471C31.1884 16.0195 30.254 17.7679 29.8755 19.6714C29.4969 21.5749 29.6914 23.5479 30.4341 25.3408C31.1769 27.1338 32.4346 28.6663 34.0483 29.7445C35.662 30.8227 37.5591 31.3982 39.4999 31.3982C42.1017 31.395 44.596 30.36 46.4356 28.5201C48.2752 26.6802 49.3099 24.1858 49.3127 21.584ZM32.0112 21.584C32.0115 20.1029 32.4509 18.6552 33.2739 17.4239C34.097 16.1926 35.2666 15.2329 36.635 14.6663C38.0034 14.0997 39.5091 13.9516 40.9616 14.2407C42.4142 14.5298 43.7484 15.2432 44.7956 16.2905C45.8428 17.3379 46.5559 18.6722 46.8447 20.1248C47.1335 21.5775 46.9852 23.0831 46.4183 24.4514C45.8515 25.8197 44.8917 26.9892 43.6602 27.812C42.4287 28.6348 40.9809 29.0739 39.4999 29.0739C37.5142 29.0717 35.6106 28.2818 34.2067 26.8776C32.8027 25.4734 32.0132 23.5696 32.0112 21.584Z" fill="url(#paint0_linear)" fill-opacity="0.5"/>
<path d="M78.8974 77.3969L69.4239 52.561C69.3399 52.3411 69.1911 52.1519 68.9972 52.0184C68.8033 51.8849 68.5735 51.8133 68.3381 51.8133H50.4084C50.518 51.6346 50.6269 51.4613 50.7365 51.282C57.6354 39.8601 61.1072 29.8687 61.0573 21.5891C61.0583 15.8715 58.7879 10.3878 54.7457 6.34415C50.7035 2.30054 45.2204 0.0283127 39.5029 0.0273441C33.7853 0.0263754 28.3015 2.29674 24.2579 6.33899C20.2143 10.3812 17.9421 15.8642 17.9411 21.5818C17.8913 29.8687 21.363 39.8615 28.262 51.282C28.3715 51.4633 28.4804 51.6366 28.59 51.8133H10.6603C10.4249 51.8133 10.1951 51.8849 10.0012 52.0184C9.80737 52.1519 9.65859 52.3411 9.57457 52.561L0.102381 77.3969C0.0348888 77.5729 0.0112547 77.7626 0.0335211 77.9498C0.0557874 78.1369 0.123284 78.3158 0.230181 78.471C0.337076 78.6263 0.480157 78.7531 0.647058 78.8406C0.81396 78.9282 0.999663 78.9737 1.18812 78.9734H77.8116C78.0001 78.9737 78.1858 78.9282 78.3527 78.8406C78.5196 78.7531 78.6627 78.6263 78.7696 78.471C78.8765 78.3158 78.944 78.1369 78.9662 77.9498C78.9885 77.7626 78.9649 77.5729 78.8974 77.3969ZM20.266 21.5838C20.2664 19.058 20.7643 16.557 21.7313 14.2236C22.6983 11.8902 24.1155 9.77008 25.9018 7.98435C27.6881 6.19863 29.8087 4.78224 32.1425 3.81605C34.4762 2.84985 36.9774 2.35279 39.5032 2.35322C42.029 2.35366 44.5301 2.85159 46.8634 3.81859C49.1968 4.78558 51.3169 6.20271 53.1027 7.98905C54.8884 9.77539 56.3048 11.896 57.271 14.2297C58.2372 16.5634 58.7342 19.0646 58.7338 21.5904C58.8334 38.0977 43.4006 58.4572 39.4999 63.3394C35.5992 58.4592 20.1657 38.105 20.266 21.5838ZM38.6147 65.9292C38.7238 66.0575 38.8595 66.1605 39.0123 66.2312C39.1651 66.3018 39.3315 66.3384 39.4999 66.3384C39.6683 66.3384 39.8346 66.3018 39.9875 66.2312C40.1403 66.1605 40.276 66.0575 40.3851 65.9292C43.4706 62.1705 46.331 58.2326 48.9515 54.1362H67.5366L69.0241 58.0375L32.7059 70.9542L19.7606 54.1342H30.047C32.6678 58.2314 35.5287 62.1699 38.6147 65.9292ZM32.6654 73.4331H32.672L54.3384 65.73L62.7421 76.6492H23.6288L32.6654 73.4331ZM11.4618 54.1342H16.8275L30.4022 71.773L16.694 76.6485H2.87484L11.4618 54.1342ZM65.6779 76.6492L56.6407 64.9072L69.8555 60.2077L76.1263 76.6492H65.6779Z" fill="#00C2FF"/>
<path d="M78.8974 77.3969L69.4239 52.561C69.3399 52.3411 69.1911 52.1519 68.9972 52.0184C68.8033 51.8849 68.5735 51.8133 68.3381 51.8133H50.4084C50.518 51.6346 50.6269 51.4613 50.7365 51.282C57.6354 39.8601 61.1072 29.8687 61.0573 21.5891C61.0583 15.8715 58.7879 10.3878 54.7457 6.34415C50.7035 2.30054 45.2204 0.0283127 39.5029 0.0273441C33.7853 0.0263754 28.3015 2.29674 24.2579 6.33899C20.2143 10.3812 17.9421 15.8642 17.9411 21.5818C17.8913 29.8687 21.363 39.8615 28.262 51.282C28.3715 51.4633 28.4804 51.6366 28.59 51.8133H10.6603C10.4249 51.8133 10.1951 51.8849 10.0012 52.0184C9.80737 52.1519 9.65859 52.3411 9.57457 52.561L0.102381 77.3969C0.0348888 77.5729 0.0112547 77.7626 0.0335211 77.9498C0.0557874 78.1369 0.123284 78.3158 0.230181 78.471C0.337076 78.6263 0.480157 78.7531 0.647058 78.8406C0.81396 78.9282 0.999663 78.9737 1.18812 78.9734H77.8116C78.0001 78.9737 78.1858 78.9282 78.3527 78.8406C78.5196 78.7531 78.6627 78.6263 78.7696 78.471C78.8765 78.3158 78.944 78.1369 78.9662 77.9498C78.9885 77.7626 78.9649 77.5729 78.8974 77.3969ZM20.266 21.5838C20.2664 19.058 20.7643 16.557 21.7313 14.2236C22.6983 11.8902 24.1155 9.77008 25.9018 7.98435C27.6881 6.19863 29.8087 4.78224 32.1425 3.81605C34.4762 2.84985 36.9774 2.35279 39.5032 2.35322C42.029 2.35366 44.5301 2.85159 46.8634 3.81859C49.1968 4.78558 51.3169 6.20271 53.1027 7.98905C54.8884 9.77539 56.3048 11.896 57.271 14.2297C58.2372 16.5634 58.7342 19.0646 58.7338 21.5904C58.8334 38.0977 43.4006 58.4572 39.4999 63.3394C35.5992 58.4592 20.1657 38.105 20.266 21.5838ZM38.6147 65.9292C38.7238 66.0575 38.8595 66.1605 39.0123 66.2312C39.1651 66.3018 39.3315 66.3384 39.4999 66.3384C39.6683 66.3384 39.8346 66.3018 39.9875 66.2312C40.1403 66.1605 40.276 66.0575 40.3851 65.9292C43.4706 62.1705 46.331 58.2326 48.9515 54.1362H67.5366L69.0241 58.0375L32.7059 70.9542L19.7606 54.1342H30.047C32.6678 58.2314 35.5287 62.1699 38.6147 65.9292ZM32.6654 73.4331H32.672L54.3384 65.73L62.7421 76.6492H23.6288L32.6654 73.4331ZM11.4618 54.1342H16.8275L30.4022 71.773L16.694 76.6485H2.87484L11.4618 54.1342ZM65.6779 76.6492L56.6407 64.9072L69.8555 60.2077L76.1263 76.6492H65.6779Z" fill="url(#paint1_linear)" fill-opacity="0.5"/>
<defs>
<linearGradient id="paint0_linear" x1="39.4999" y1="11.7725" x2="39.4999" y2="31.3982" gradientUnits="userSpaceOnUse">
<stop stop-color="#00C2FF"/>
<stop offset="1" stop-color="#00FFF0"/>
</linearGradient>
<linearGradient id="paint1_linear" x1="39.4999" y1="0.0273437" x2="39.4999" y2="78.9734" gradientUnits="userSpaceOnUse">
<stop stop-color="#00C2FF"/>
<stop offset="1" stop-color="#00FFF0"/>
</linearGradient>
</defs>
</svg>
