<svg width="28" height="25" viewBox="0 0 28 25" fill="none" xmlns="http://www.w3.org/2000/svg">
<path d="M0.483211 11.9002L7.33036 15.3132C7.5952 15.4439 7.90786 15.4346 8.16103 15.2864L14.2557 11.7427L10.5667 15.0122C10.3789 15.179 10.2715 15.4171 10.2715 15.6679V23.6316C10.2715 24.4717 11.3437 24.8252 11.8465 24.1578L14.8064 20.2221L22.126 24.3912C22.6393 24.6864 23.2973 24.39 23.4163 23.8031L27.9815 1.04983C28.118 0.366069 27.4378 -0.191677 26.8055 0.0626928L0.555544 10.3017C-0.149121 10.577 -0.194621 11.563 0.483211 11.9002ZM25.9515 2.27501L21.9393 22.271L15.0035 18.3201C14.6255 18.1043 14.139 18.1999 13.8707 18.5547L12.0215 21.0132V16.0611L21.9977 7.22121C22.7875 6.52228 21.8798 5.2796 20.978 5.80935L7.6897 13.5361L3.03237 11.2153L25.9515 2.27501Z" fill="#00FFF0"/>
</svg>
